{"glyphs":{"0":{"ha":879,"x_min":88,"x_max":792,"o":"m 439 -14 q 177 91 260 -14 q 89 365 94 196 l 88 485 l 89 608 q 177 881 93 776 q 439 986 261 986 q 702 881 618 986 q 790 608 786 776 q 792 485 792 569 q 790 365 792 403 q 702 91 785 196 q 439 -14 619 -14 m 439 101 q 600 172 546 101 q 657 372 654 243 q 658 488 658 413 q 657 601 658 564 q 599 801 654 729 q 439 872 544 872 q 279 801 333 872 q 222 601 225 729 l 221 488 l 222 372 q 279 172 225 243 q 439 101 333 101 z "},"1":{"ha":590,"x_min":35,"x_max":483,"o":"m 383 0 q 361 9 369 0 q 353 32 353 18 l 353 815 l 119 636 q 99 628 110 628 q 75 642 86 628 l 42 685 q 35 704 35 694 q 49 729 35 719 l 350 963 q 386 972 365 972 l 451 972 q 474 963 465 972 q 483 940 483 954 l 483 32 q 474 9 483 18 q 451 0 465 0 l 383 0 z "},"2":{"ha":811,"x_min":68,"x_max":740,"o":"m 100 0 q 77 9 86 0 q 68 32 68 18 l 68 74 q 103 135 68 106 l 406 436 q 547 579 508 524 q 586 697 586 635 q 540 826 586 779 q 407 872 494 872 q 275 824 324 872 q 215 693 226 775 q 201 669 213 678 q 179 661 190 661 l 113 661 q 92 669 100 661 q 83 689 83 678 q 123 831 86 763 q 232 944 160 900 q 407 988 304 988 q 641 906 563 988 q 719 700 719 825 q 677 542 719 613 q 544 394 635 472 l 271 117 l 708 117 q 732 108 724 117 q 740 85 740 100 l 740 32 q 731 9 740 18 q 708 0 722 0 l 100 0 z "},"3":{"ha":831,"x_min":60,"x_max":764,"o":"m 411 -14 q 224 22 303 -14 q 103 114 144 57 q 60 232 63 171 q 68 252 60 244 q 89 260 76 260 l 151 260 q 176 253 167 260 q 192 229 186 247 q 270 129 210 158 q 413 100 331 100 q 572 148 513 100 q 631 285 631 196 q 424 454 631 454 l 293 454 q 270 463 279 454 q 261 486 261 472 l 261 522 q 276 558 261 543 l 547 858 l 136 858 q 113 867 122 858 q 104 889 104 875 l 104 939 q 113 963 104 954 q 136 972 122 972 l 686 972 q 710 963 701 972 q 719 939 719 954 l 719 893 q 706 861 719 878 l 435 557 l 457 557 q 681 483 599 553 q 764 281 764 414 q 719 123 764 189 q 593 22 674 57 q 411 -14 513 -14 z "},"4":{"ha":858,"x_min":43,"x_max":813,"o":"m 558 0 q 535 9 544 0 q 526 32 526 18 l 526 235 l 75 235 q 52 244 61 235 q 43 267 43 253 l 43 318 q 58 360 43 338 l 476 949 q 497 966 483 960 q 528 972 511 972 l 622 972 q 646 964 638 972 q 654 940 654 956 l 654 351 l 781 351 q 803 342 794 351 q 813 319 813 333 l 813 267 q 803 244 813 253 q 781 235 794 235 l 654 235 l 654 32 q 645 9 654 18 q 622 0 636 0 l 558 0 m 188 349 l 528 349 l 528 832 l 188 349 z "},"5":{"ha":822,"x_min":64,"x_max":757,"o":"m 404 -14 q 224 24 300 -14 q 107 122 147 61 q 64 251 67 182 l 64 254 q 72 272 64 265 q 92 279 81 279 l 160 279 q 197 249 189 279 q 274 137 218 174 q 404 100 331 100 q 561 158 499 100 q 624 317 624 215 q 561 465 624 410 q 404 519 499 519 q 324 507 354 519 q 261 471 293 494 q 231 451 243 457 q 206 444 219 444 l 139 444 q 117 453 126 444 q 108 475 107 463 l 151 938 q 186 972 156 972 l 667 972 q 690 964 682 972 q 699 940 699 956 l 699 889 q 690 867 699 875 q 667 858 681 858 l 267 858 l 242 579 q 421 626 308 626 q 590 590 514 626 q 712 482 667 553 q 757 314 757 411 q 712 137 757 211 q 587 24 667 63 q 404 -14 507 -14 z "},"6":{"ha":833,"x_min":68,"x_max":782,"o":"m 426 -14 q 234 31 315 -14 q 110 153 153 76 q 68 319 68 229 q 164 575 68 439 l 429 944 q 437 954 431 946 q 453 967 443 963 q 475 972 463 972 l 543 972 q 563 963 556 972 q 571 942 571 954 q 564 924 571 935 l 361 640 q 442 649 397 649 q 620 603 543 649 q 740 484 697 558 q 782 321 782 410 q 740 155 782 232 q 617 32 697 78 q 426 -14 536 -14 m 425 101 q 538 126 486 101 q 619 201 589 151 q 650 319 650 250 q 619 437 650 388 q 536 512 588 486 q 425 538 485 538 q 314 512 365 538 q 232 437 263 486 q 201 319 201 388 q 232 201 201 250 q 314 126 263 151 q 425 101 365 101 z "},"7":{"ha":708,"x_min":40,"x_max":671,"o":"m 208 0 q 188 9 196 0 q 181 31 181 18 l 183 43 l 531 856 l 72 856 q 49 865 58 856 q 40 888 40 874 l 40 939 q 49 963 40 954 q 72 972 57 972 l 639 972 q 663 963 654 972 q 671 939 671 954 l 671 892 q 660 838 671 867 l 317 35 q 301 10 310 19 q 278 0 293 0 l 208 0 z "},"8":{"ha":881,"x_min":78,"x_max":803,"o":"m 440 -14 q 252 22 335 -14 q 124 124 169 57 q 78 279 78 190 q 119 423 78 361 q 229 518 160 485 q 143 602 174 550 q 113 725 113 654 q 203 916 113 846 q 440 986 293 986 q 677 917 588 986 q 767 725 767 847 q 736 603 767 656 q 651 518 706 551 q 762 423 721 485 q 803 278 803 361 q 757 123 803 189 q 628 22 711 57 q 440 -14 546 -14 m 440 567 q 583 611 525 569 q 642 722 642 653 q 584 835 642 793 q 440 878 526 878 q 296 835 353 878 q 239 722 239 793 q 296 609 239 651 q 440 567 353 567 m 440 94 q 605 144 539 94 q 671 278 671 194 q 605 411 671 361 q 440 461 539 461 q 274 411 340 461 q 208 278 208 361 q 274 144 208 194 q 440 94 340 94 z "},"9":{"ha":821,"x_min":54,"x_max":751,"o":"m 269 0 q 249 9 257 0 q 242 31 242 18 q 247 49 242 40 l 461 346 q 383 338 428 338 q 208 384 283 339 q 94 502 133 429 q 54 658 54 575 q 94 817 54 742 q 212 939 133 892 q 401 986 290 986 q 592 940 513 986 q 711 820 671 894 q 751 661 751 746 q 724 526 751 585 q 653 406 697 468 l 383 28 q 365 8 374 15 q 339 0 356 0 l 269 0 m 401 447 q 511 474 461 447 q 590 548 561 500 q 619 658 619 596 q 590 771 619 722 q 511 846 561 819 q 401 872 461 872 q 294 846 343 872 q 215 771 244 819 q 186 658 186 722 q 215 548 186 596 q 293 474 244 500 q 401 447 342 447 z "},"\u0000":{"ha":0,"x_min":0,"x_max":0,"o":""},"\r":{"ha":342,"x_min":0,"x_max":0,"o":""}," ":{"ha":342,"x_min":0,"x_max":0,"o":""},"A":{"ha":928,"x_min":28,"x_max":900,"o":"m 56 0 q 36 8 44 0 q 28 28 28 17 l 31 43 l 375 942 q 419 972 386 972 l 508 972 q 553 942 542 972 l 897 43 l 900 28 q 891 8 900 17 q 871 0 882 0 l 806 0 q 783 8 792 0 q 771 24 774 15 l 693 224 l 233 224 l 157 24 q 122 0 146 0 l 56 0 m 274 339 l 654 339 l 464 838 l 274 339 z "},"Á":{"ha":928,"x_min":28,"x_max":900,"o":"m 56 0 q 36 8 44 0 q 28 28 28 17 l 31 43 l 375 942 q 419 972 386 972 l 508 972 q 553 942 542 972 l 897 43 l 900 28 q 891 8 900 17 q 871 0 882 0 l 806 0 q 783 8 792 0 q 771 24 774 15 l 693 224 l 233 224 l 157 24 q 122 0 146 0 l 56 0 m 274 339 l 654 339 l 464 838 l 274 339 m 429 1042 q 407 1064 407 1042 q 414 1082 407 1075 l 517 1207 q 540 1227 531 1222 q 568 1232 550 1232 l 667 1232 q 693 1206 693 1232 q 686 1189 693 1196 l 526 1057 q 506 1044 515 1047 q 481 1042 496 1042 l 429 1042 z "},"Ă":{"ha":928,"x_min":28,"x_max":900,"o":"m 56 0 q 36 8 44 0 q 28 28 28 17 l 31 43 l 375 942 q 419 972 386 972 l 508 972 q 553 942 542 972 l 897 43 l 900 28 q 891 8 900 17 q 871 0 882 0 l 806 0 q 783 8 792 0 q 771 24 774 15 l 693 224 l 233 224 l 157 24 q 122 0 146 0 l 56 0 m 274 339 l 654 339 l 464 838 l 274 339 m 464 1029 q 331 1077 371 1029 q 290 1200 290 1125 q 297 1219 290 1211 q 317 1226 304 1226 l 357 1226 q 376 1219 369 1226 q 383 1200 383 1211 q 401 1135 383 1161 q 464 1110 419 1110 q 526 1135 508 1110 q 544 1200 544 1161 q 551 1219 544 1211 q 571 1226 558 1226 l 611 1226 q 631 1219 624 1226 q 638 1200 638 1211 q 597 1077 638 1125 q 464 1029 557 1029 z "},"Â":{"ha":928,"x_min":28,"x_max":900,"o":"m 56 0 q 36 8 44 0 q 28 28 28 17 l 31 43 l 375 942 q 419 972 386 972 l 508 972 q 553 942 542 972 l 897 43 l 900 28 q 891 8 900 17 q 871 0 882 0 l 806 0 q 783 8 792 0 q 771 24 774 15 l 693 224 l 233 224 l 157 24 q 122 0 146 0 l 56 0 m 274 339 l 654 339 l 464 838 l 274 339 m 275 1042 q 256 1058 256 1042 q 271 1085 256 1071 l 397 1211 q 420 1228 411 1225 q 443 1232 429 1232 l 485 1232 q 507 1228 497 1232 q 529 1211 517 1225 l 657 1085 q 671 1058 671 1071 q 651 1042 671 1042 l 615 1042 q 578 1051 592 1042 l 464 1131 l 350 1051 q 311 1042 333 1042 l 275 1042 z "},"Ä":{"ha":928,"x_min":28,"x_max":900,"o":"m 56 0 q 36 8 44 0 q 28 28 28 17 l 31 43 l 375 942 q 419 972 386 972 l 508 972 q 553 942 542 972 l 897 43 l 900 28 q 891 8 900 17 q 871 0 882 0 l 806 0 q 783 8 792 0 q 771 24 774 15 l 693 224 l 233 224 l 157 24 q 122 0 146 0 l 56 0 m 274 339 l 654 339 l 464 838 l 274 339 m 290 1042 q 268 1050 276 1042 q 260 1072 260 1058 l 260 1146 q 268 1169 260 1160 q 290 1178 276 1178 l 363 1178 q 385 1169 376 1178 q 394 1146 394 1160 l 394 1072 q 385 1050 394 1058 q 363 1042 376 1042 l 290 1042 m 564 1042 q 542 1050 550 1042 q 533 1072 533 1058 l 533 1146 q 542 1169 533 1160 q 564 1178 550 1178 l 638 1178 q 660 1169 651 1178 q 669 1146 669 1160 l 669 1072 q 660 1050 669 1058 q 638 1042 651 1042 l 564 1042 z "},"À":{"ha":928,"x_min":28,"x_max":900,"o":"m 56 0 q 36 8 44 0 q 28 28 28 17 l 31 43 l 375 942 q 419 972 386 972 l 508 972 q 553 942 542 972 l 897 43 l 900 28 q 891 8 900 17 q 871 0 882 0 l 806 0 q 783 8 792 0 q 771 24 774 15 l 693 224 l 233 224 l 157 24 q 122 0 146 0 l 56 0 m 274 339 l 654 339 l 464 838 l 274 339 m 458 1042 q 433 1044 443 1042 q 413 1057 424 1047 l 253 1189 q 246 1206 246 1196 q 272 1232 246 1232 l 371 1232 q 399 1227 389 1232 q 422 1207 408 1222 l 525 1082 q 532 1064 532 1075 q 510 1042 532 1042 l 458 1042 z "},"Ā":{"ha":928,"x_min":28,"x_max":900,"o":"m 56 0 q 36 8 44 0 q 28 28 28 17 l 31 43 l 375 942 q 419 972 386 972 l 508 972 q 553 942 542 972 l 897 43 l 900 28 q 891 8 900 17 q 871 0 882 0 l 806 0 q 783 8 792 0 q 771 24 774 15 l 693 224 l 233 224 l 157 24 q 122 0 146 0 l 56 0 m 274 339 l 654 339 l 464 838 l 274 339 m 304 1042 q 282 1050 290 1042 q 274 1072 274 1058 l 274 1122 q 282 1144 274 1136 q 304 1153 290 1153 l 622 1153 q 644 1144 636 1153 q 653 1122 653 1136 l 653 1072 q 644 1050 653 1058 q 622 1042 636 1042 l 304 1042 z "},"Ą":{"ha":928,"x_min":28,"x_max":900,"o":"m 826 -306 q 685 -251 736 -306 q 633 -107 633 -197 q 667 8 633 -37 q 758 64 700 53 q 749 79 751 69 l 693 224 l 233 224 l 157 24 q 122 0 146 0 l 56 0 q 36 8 44 0 q 28 28 28 17 l 31 43 l 375 942 q 419 972 386 972 l 508 972 q 553 942 542 972 l 897 43 l 900 28 q 891 8 900 17 q 871 0 882 0 l 831 0 q 759 -30 786 0 q 732 -107 732 -60 q 760 -183 732 -154 q 832 -211 788 -211 l 851 -211 q 874 -220 865 -211 q 883 -243 883 -229 l 883 -274 q 874 -297 883 -287 q 851 -306 865 -306 l 826 -306 m 274 339 l 654 339 l 464 838 l 274 339 z "},"Å":{"ha":928,"x_min":28,"x_max":900,"o":"m 56 0 q 36 8 44 0 q 28 28 28 17 l 31 43 l 375 942 q 419 972 386 972 l 508 972 q 553 942 542 972 l 897 43 l 900 28 q 891 8 900 17 q 871 0 882 0 l 806 0 q 783 8 792 0 q 771 24 774 15 l 693 224 l 233 224 l 157 24 q 122 0 146 0 l 56 0 m 274 339 l 654 339 l 464 838 l 274 339 m 464 1028 q 382 1059 415 1028 q 349 1136 349 1090 q 382 1215 349 1183 q 464 1246 415 1246 q 546 1215 513 1246 q 579 1136 579 1183 q 546 1059 579 1090 q 464 1028 513 1028 m 464 1094 q 494 1106 482 1094 q 506 1136 506 1118 q 494 1166 506 1154 q 464 1178 482 1178 q 434 1166 446 1178 q 422 1136 422 1154 q 434 1106 422 1118 q 464 1094 446 1094 z "},"Ã":{"ha":928,"x_min":28,"x_max":900,"o":"m 56 0 q 36 8 44 0 q 28 28 28 17 l 31 43 l 375 942 q 419 972 386 972 l 508 972 q 553 942 542 972 l 897 43 l 900 28 q 891 8 900 17 q 871 0 882 0 l 806 0 q 783 8 792 0 q 771 24 774 15 l 693 224 l 233 224 l 157 24 q 122 0 146 0 l 56 0 m 274 339 l 654 339 l 464 838 l 274 339 m 536 1035 q 493 1042 511 1035 q 449 1063 475 1049 q 422 1076 436 1069 q 396 1082 408 1082 q 378 1076 385 1082 q 364 1061 371 1071 q 338 1042 353 1042 l 294 1042 q 278 1049 285 1042 q 272 1064 272 1056 q 305 1151 272 1110 q 389 1192 338 1192 q 433 1184 414 1192 q 476 1163 453 1176 q 503 1149 489 1156 q 529 1143 517 1143 q 548 1149 542 1143 q 561 1165 554 1154 q 574 1181 568 1176 q 589 1185 579 1185 l 632 1185 q 648 1178 642 1185 q 654 1163 654 1171 q 639 1105 654 1135 q 597 1055 624 1075 q 536 1035 569 1035 z "},"Æ":{"ha":1297,"x_min":7,"x_max":1225,"o":"m 35 0 q 15 8 24 0 q 7 28 7 17 q 9 38 7 32 q 11 46 11 43 q 115 260 29 96 q 488 943 200 424 q 528 972 501 972 l 1182 972 q 1206 963 1197 972 q 1214 939 1214 954 l 1214 889 q 1205 867 1214 875 q 1182 858 1196 858 l 715 858 l 715 549 l 1151 549 q 1174 540 1165 549 q 1183 515 1183 531 l 1183 468 q 1175 445 1183 454 q 1151 436 1167 436 l 715 436 l 715 115 l 1193 115 q 1216 106 1207 115 q 1225 82 1225 97 l 1225 32 q 1216 9 1225 18 q 1193 0 1207 0 l 618 0 q 595 9 604 0 q 586 32 586 18 l 586 224 l 249 224 q 139 24 140 31 q 104 0 128 0 l 35 0 m 300 339 l 586 339 l 586 850 l 578 850 l 300 339 z "},"Ǽ":{"ha":1297,"x_min":7,"x_max":1225,"o":"m 35 0 q 15 8 24 0 q 7 28 7 17 q 9 38 7 32 q 11 46 11 43 q 115 260 29 96 q 488 943 200 424 q 528 972 501 972 l 1182 972 q 1206 963 1197 972 q 1214 939 1214 954 l 1214 889 q 1205 867 1214 875 q 1182 858 1196 858 l 715 858 l 715 549 l 1151 549 q 1174 540 1165 549 q 1183 515 1183 531 l 1183 468 q 1175 445 1183 454 q 1151 436 1167 436 l 715 436 l 715 115 l 1193 115 q 1216 106 1207 115 q 1225 82 1225 97 l 1225 32 q 1216 9 1225 18 q 1193 0 1207 0 l 618 0 q 595 9 604 0 q 586 32 586 18 l 586 224 l 249 224 q 139 24 140 31 q 104 0 128 0 l 35 0 m 300 339 l 586 339 l 586 850 l 578 850 l 300 339 m 614 1042 q 592 1064 592 1042 q 599 1082 592 1075 l 701 1207 q 725 1227 715 1222 q 753 1232 735 1232 l 851 1232 q 878 1206 878 1232 q 871 1189 878 1196 l 711 1057 q 690 1044 700 1047 q 665 1042 681 1042 l 614 1042 z "},"B":{"ha":926,"x_min":122,"x_max":849,"o":"m 153 0 q 131 9 139 0 q 122 32 122 18 l 122 939 q 131 963 122 954 q 153 972 139 972 l 532 972 q 754 901 679 972 q 829 717 829 831 q 793 587 829 639 q 708 511 757 535 q 808 421 768 482 q 849 281 849 360 q 813 139 849 203 q 708 38 778 75 q 543 0 639 0 l 153 0 m 511 560 q 649 601 601 560 q 696 715 696 642 q 649 825 696 788 q 511 863 603 863 l 253 863 l 253 560 l 511 560 m 525 110 q 665 158 614 110 q 715 281 715 206 q 665 404 715 357 q 525 451 614 451 l 253 451 l 253 110 l 525 110 z "},"C":{"ha":924,"x_min":83,"x_max":857,"o":"m 469 -14 q 188 87 285 -14 q 85 363 92 188 q 83 485 83 400 q 85 610 83 571 q 188 885 92 785 q 469 986 285 986 q 679 942 593 986 q 809 828 765 899 q 857 676 853 757 q 848 656 857 664 q 826 649 839 649 l 757 649 q 735 656 743 649 q 722 679 726 663 q 637 829 699 786 q 469 872 575 872 q 218 603 228 872 q 217 488 217 565 q 218 369 217 410 q 469 101 228 101 q 636 144 574 101 q 722 293 699 188 q 735 317 726 310 q 757 324 743 324 l 826 324 q 848 316 839 324 q 857 296 857 308 q 809 144 853 215 q 679 30 765 74 q 469 -14 593 -14 z "},"Ć":{"ha":924,"x_min":83,"x_max":857,"o":"m 469 -14 q 188 87 285 -14 q 85 363 92 188 q 83 485 83 400 q 85 610 83 571 q 188 885 92 785 q 469 986 285 986 q 679 942 593 986 q 809 828 765 899 q 857 676 853 757 q 848 656 857 664 q 826 649 839 649 l 757 649 q 735 656 743 649 q 722 679 726 663 q 637 829 699 786 q 469 872 575 872 q 218 603 228 872 q 217 488 217 565 q 218 369 217 410 q 469 101 228 101 q 636 144 574 101 q 722 293 699 188 q 735 317 726 310 q 757 324 743 324 l 826 324 q 848 316 839 324 q 857 296 857 308 q 809 144 853 215 q 679 30 765 74 q 469 -14 593 -14 m 428 1042 q 406 1064 406 1042 q 413 1082 406 1075 l 515 1207 q 539 1227 529 1222 q 567 1232 549 1232 l 665 1232 q 692 1206 692 1232 q 685 1189 692 1196 l 525 1057 q 504 1044 514 1047 q 479 1042 494 1042 l 428 1042 z "},"Č":{"ha":924,"x_min":83,"x_max":857,"o":"m 469 -14 q 188 87 285 -14 q 85 363 92 188 q 83 485 83 400 q 85 610 83 571 q 188 885 92 785 q 469 986 285 986 q 679 942 593 986 q 809 828 765 899 q 857 676 853 757 q 848 656 857 664 q 826 649 839 649 l 757 649 q 735 656 743 649 q 722 679 726 663 q 637 829 699 786 q 469 872 575 872 q 218 603 228 872 q 217 488 217 565 q 218 369 217 410 q 469 101 228 101 q 636 144 574 101 q 722 293 699 188 q 735 317 726 310 q 757 324 743 324 l 826 324 q 848 316 839 324 q 857 296 857 308 q 809 144 853 215 q 679 30 765 74 q 469 -14 593 -14 m 442 1042 q 419 1045 428 1042 q 396 1063 410 1049 l 269 1189 q 254 1215 254 1203 q 274 1232 254 1232 l 310 1232 q 349 1222 332 1232 l 463 1143 l 576 1222 q 614 1232 590 1232 l 650 1232 q 669 1215 669 1232 q 656 1189 669 1203 l 528 1063 q 506 1045 515 1049 q 483 1042 496 1042 l 442 1042 z "},"Ç":{"ha":924,"x_min":83,"x_max":857,"o":"m 467 -306 q 383 -285 419 -306 q 346 -246 346 -265 q 351 -235 346 -239 l 372 -215 q 385 -210 378 -210 q 404 -218 390 -210 q 431 -232 418 -226 q 464 -237 443 -237 q 505 -223 489 -237 q 521 -185 521 -208 q 505 -149 521 -162 q 464 -136 489 -136 q 428 -142 449 -136 q 401 -149 408 -149 q 382 -140 389 -149 l 360 -115 q 354 -103 354 -110 q 364 -74 354 -96 l 392 -8 q 168 110 244 13 q 85 363 92 207 q 83 485 83 400 q 85 610 83 571 q 188 885 92 785 q 469 986 285 986 q 679 942 593 986 q 809 828 765 899 q 857 676 853 757 q 848 656 857 664 q 826 649 839 649 l 757 649 q 735 656 743 649 q 722 679 726 663 q 637 829 699 786 q 469 872 575 872 q 218 603 228 872 q 217 488 217 565 q 218 369 217 410 q 469 101 228 101 q 636 144 574 101 q 722 293 699 188 q 735 317 726 310 q 757 324 743 324 l 826 324 q 848 316 839 324 q 857 296 857 308 q 809 144 853 215 q 679 30 765 74 q 469 -14 593 -14 l 439 -78 q 489 -67 457 -67 q 566 -99 536 -67 q 596 -183 596 -132 q 563 -271 596 -236 q 467 -306 529 -306 z "},"Ĉ":{"ha":924,"x_min":83,"x_max":857,"o":"m 469 -14 q 188 87 285 -14 q 85 363 92 188 q 83 485 83 400 q 85 610 83 571 q 188 885 92 785 q 469 986 285 986 q 679 942 593 986 q 809 828 765 899 q 857 676 853 757 q 848 656 857 664 q 826 649 839 649 l 757 649 q 735 656 743 649 q 722 679 726 663 q 637 829 699 786 q 469 872 575 872 q 218 603 228 872 q 217 488 217 565 q 218 369 217 410 q 469 101 228 101 q 636 144 574 101 q 722 293 699 188 q 735 317 726 310 q 757 324 743 324 l 826 324 q 848 316 839 324 q 857 296 857 308 q 809 144 853 215 q 679 30 765 74 q 469 -14 593 -14 m 274 1042 q 254 1058 254 1042 q 269 1085 254 1071 l 396 1211 q 419 1228 410 1225 q 442 1232 428 1232 l 483 1232 q 506 1228 496 1232 q 528 1211 515 1225 l 656 1085 q 669 1058 669 1071 q 650 1042 669 1042 l 614 1042 q 576 1051 590 1042 l 463 1131 l 349 1051 q 310 1042 332 1042 l 274 1042 z "},"Ċ":{"ha":924,"x_min":83,"x_max":857,"o":"m 469 -14 q 188 87 285 -14 q 85 363 92 188 q 83 485 83 400 q 85 610 83 571 q 188 885 92 785 q 469 986 285 986 q 679 942 593 986 q 809 828 765 899 q 857 676 853 757 q 848 656 857 664 q 826 649 839 649 l 757 649 q 735 656 743 649 q 722 679 726 663 q 637 829 699 786 q 469 872 575 872 q 218 603 228 872 q 217 488 217 565 q 218 369 217 410 q 469 101 228 101 q 636 144 574 101 q 722 293 699 188 q 735 317 726 310 q 757 324 743 324 l 826 324 q 848 316 839 324 q 857 296 857 308 q 809 144 853 215 q 679 30 765 74 q 469 -14 593 -14 m 418 1042 q 396 1050 404 1042 q 388 1072 388 1058 l 388 1160 q 396 1183 388 1174 q 418 1192 404 1192 l 506 1192 q 528 1183 519 1192 q 538 1160 538 1174 l 538 1072 q 528 1050 538 1058 q 506 1042 519 1042 l 418 1042 z "},"D":{"ha":956,"x_min":122,"x_max":867,"o":"m 153 0 q 131 9 139 0 q 122 32 122 18 l 122 939 q 131 963 122 954 q 153 972 139 972 l 467 972 q 769 878 676 972 q 865 596 863 785 q 867 488 867 556 q 865 378 867 419 q 823 163 863 246 q 699 40 783 81 q 474 0 614 0 l 153 0 m 467 115 q 622 142 564 115 q 705 227 679 169 q 733 383 731 285 q 736 488 736 467 q 733 590 736 510 q 667 794 731 729 q 460 858 604 858 l 253 858 l 253 115 l 467 115 z "},"Ð":{"ha":968,"x_min":21,"x_max":879,"o":"m 165 0 q 143 9 151 0 q 135 32 135 18 l 135 436 l 53 436 q 30 445 39 436 q 21 468 21 454 l 21 510 q 30 533 21 524 q 53 542 39 542 l 135 542 l 135 939 q 143 963 135 954 q 165 972 151 972 l 479 972 q 782 878 689 972 q 878 596 875 785 q 879 488 879 556 q 878 378 879 418 q 836 164 875 247 q 711 40 797 81 q 485 0 625 0 l 165 0 m 479 115 q 634 142 576 115 q 717 227 692 169 q 746 383 743 285 l 746 590 q 681 794 743 729 q 474 858 618 858 l 265 858 l 265 542 l 451 542 q 474 533 465 542 q 483 510 483 524 l 483 468 q 474 445 483 454 q 451 436 465 436 l 265 436 l 265 115 l 479 115 z "},"Ď":{"ha":956,"x_min":122,"x_max":867,"o":"m 153 0 q 131 9 139 0 q 122 32 122 18 l 122 939 q 131 963 122 954 q 153 972 139 972 l 467 972 q 769 878 676 972 q 865 596 863 785 q 867 488 867 556 q 865 378 867 419 q 823 163 863 246 q 699 40 783 81 q 474 0 614 0 l 153 0 m 467 115 q 622 142 564 115 q 705 227 679 169 q 733 383 731 285 q 736 488 736 467 q 733 590 736 510 q 667 794 731 729 q 460 858 604 858 l 253 858 l 253 115 l 467 115 m 446 1042 q 423 1045 432 1042 q 400 1063 414 1049 l 274 1189 q 258 1215 258 1203 q 278 1232 258 1232 l 314 1232 q 353 1222 336 1232 l 467 1143 l 581 1222 q 618 1232 594 1232 l 654 1232 q 674 1215 674 1232 q 660 1189 674 1203 l 532 1063 q 510 1045 519 1049 q 488 1042 500 1042 l 446 1042 z "},"Đ":{"ha":968,"x_min":21,"x_max":879,"o":"m 165 0 q 143 9 151 0 q 135 32 135 18 l 135 436 l 53 436 q 30 445 39 436 q 21 468 21 454 l 21 510 q 30 533 21 525 q 53 542 39 542 l 135 542 l 135 939 q 143 963 135 954 q 165 972 151 972 l 479 972 q 782 878 689 972 q 878 596 875 785 q 879 488 879 556 q 878 378 879 419 q 835 163 875 246 q 710 40 796 81 q 485 0 625 0 l 165 0 m 479 115 q 634 142 576 115 q 717 227 692 169 q 746 383 743 285 q 749 488 749 467 q 746 590 749 510 q 681 794 743 729 q 474 858 618 858 l 265 858 l 265 542 l 451 542 q 474 533 465 542 q 483 510 483 524 l 483 468 q 474 445 483 454 q 451 436 465 436 l 265 436 l 265 115 l 479 115 z "},"E":{"ha":840,"x_min":122,"x_max":768,"o":"m 153 0 q 131 9 139 0 q 122 32 122 18 l 122 939 q 131 963 122 954 q 153 972 139 972 l 724 972 q 748 963 739 972 q 757 939 757 954 l 757 889 q 748 867 757 875 q 724 858 739 858 l 250 858 l 250 549 l 693 549 q 717 540 708 549 q 726 515 726 531 l 726 468 q 717 445 726 454 q 693 436 708 436 l 250 436 l 250 115 l 735 115 q 759 106 750 115 q 768 82 768 97 l 768 32 q 758 9 768 18 q 735 0 749 0 l 153 0 z "},"É":{"ha":840,"x_min":122,"x_max":768,"o":"m 153 0 q 131 9 139 0 q 122 32 122 18 l 122 939 q 131 963 122 954 q 153 972 139 972 l 724 972 q 748 963 739 972 q 757 939 757 954 l 757 889 q 748 867 757 875 q 724 858 739 858 l 250 858 l 250 549 l 693 549 q 717 540 708 549 q 726 515 726 531 l 726 468 q 717 445 726 454 q 693 436 708 436 l 250 436 l 250 115 l 735 115 q 759 106 750 115 q 768 82 768 97 l 768 32 q 758 9 768 18 q 735 0 749 0 l 153 0 m 385 1042 q 363 1064 363 1042 q 369 1082 363 1075 l 472 1207 q 496 1227 486 1222 q 524 1232 506 1232 l 622 1232 q 649 1206 649 1232 q 642 1189 649 1196 l 482 1057 q 461 1044 471 1047 q 436 1042 451 1042 l 385 1042 z "},"Ĕ":{"ha":840,"x_min":122,"x_max":768,"o":"m 153 0 q 131 9 139 0 q 122 32 122 18 l 122 939 q 131 963 122 954 q 153 972 139 972 l 724 972 q 748 963 739 972 q 757 939 757 954 l 757 889 q 748 867 757 875 q 724 858 739 858 l 250 858 l 250 549 l 693 549 q 717 540 708 549 q 726 515 726 531 l 726 468 q 717 445 726 454 q 693 436 708 436 l 250 436 l 250 115 l 735 115 q 759 106 750 115 q 768 82 768 97 l 768 32 q 758 9 768 18 q 735 0 749 0 l 153 0 m 419 1029 q 286 1077 326 1029 q 246 1200 246 1125 q 253 1219 246 1211 q 272 1226 260 1226 l 313 1226 q 332 1219 325 1226 q 339 1200 339 1211 q 357 1135 339 1161 q 419 1110 375 1110 q 482 1135 464 1110 q 500 1200 500 1161 q 507 1219 500 1211 q 526 1226 514 1226 l 567 1226 q 586 1219 579 1226 q 593 1200 593 1211 q 553 1077 593 1125 q 419 1029 513 1029 z "},"Ě":{"ha":840,"x_min":122,"x_max":768,"o":"m 153 0 q 131 9 139 0 q 122 32 122 18 l 122 939 q 131 963 122 954 q 153 972 139 972 l 724 972 q 748 963 739 972 q 757 939 757 954 l 757 889 q 748 867 757 875 q 724 858 739 858 l 250 858 l 250 549 l 693 549 q 717 540 708 549 q 726 515 726 531 l 726 468 q 717 445 726 454 q 693 436 708 436 l 250 436 l 250 115 l 735 115 q 759 106 750 115 q 768 82 768 97 l 768 32 q 758 9 768 18 q 735 0 749 0 l 153 0 m 399 1042 q 376 1045 385 1042 q 353 1063 367 1049 l 226 1189 q 211 1215 211 1203 q 231 1232 211 1232 l 267 1232 q 306 1222 289 1232 l 419 1143 l 533 1222 q 571 1232 547 1232 l 607 1232 q 626 1215 626 1232 q 613 1189 626 1203 l 485 1063 q 463 1045 472 1049 q 440 1042 453 1042 l 399 1042 z "},"Ê":{"ha":840,"x_min":122,"x_max":768,"o":"m 153 0 q 131 9 139 0 q 122 32 122 18 l 122 939 q 131 963 122 954 q 153 972 139 972 l 724 972 q 748 963 739 972 q 757 939 757 954 l 757 889 q 748 867 757 875 q 724 858 739 858 l 250 858 l 250 549 l 693 549 q 717 540 708 549 q 726 515 726 531 l 726 468 q 717 445 726 454 q 693 436 708 436 l 250 436 l 250 115 l 735 115 q 759 106 750 115 q 768 82 768 97 l 768 32 q 758 9 768 18 q 735 0 749 0 l 153 0 m 231 1042 q 211 1058 211 1042 q 226 1085 211 1071 l 353 1211 q 376 1228 367 1225 q 399 1232 385 1232 l 440 1232 q 463 1228 453 1232 q 485 1211 472 1225 l 613 1085 q 626 1058 626 1071 q 607 1042 626 1042 l 571 1042 q 533 1051 547 1042 l 419 1131 l 306 1051 q 267 1042 289 1042 l 231 1042 z "},"Ë":{"ha":840,"x_min":122,"x_max":768,"o":"m 153 0 q 131 9 139 0 q 122 32 122 18 l 122 939 q 131 963 122 954 q 153 972 139 972 l 724 972 q 748 963 739 972 q 757 939 757 954 l 757 889 q 748 867 757 875 q 724 858 739 858 l 250 858 l 250 549 l 693 549 q 717 540 708 549 q 726 515 726 531 l 726 468 q 717 445 726 454 q 693 436 708 436 l 250 436 l 250 115 l 735 115 q 759 106 750 115 q 768 82 768 97 l 768 32 q 758 9 768 18 q 735 0 749 0 l 153 0 m 246 1042 q 224 1050 232 1042 q 215 1072 215 1058 l 215 1146 q 224 1169 215 1160 q 246 1178 232 1178 l 318 1178 q 341 1169 332 1178 q 350 1146 350 1160 l 350 1072 q 341 1050 350 1058 q 318 1042 332 1042 l 246 1042 m 519 1042 q 497 1050 506 1042 q 489 1072 489 1058 l 489 1146 q 497 1169 489 1160 q 519 1178 506 1178 l 593 1178 q 616 1169 607 1178 q 625 1146 625 1160 l 625 1072 q 616 1050 625 1058 q 593 1042 607 1042 l 519 1042 z "},"Ė":{"ha":840,"x_min":122,"x_max":768,"o":"m 153 0 q 131 9 139 0 q 122 32 122 18 l 122 939 q 131 963 122 954 q 153 972 139 972 l 724 972 q 748 963 739 972 q 757 939 757 954 l 757 889 q 748 867 757 875 q 724 858 739 858 l 250 858 l 250 549 l 693 549 q 717 540 708 549 q 726 515 726 531 l 726 468 q 717 445 726 454 q 693 436 708 436 l 250 436 l 250 115 l 735 115 q 759 106 750 115 q 768 82 768 97 l 768 32 q 758 9 768 18 q 735 0 749 0 l 153 0 m 375 1042 q 353 1050 361 1042 q 344 1072 344 1058 l 344 1160 q 353 1183 344 1174 q 375 1192 361 1192 l 463 1192 q 485 1183 476 1192 q 494 1160 494 1174 l 494 1072 q 485 1050 494 1058 q 463 1042 476 1042 l 375 1042 z "},"È":{"ha":840,"x_min":122,"x_max":768,"o":"m 153 0 q 131 9 139 0 q 122 32 122 18 l 122 939 q 131 963 122 954 q 153 972 139 972 l 724 972 q 748 963 739 972 q 757 939 757 954 l 757 889 q 748 867 757 875 q 724 858 739 858 l 250 858 l 250 549 l 693 549 q 717 540 708 549 q 726 515 726 531 l 726 468 q 717 445 726 454 q 693 436 708 436 l 250 436 l 250 115 l 735 115 q 759 106 750 115 q 768 82 768 97 l 768 32 q 758 9 768 18 q 735 0 749 0 l 153 0 m 414 1042 q 389 1044 399 1042 q 368 1057 379 1047 l 208 1189 q 201 1206 201 1196 q 228 1232 201 1232 l 326 1232 q 354 1227 344 1232 q 378 1207 364 1222 l 481 1082 q 488 1064 488 1075 q 465 1042 488 1042 l 414 1042 z "},"Ē":{"ha":840,"x_min":122,"x_max":768,"o":"m 153 0 q 131 9 139 0 q 122 32 122 18 l 122 939 q 131 963 122 954 q 153 972 139 972 l 724 972 q 748 963 739 972 q 757 939 757 954 l 757 889 q 748 867 757 875 q 724 858 739 858 l 250 858 l 250 549 l 693 549 q 717 540 708 549 q 726 515 726 531 l 726 468 q 717 445 726 454 q 693 436 708 436 l 250 436 l 250 115 l 735 115 q 759 106 750 115 q 768 82 768 97 l 768 32 q 758 9 768 18 q 735 0 749 0 l 153 0 m 260 1042 q 238 1050 246 1042 q 229 1072 229 1058 l 229 1122 q 238 1144 229 1136 q 260 1153 246 1153 l 578 1153 q 600 1144 592 1153 q 608 1122 608 1136 l 608 1072 q 600 1050 608 1058 q 578 1042 592 1042 l 260 1042 z "},"Ę":{"ha":840,"x_min":122,"x_max":768,"o":"m 711 -306 q 569 -251 621 -306 q 518 -107 518 -197 q 543 0 518 -44 l 153 0 q 131 9 139 0 q 122 32 122 18 l 122 939 q 131 963 122 954 q 153 972 139 972 l 724 972 q 748 963 739 972 q 757 939 757 954 l 757 889 q 748 867 757 875 q 724 858 739 858 l 250 858 l 250 549 l 693 549 q 717 540 708 549 q 726 515 726 531 l 726 468 q 717 445 726 454 q 693 436 708 436 l 250 436 l 250 115 l 735 115 q 759 106 750 115 q 768 82 768 97 l 768 32 q 758 9 768 18 q 735 0 749 0 l 708 0 q 642 -31 667 -3 q 617 -107 617 -60 q 644 -183 617 -154 q 717 -211 671 -211 l 736 -211 q 759 -220 750 -211 q 768 -243 768 -229 l 768 -274 q 759 -297 768 -287 q 736 -306 750 -306 l 711 -306 z "},"F":{"ha":810,"x_min":122,"x_max":750,"o":"m 153 0 q 131 9 139 0 q 122 32 122 18 l 122 939 q 131 963 122 954 q 153 972 139 972 l 717 972 q 741 963 732 972 q 750 939 750 954 l 750 888 q 741 865 750 874 q 717 856 732 856 l 251 856 l 251 526 l 689 526 q 713 517 704 526 q 722 494 722 508 l 722 442 q 713 419 722 428 q 689 410 703 410 l 251 410 l 251 32 q 242 9 251 18 q 218 0 232 0 l 153 0 z "},"G":{"ha":943,"x_min":85,"x_max":865,"o":"m 474 -14 q 193 86 293 -14 q 86 357 93 186 q 85 488 85 399 q 86 618 85 578 q 192 887 92 788 q 474 986 293 986 q 681 942 596 986 q 808 835 765 897 q 854 721 851 774 l 854 718 q 845 699 854 707 q 825 692 836 692 l 747 692 q 728 697 735 692 q 717 718 722 703 q 635 828 694 783 q 474 872 575 872 q 290 808 357 872 q 219 611 224 744 q 218 488 218 571 q 219 364 218 406 q 290 165 224 229 q 474 101 357 101 q 663 166 592 101 q 733 360 733 231 l 733 419 l 521 419 q 498 429 507 419 q 489 453 489 439 l 489 494 q 498 518 489 508 q 521 528 507 528 l 832 528 q 856 519 847 528 q 865 494 865 510 l 865 363 q 819 165 865 250 q 683 33 772 79 q 474 -14 594 -14 z "},"Ğ":{"ha":943,"x_min":85,"x_max":865,"o":"m 474 -14 q 193 86 293 -14 q 86 357 93 186 q 85 488 85 399 q 86 618 85 578 q 192 887 92 788 q 474 986 293 986 q 681 942 596 986 q 808 835 765 897 q 854 721 851 774 l 854 718 q 845 699 854 707 q 825 692 836 692 l 747 692 q 728 697 735 692 q 717 718 722 703 q 635 828 694 783 q 474 872 575 872 q 290 808 357 872 q 219 611 224 744 q 218 488 218 571 q 219 364 218 406 q 290 165 224 229 q 474 101 357 101 q 663 166 592 101 q 733 360 733 231 l 733 419 l 521 419 q 498 429 507 419 q 489 453 489 439 l 489 494 q 498 518 489 508 q 521 528 507 528 l 832 528 q 856 519 847 528 q 865 494 865 510 l 865 363 q 819 165 865 250 q 683 33 772 79 q 474 -14 594 -14 m 479 1029 q 346 1077 386 1029 q 306 1200 306 1125 q 313 1219 306 1211 q 332 1226 319 1226 l 372 1226 q 392 1219 385 1226 q 399 1200 399 1211 q 417 1135 399 1161 q 479 1110 435 1110 q 542 1135 524 1110 q 560 1200 560 1161 q 567 1219 560 1211 q 586 1226 574 1226 l 626 1226 q 646 1219 639 1226 q 653 1200 653 1211 q 613 1077 653 1125 q 479 1029 572 1029 z "},"Ĝ":{"ha":943,"x_min":85,"x_max":865,"o":"m 474 -14 q 193 86 293 -14 q 86 357 93 186 q 85 488 85 399 q 86 618 85 578 q 192 887 92 788 q 474 986 293 986 q 681 942 596 986 q 808 835 765 897 q 854 721 851 774 l 854 718 q 845 699 854 707 q 825 692 836 692 l 747 692 q 728 697 735 692 q 717 718 722 703 q 635 828 694 783 q 474 872 575 872 q 290 808 357 872 q 219 611 224 744 q 218 488 218 571 q 219 364 218 406 q 290 165 224 229 q 474 101 357 101 q 663 166 592 101 q 733 360 733 231 l 733 419 l 521 419 q 498 429 507 419 q 489 453 489 439 l 489 494 q 498 518 489 508 q 521 528 507 528 l 832 528 q 856 519 847 528 q 865 494 865 510 l 865 363 q 819 165 865 250 q 683 33 772 79 q 474 -14 594 -14 m 292 1042 q 272 1058 272 1042 q 288 1085 272 1071 l 414 1211 q 437 1228 428 1225 q 460 1232 446 1232 l 501 1232 q 524 1228 514 1232 q 546 1211 533 1225 l 674 1085 q 688 1058 688 1071 q 668 1042 688 1042 l 632 1042 q 594 1051 608 1042 l 481 1131 l 367 1051 q 328 1042 350 1042 l 292 1042 z "},"Ģ":{"ha":943,"x_min":85,"x_max":865,"o":"m 474 -14 q 193 86 293 -14 q 86 357 93 186 q 85 488 85 399 q 86 618 85 578 q 192 887 92 788 q 474 986 293 986 q 681 942 596 986 q 808 835 765 897 q 854 721 851 774 l 854 718 q 845 699 854 707 q 825 692 836 692 l 747 692 q 728 697 735 692 q 717 718 722 703 q 635 828 694 783 q 474 872 575 872 q 290 808 357 872 q 219 611 224 744 q 218 488 218 571 q 219 364 218 406 q 290 165 224 229 q 474 101 357 101 q 663 166 592 101 q 733 360 733 231 l 733 419 l 521 419 q 498 429 507 419 q 489 453 489 439 l 489 494 q 498 518 489 508 q 521 528 507 528 l 832 528 q 856 519 847 528 q 865 494 865 510 l 865 363 q 819 165 865 250 q 683 33 772 79 q 474 -14 594 -14 m 404 -301 q 387 -293 393 -301 q 383 -272 381 -285 l 407 -110 q 446 -69 413 -69 l 533 -69 q 549 -76 543 -69 q 556 -93 556 -83 q 551 -115 556 -103 l 492 -269 q 476 -294 485 -286 q 451 -301 468 -301 l 404 -301 z "},"Ġ":{"ha":943,"x_min":85,"x_max":865,"o":"m 474 -14 q 193 86 293 -14 q 86 357 93 186 q 85 488 85 399 q 86 618 85 578 q 192 887 92 788 q 474 986 293 986 q 681 942 596 986 q 808 835 765 897 q 854 721 851 774 l 854 718 q 845 699 854 707 q 825 692 836 692 l 747 692 q 728 697 735 692 q 717 718 722 703 q 635 828 694 783 q 474 872 575 872 q 290 808 357 872 q 219 611 224 744 q 218 488 218 571 q 219 364 218 406 q 290 165 224 229 q 474 101 357 101 q 663 166 592 101 q 733 360 733 231 l 733 419 l 521 419 q 498 429 507 419 q 489 453 489 439 l 489 494 q 498 518 489 508 q 521 528 507 528 l 832 528 q 856 519 847 528 q 865 494 865 510 l 865 363 q 819 165 865 250 q 683 33 772 79 q 474 -14 594 -14 m 436 1042 q 414 1050 422 1042 q 406 1072 406 1058 l 406 1160 q 414 1183 406 1174 q 436 1192 422 1192 l 524 1192 q 547 1183 538 1192 q 556 1160 556 1174 l 556 1072 q 547 1050 556 1058 q 524 1042 538 1042 l 436 1042 z "},"H":{"ha":989,"x_min":122,"x_max":868,"o":"m 153 0 q 131 9 139 0 q 122 32 122 18 l 122 939 q 131 963 122 954 q 153 972 139 972 l 219 972 q 244 963 235 972 q 253 939 253 954 l 253 553 l 736 553 l 736 939 q 745 963 736 954 q 768 972 754 972 l 835 972 q 859 963 850 972 q 868 939 868 954 l 868 32 q 858 9 868 18 q 835 0 849 0 l 768 0 q 745 9 754 0 q 736 32 736 18 l 736 432 l 253 432 l 253 32 q 243 9 253 18 q 219 0 233 0 l 153 0 z "},"Ħ":{"ha":989,"x_min":39,"x_max":961,"o":"m 931 810 q 953 801 944 810 q 961 778 961 792 l 961 746 q 953 723 961 732 q 931 714 944 714 l 868 714 l 868 32 q 858 9 868 18 q 835 0 849 0 l 768 0 q 745 9 754 0 q 736 32 736 18 l 736 432 l 253 432 l 253 32 q 243 9 253 18 q 219 0 233 0 l 153 0 q 131 9 139 0 q 122 32 122 18 l 122 714 l 71 714 q 48 723 57 714 q 39 746 39 732 l 39 778 q 48 801 39 793 q 71 810 57 810 l 122 810 l 122 939 q 131 963 122 954 q 153 972 139 972 l 219 972 q 244 963 235 972 q 253 939 253 954 l 253 810 l 736 810 l 736 939 q 745 963 736 954 q 768 972 754 972 l 835 972 q 859 963 850 972 q 868 939 868 954 l 868 810 l 931 810 m 736 553 l 736 714 l 253 714 l 253 553 l 736 553 z "},"Ĥ":{"ha":989,"x_min":122,"x_max":868,"o":"m 153 0 q 131 9 139 0 q 122 32 122 18 l 122 939 q 131 963 122 954 q 153 972 139 972 l 219 972 q 244 963 235 972 q 253 939 253 954 l 253 553 l 736 553 l 736 939 q 745 963 736 954 q 768 972 754 972 l 835 972 q 859 963 850 972 q 868 939 868 954 l 868 32 q 858 9 868 18 q 835 0 849 0 l 768 0 q 745 9 754 0 q 736 32 736 18 l 736 432 l 253 432 l 253 32 q 243 9 253 18 q 219 0 233 0 l 153 0 m 307 1042 q 288 1058 288 1042 q 303 1085 288 1071 l 429 1211 q 452 1228 443 1225 q 475 1232 461 1232 l 517 1232 q 539 1228 529 1232 q 561 1211 549 1225 l 689 1085 q 703 1058 703 1071 q 683 1042 703 1042 l 647 1042 q 610 1051 624 1042 l 496 1131 l 382 1051 q 343 1042 365 1042 l 307 1042 z "},"I":{"ha":376,"x_min":122,"x_max":254,"o":"m 153 0 q 131 9 139 0 q 122 32 122 18 l 122 940 q 131 963 122 954 q 153 972 139 972 l 222 972 q 246 964 238 972 q 254 940 254 956 l 254 32 q 245 9 254 18 q 222 0 236 0 l 153 0 z "},"Ĳ":{"ha":868,"x_min":122,"x_max":756,"o":"m 153 0 q 131 9 139 0 q 122 32 122 18 l 122 940 q 131 963 122 954 q 153 972 139 972 l 222 972 q 246 964 238 972 q 254 940 254 956 l 254 32 q 245 9 254 18 q 222 0 236 0 l 153 0 m 397 -14 q 374 -5 383 -14 q 365 18 365 4 l 365 72 q 374 96 365 86 q 397 106 383 106 q 565 175 507 106 q 622 365 622 244 l 622 940 q 631 963 622 954 q 654 972 640 972 l 722 972 q 747 963 738 972 q 756 939 756 954 l 756 356 q 662 84 756 182 q 397 -14 568 -14 z "},"Í":{"ha":376,"x_min":122,"x_max":418,"o":"m 153 0 q 131 9 139 0 q 122 32 122 18 l 122 940 q 131 963 122 954 q 153 972 139 972 l 222 972 q 246 964 238 972 q 254 940 254 956 l 254 32 q 245 9 254 18 q 222 0 236 0 l 153 0 m 154 1042 q 132 1064 132 1042 q 139 1082 132 1075 l 242 1207 q 265 1227 256 1222 q 293 1232 275 1232 l 392 1232 q 418 1206 418 1232 q 411 1189 418 1196 l 251 1057 q 231 1044 240 1047 q 206 1042 221 1042 l 154 1042 z "},"Ĭ":{"ha":376,"x_min":15,"x_max":363,"o":"m 153 0 q 131 9 139 0 q 122 32 122 18 l 122 940 q 131 963 122 954 q 153 972 139 972 l 222 972 q 246 964 238 972 q 254 940 254 956 l 254 32 q 245 9 254 18 q 222 0 236 0 l 153 0 m 189 1029 q 56 1077 96 1029 q 15 1200 15 1125 q 22 1219 15 1211 q 42 1226 29 1226 l 82 1226 q 101 1219 94 1226 q 108 1200 108 1211 q 126 1135 108 1161 q 189 1110 144 1110 q 251 1135 233 1110 q 269 1200 269 1161 q 276 1219 269 1211 q 296 1226 283 1226 l 336 1226 q 356 1219 349 1226 q 363 1200 363 1211 q 322 1077 363 1125 q 189 1029 282 1029 z "},"Î":{"ha":376,"x_min":-19,"x_max":396,"o":"m 153 0 q 131 9 139 0 q 122 32 122 18 l 122 940 q 131 963 122 954 q 153 972 139 972 l 222 972 q 246 964 238 972 q 254 940 254 956 l 254 32 q 245 9 254 18 q 222 0 236 0 l 153 0 m 0 1042 q -19 1058 -19 1042 q -4 1085 -19 1071 l 122 1211 q 145 1228 136 1225 q 168 1232 154 1232 l 210 1232 q 232 1228 222 1232 q 254 1211 242 1225 l 382 1085 q 396 1058 396 1071 q 376 1042 396 1042 l 340 1042 q 303 1051 317 1042 l 189 1131 l 75 1051 q 36 1042 58 1042 l 0 1042 z "},"Ï":{"ha":376,"x_min":-15,"x_max":394,"o":"m 153 0 q 131 9 139 0 q 122 32 122 18 l 122 940 q 131 963 122 954 q 153 972 139 972 l 222 972 q 246 964 238 972 q 254 940 254 956 l 254 32 q 245 9 254 18 q 222 0 236 0 l 153 0 m 15 1042 q -7 1050 1 1042 q -15 1072 -15 1058 l -15 1146 q -7 1169 -15 1160 q 15 1178 1 1178 l 88 1178 q 110 1169 101 1178 q 119 1146 119 1160 l 119 1072 q 110 1050 119 1058 q 88 1042 101 1042 l 15 1042 m 289 1042 q 267 1050 275 1042 q 258 1072 258 1058 l 258 1146 q 267 1169 258 1160 q 289 1178 275 1178 l 363 1178 q 385 1169 376 1178 q 394 1146 394 1160 l 394 1072 q 385 1050 394 1058 q 363 1042 376 1042 l 289 1042 z "},"İ":{"ha":376,"x_min":114,"x_max":264,"o":"m 153 0 q 131 9 139 0 q 122 32 122 18 l 122 940 q 131 963 122 954 q 153 972 139 972 l 222 972 q 246 964 238 972 q 254 940 254 956 l 254 32 q 245 9 254 18 q 222 0 236 0 l 153 0 m 144 1042 q 122 1050 131 1042 q 114 1072 114 1058 l 114 1160 q 122 1183 114 1174 q 144 1192 131 1192 l 232 1192 q 255 1183 246 1192 q 264 1160 264 1174 l 264 1072 q 255 1050 264 1058 q 232 1042 246 1042 l 144 1042 z "},"Ì":{"ha":376,"x_min":-29,"x_max":257,"o":"m 153 0 q 131 9 139 0 q 122 32 122 18 l 122 940 q 131 963 122 954 q 153 972 139 972 l 222 972 q 246 964 238 972 q 254 940 254 956 l 254 32 q 245 9 254 18 q 222 0 236 0 l 153 0 m 183 1042 q 158 1044 168 1042 q 138 1057 149 1047 l -22 1189 q -29 1206 -29 1196 q -3 1232 -29 1232 l 96 1232 q 124 1227 114 1232 q 147 1207 133 1222 l 250 1082 q 257 1064 257 1075 q 235 1042 257 1042 l 183 1042 z "},"Ī":{"ha":376,"x_min":-1,"x_max":378,"o":"m 153 0 q 131 9 139 0 q 122 32 122 18 l 122 940 q 131 963 122 954 q 153 972 139 972 l 222 972 q 246 964 238 972 q 254 940 254 956 l 254 32 q 245 9 254 18 q 222 0 236 0 l 153 0 m 29 1042 q 7 1050 15 1042 q -1 1072 -1 1058 l -1 1122 q 7 1144 -1 1136 q 29 1153 15 1153 l 347 1153 q 369 1144 361 1153 q 378 1122 378 1136 l 378 1072 q 369 1050 378 1058 q 347 1042 361 1042 l 29 1042 z "},"Į":{"ha":397,"x_min":25,"x_max":275,"o":"m 218 -306 q 76 -251 128 -306 q 25 -107 25 -197 q 60 8 25 -37 q 154 64 94 53 l 149 74 q 143 92 143 82 l 143 940 q 151 963 143 954 q 174 972 160 972 l 243 972 q 267 964 258 972 q 275 940 275 956 l 275 32 q 266 9 275 18 q 243 0 257 0 l 224 0 q 151 -30 179 0 q 124 -107 124 -60 q 151 -183 124 -154 q 224 -212 179 -212 l 243 -212 q 266 -221 257 -212 q 275 -243 275 -229 l 275 -275 q 266 -297 275 -289 q 243 -306 257 -306 l 218 -306 z "},"Ĩ":{"ha":376,"x_min":-3,"x_max":379,"o":"m 153 0 q 131 9 139 0 q 122 32 122 18 l 122 940 q 131 963 122 954 q 153 972 139 972 l 222 972 q 246 964 238 972 q 254 940 254 956 l 254 32 q 245 9 254 18 q 222 0 236 0 l 153 0 m 261 1035 q 218 1042 236 1035 q 174 1063 200 1049 q 147 1076 161 1069 q 121 1082 133 1082 q 103 1076 110 1082 q 89 1061 96 1071 q 63 1042 78 1042 l 19 1042 q 3 1049 10 1042 q -3 1064 -3 1056 q 30 1151 -3 1110 q 114 1192 63 1192 q 158 1184 139 1192 q 201 1163 178 1176 q 228 1149 214 1156 q 254 1143 242 1143 q 273 1149 267 1143 q 286 1165 279 1154 q 299 1181 293 1176 q 314 1185 304 1185 l 357 1185 q 373 1178 367 1185 q 379 1163 379 1171 q 364 1105 379 1135 q 322 1055 349 1075 q 261 1035 294 1035 z "},"J":{"ha":878,"x_min":54,"x_max":765,"o":"m 410 -14 q 159 60 258 -14 q 54 279 60 135 q 63 301 54 292 q 83 310 71 310 l 154 310 q 189 278 185 310 q 258 144 197 188 q 411 101 319 101 q 574 171 517 101 q 632 358 632 240 l 632 856 l 136 856 q 113 865 122 856 q 104 888 104 874 l 104 940 q 113 963 104 954 q 136 972 122 972 l 732 972 q 756 963 747 972 q 765 939 765 954 l 765 356 q 723 161 765 244 q 600 32 681 78 q 410 -14 519 -14 z "},"Ĵ":{"ha":878,"x_min":54,"x_max":765,"o":"m 410 -14 q 159 60 258 -14 q 54 279 60 135 q 63 301 54 292 q 83 310 71 310 l 154 310 q 189 278 185 310 q 258 144 197 188 q 411 101 319 101 q 574 171 517 101 q 632 358 632 240 l 632 856 l 136 856 q 113 865 122 856 q 104 888 104 874 l 104 940 q 113 963 104 954 q 136 972 122 972 l 732 972 q 756 963 747 972 q 765 939 765 954 l 765 356 q 723 161 765 244 q 600 32 681 78 q 410 -14 519 -14 m 249 1042 q 229 1058 229 1042 q 244 1085 229 1071 l 371 1211 q 394 1228 385 1225 q 417 1232 403 1232 l 458 1232 q 481 1228 471 1232 q 503 1211 490 1225 l 631 1085 q 644 1058 644 1071 q 625 1042 644 1042 l 589 1042 q 551 1051 565 1042 l 438 1131 l 324 1051 q 285 1042 307 1042 l 249 1042 z "},"K":{"ha":831,"x_min":122,"x_max":808,"o":"m 153 0 q 131 9 139 0 q 122 32 122 18 l 122 939 q 131 963 122 954 q 153 972 139 972 l 218 972 q 242 963 233 972 q 251 939 251 954 l 251 593 l 628 950 q 682 972 650 972 l 751 972 q 771 964 763 972 q 779 944 779 956 q 772 926 779 933 l 339 507 l 801 47 q 808 28 808 39 q 800 8 808 17 q 781 0 792 0 l 708 0 q 678 6 689 0 q 654 22 667 13 l 251 415 l 251 32 q 242 9 251 18 q 218 0 232 0 l 153 0 z "},"Ķ":{"ha":831,"x_min":122,"x_max":808,"o":"m 153 0 q 131 9 139 0 q 122 32 122 18 l 122 939 q 131 963 122 954 q 153 972 139 972 l 218 972 q 242 963 233 972 q 251 939 251 954 l 251 593 l 628 950 q 682 972 650 972 l 751 972 q 771 964 763 972 q 779 944 779 956 q 772 926 779 933 l 339 507 l 801 47 q 808 28 808 39 q 800 8 808 17 q 781 0 792 0 l 708 0 q 678 6 689 0 q 654 22 667 13 l 251 415 l 251 32 q 242 9 251 18 q 218 0 232 0 l 153 0 m 350 -301 q 333 -293 339 -301 q 329 -272 326 -285 l 353 -110 q 392 -69 358 -69 l 479 -69 q 495 -76 489 -69 q 501 -93 501 -83 q 497 -115 501 -103 l 438 -269 q 422 -294 431 -286 q 397 -301 414 -301 l 350 -301 z "},"L":{"ha":779,"x_min":122,"x_max":750,"o":"m 153 0 q 131 9 139 0 q 122 32 122 18 l 122 940 q 131 963 122 954 q 153 972 139 972 l 222 972 q 244 963 236 972 q 253 940 253 954 l 253 117 l 717 117 q 741 108 732 117 q 750 85 750 99 l 750 32 q 740 9 750 18 q 717 0 731 0 l 153 0 z "},"Ĺ":{"ha":779,"x_min":122,"x_max":750,"o":"m 153 0 q 131 9 139 0 q 122 32 122 18 l 122 940 q 131 963 122 954 q 153 972 139 972 l 222 972 q 244 963 236 972 q 253 940 253 954 l 253 117 l 717 117 q 741 108 732 117 q 750 85 750 99 l 750 32 q 740 9 750 18 q 717 0 731 0 l 153 0 m 150 1042 q 128 1064 128 1042 q 135 1082 128 1075 l 238 1207 q 261 1227 251 1222 q 289 1232 271 1232 l 388 1232 q 414 1206 414 1232 q 407 1189 414 1196 l 247 1057 q 226 1044 236 1047 q 201 1042 217 1042 l 150 1042 z "},"Ľ":{"ha":779,"x_min":122,"x_max":750,"o":"m 153 0 q 131 9 139 0 q 122 32 122 18 l 122 940 q 131 963 122 954 q 153 972 139 972 l 222 972 q 244 963 236 972 q 253 940 253 954 l 253 117 l 717 117 q 741 108 732 117 q 750 85 750 99 l 750 32 q 740 9 750 18 q 717 0 731 0 l 153 0 m 407 754 q 390 763 396 754 q 386 783 383 771 l 410 946 q 449 986 415 986 l 536 986 q 552 979 546 986 q 558 963 558 972 q 554 940 558 953 l 494 786 q 479 762 488 769 q 454 754 471 754 l 407 754 z "},"Ļ":{"ha":779,"x_min":122,"x_max":750,"o":"m 153 0 q 131 9 139 0 q 122 32 122 18 l 122 940 q 131 963 122 954 q 153 972 139 972 l 222 972 q 244 963 236 972 q 253 940 253 954 l 253 117 l 717 117 q 741 108 732 117 q 750 85 750 99 l 750 32 q 740 9 750 18 q 717 0 731 0 l 153 0 m 343 -301 q 326 -293 332 -301 q 322 -272 319 -285 l 346 -110 q 385 -69 351 -69 l 472 -69 q 488 -76 482 -69 q 494 -93 494 -83 q 490 -115 494 -103 l 431 -269 q 415 -294 424 -286 q 390 -301 407 -301 l 343 -301 z "},"Ŀ":{"ha":779,"x_min":122,"x_max":750,"o":"m 153 0 q 131 9 139 0 q 122 32 122 18 l 122 940 q 131 963 122 954 q 153 972 139 972 l 222 972 q 244 963 236 972 q 253 940 253 954 l 253 117 l 717 117 q 741 108 732 117 q 750 85 750 99 l 750 32 q 740 9 750 18 q 717 0 731 0 l 153 0 m 439 433 q 417 442 425 433 q 408 465 408 451 l 408 550 q 417 573 408 564 q 439 582 425 582 l 525 582 q 548 573 539 582 q 557 550 557 564 l 557 465 q 548 442 557 451 q 525 433 539 433 l 439 433 z "},"Ł":{"ha":790,"x_min":17,"x_max":761,"o":"m 164 0 q 142 9 150 0 q 133 32 133 18 l 133 390 l 61 363 q 44 358 50 358 q 24 365 32 358 q 17 385 17 372 l 17 432 q 23 454 17 447 q 47 468 29 461 l 133 501 l 133 940 q 142 963 133 954 q 164 972 150 972 l 233 972 q 256 963 247 972 q 264 940 264 954 l 264 553 l 465 631 q 483 635 476 635 q 503 628 496 635 q 510 610 510 622 l 510 563 q 503 540 510 547 q 479 526 497 533 l 264 442 l 264 117 l 729 117 q 752 108 743 117 q 761 85 761 99 l 761 32 q 752 9 761 18 q 729 0 743 0 l 164 0 z "},"M":{"ha":1101,"x_min":122,"x_max":979,"o":"m 154 0 q 131 9 140 0 q 122 32 122 18 l 122 939 q 131 963 122 954 q 154 972 139 972 l 219 972 q 254 951 244 972 l 550 383 l 849 951 q 882 972 860 972 l 947 972 q 971 963 963 972 q 979 939 979 954 l 979 32 q 970 9 979 18 q 947 0 961 0 l 883 0 q 861 9 869 0 q 853 32 853 18 l 853 722 l 615 263 q 571 233 601 233 l 529 233 q 485 263 500 233 l 249 722 l 249 32 q 240 9 249 18 q 217 0 231 0 l 154 0 z "},"N":{"ha":963,"x_min":122,"x_max":842,"o":"m 153 0 q 131 9 139 0 q 122 32 122 18 l 122 939 q 131 963 122 954 q 153 972 139 972 l 214 972 q 235 967 228 972 q 249 953 242 961 l 714 236 l 714 939 q 723 963 714 954 q 746 972 732 972 l 808 972 q 833 963 824 972 q 842 939 842 954 l 842 33 q 833 10 842 19 q 810 0 824 0 l 747 0 q 714 19 724 0 l 249 729 l 249 32 q 240 9 249 18 q 217 0 231 0 l 153 0 z "},"Ń":{"ha":963,"x_min":122,"x_max":842,"o":"m 153 0 q 131 9 139 0 q 122 32 122 18 l 122 939 q 131 963 122 954 q 153 972 139 972 l 214 972 q 235 967 228 972 q 249 953 242 961 l 714 236 l 714 939 q 723 963 714 954 q 746 972 732 972 l 808 972 q 833 963 824 972 q 842 939 842 954 l 842 33 q 833 10 842 19 q 810 0 824 0 l 747 0 q 714 19 724 0 l 249 729 l 249 32 q 240 9 249 18 q 217 0 231 0 l 153 0 m 447 1042 q 425 1064 425 1042 q 432 1082 425 1075 l 535 1207 q 558 1227 549 1222 q 586 1232 568 1232 l 685 1232 q 711 1206 711 1232 q 704 1189 711 1196 l 544 1057 q 524 1044 533 1047 q 499 1042 514 1042 l 447 1042 z "},"Ň":{"ha":963,"x_min":122,"x_max":842,"o":"m 153 0 q 131 9 139 0 q 122 32 122 18 l 122 939 q 131 963 122 954 q 153 972 139 972 l 214 972 q 235 967 228 972 q 249 953 242 961 l 714 236 l 714 939 q 723 963 714 954 q 746 972 732 972 l 808 972 q 833 963 824 972 q 842 939 842 954 l 842 33 q 833 10 842 19 q 810 0 824 0 l 747 0 q 714 19 724 0 l 249 729 l 249 32 q 240 9 249 18 q 217 0 231 0 l 153 0 m 461 1042 q 438 1045 447 1042 q 415 1063 429 1049 l 289 1189 q 274 1215 274 1203 q 293 1232 274 1232 l 329 1232 q 368 1222 351 1232 l 482 1143 l 596 1222 q 633 1232 610 1232 l 669 1232 q 689 1215 689 1232 q 675 1189 689 1203 l 547 1063 q 525 1045 535 1049 q 503 1042 515 1042 l 461 1042 z "},"Ņ":{"ha":963,"x_min":122,"x_max":842,"o":"m 153 0 q 131 9 139 0 q 122 32 122 18 l 122 939 q 131 963 122 954 q 153 972 139 972 l 214 972 q 235 967 228 972 q 249 953 242 961 l 714 236 l 714 939 q 723 963 714 954 q 746 972 732 972 l 808 972 q 833 963 824 972 q 842 939 842 954 l 842 33 q 833 10 842 19 q 810 0 824 0 l 747 0 q 714 19 724 0 l 249 729 l 249 32 q 240 9 249 18 q 217 0 231 0 l 153 0 m 403 -301 q 385 -293 392 -301 q 382 -272 379 -285 l 406 -110 q 444 -69 411 -69 l 532 -69 q 548 -76 542 -69 q 554 -93 554 -83 q 550 -115 554 -103 l 490 -269 q 475 -294 483 -286 q 450 -301 467 -301 l 403 -301 z "},"Ŋ":{"ha":963,"x_min":122,"x_max":842,"o":"m 583 -312 q 560 -304 569 -312 q 551 -281 551 -296 l 551 -228 q 560 -205 551 -214 q 583 -196 569 -196 l 597 -196 q 690 -160 665 -196 q 714 -58 714 -125 l 714 18 l 249 729 l 249 32 q 240 9 249 18 q 217 0 231 0 l 153 0 q 131 9 139 0 q 122 32 122 18 l 122 939 q 131 963 122 954 q 153 972 139 972 l 214 972 q 235 967 228 972 q 249 953 242 961 l 714 236 l 714 939 q 723 963 714 954 q 746 972 732 972 l 808 972 q 833 963 824 972 q 842 939 842 954 l 842 -60 q 592 -312 842 -312 l 583 -312 z "},"Ñ":{"ha":963,"x_min":122,"x_max":842,"o":"m 153 0 q 131 9 139 0 q 122 32 122 18 l 122 939 q 131 963 122 954 q 153 972 139 972 l 214 972 q 235 967 228 972 q 249 953 242 961 l 714 236 l 714 939 q 723 963 714 954 q 746 972 732 972 l 808 972 q 833 963 824 972 q 842 939 842 954 l 842 33 q 833 10 842 19 q 810 0 824 0 l 747 0 q 714 19 724 0 l 249 729 l 249 32 q 240 9 249 18 q 217 0 231 0 l 153 0 m 554 1035 q 511 1042 529 1035 q 467 1063 493 1049 q 440 1076 454 1069 q 414 1082 426 1082 q 396 1076 403 1082 q 382 1061 389 1071 q 356 1042 371 1042 l 313 1042 q 297 1049 303 1042 q 290 1064 290 1056 q 323 1151 290 1110 q 407 1192 356 1192 q 451 1184 432 1192 q 494 1163 471 1176 q 521 1149 507 1156 q 547 1143 535 1143 q 566 1149 560 1143 q 579 1165 572 1154 q 592 1181 586 1176 q 607 1185 597 1185 l 650 1185 q 666 1178 660 1185 q 672 1163 672 1171 q 657 1105 672 1135 q 615 1055 642 1075 q 554 1035 588 1035 z "},"O":{"ha":938,"x_min":85,"x_max":854,"o":"m 469 -14 q 190 81 289 -14 q 86 368 92 176 q 85 486 85 410 q 86 603 85 563 q 194 889 92 792 q 469 986 296 986 q 744 889 643 986 q 851 603 846 792 q 854 486 854 522 q 851 368 854 451 q 748 81 846 176 q 469 -14 650 -14 m 469 101 q 647 169 581 101 q 719 375 714 236 q 722 486 722 458 q 719 597 722 517 q 647 804 714 736 q 469 872 581 872 q 291 804 358 872 q 219 597 224 736 q 218 486 218 557 q 219 375 218 417 q 290 169 224 236 q 469 101 357 101 z "},"Ó":{"ha":938,"x_min":85,"x_max":854,"o":"m 469 -14 q 190 81 289 -14 q 86 368 92 176 q 85 486 85 410 q 86 603 85 563 q 194 889 92 792 q 469 986 296 986 q 744 889 643 986 q 851 603 846 792 q 854 486 854 522 q 851 368 854 451 q 748 81 846 176 q 469 -14 650 -14 m 469 101 q 647 169 581 101 q 719 375 714 236 q 722 486 722 458 q 719 597 722 517 q 647 804 714 736 q 469 872 581 872 q 291 804 358 872 q 219 597 224 736 q 218 486 218 557 q 219 375 218 417 q 290 169 224 236 q 469 101 357 101 m 435 1042 q 413 1064 413 1042 q 419 1082 413 1075 l 522 1207 q 546 1227 536 1222 q 574 1232 556 1232 l 672 1232 q 699 1206 699 1232 q 692 1189 699 1196 l 532 1057 q 511 1044 521 1047 q 486 1042 501 1042 l 435 1042 z "},"Ŏ":{"ha":938,"x_min":85,"x_max":854,"o":"m 469 -14 q 190 81 289 -14 q 86 368 92 176 q 85 486 85 410 q 86 603 85 563 q 194 889 92 792 q 469 986 296 986 q 744 889 643 986 q 851 603 846 792 q 854 486 854 522 q 851 368 854 451 q 748 81 846 176 q 469 -14 650 -14 m 469 101 q 647 169 581 101 q 719 375 714 236 q 722 486 722 458 q 719 597 722 517 q 647 804 714 736 q 469 872 581 872 q 291 804 358 872 q 219 597 224 736 q 218 486 218 557 q 219 375 218 417 q 290 169 224 236 q 469 101 357 101 m 469 1029 q 336 1077 376 1029 q 296 1200 296 1125 q 303 1219 296 1211 q 322 1226 310 1226 l 363 1226 q 382 1219 375 1226 q 389 1200 389 1211 q 407 1135 389 1161 q 469 1110 425 1110 q 532 1135 514 1110 q 550 1200 550 1161 q 557 1219 550 1211 q 576 1226 564 1226 l 617 1226 q 636 1219 629 1226 q 643 1200 643 1211 q 603 1077 643 1125 q 469 1029 563 1029 z "},"Ô":{"ha":938,"x_min":85,"x_max":854,"o":"m 469 -14 q 190 81 289 -14 q 86 368 92 176 q 85 486 85 410 q 86 603 85 563 q 194 889 92 792 q 469 986 296 986 q 744 889 643 986 q 851 603 846 792 q 854 486 854 522 q 851 368 854 451 q 748 81 846 176 q 469 -14 650 -14 m 469 101 q 647 169 581 101 q 719 375 714 236 q 722 486 722 458 q 719 597 722 517 q 647 804 714 736 q 469 872 581 872 q 291 804 358 872 q 219 597 224 736 q 218 486 218 557 q 219 375 218 417 q 290 169 224 236 q 469 101 357 101 m 281 1042 q 261 1058 261 1042 q 276 1085 261 1071 l 403 1211 q 426 1228 417 1225 q 449 1232 435 1232 l 490 1232 q 513 1228 503 1232 q 535 1211 522 1225 l 663 1085 q 676 1058 676 1071 q 657 1042 676 1042 l 621 1042 q 583 1051 597 1042 l 469 1131 l 356 1051 q 317 1042 339 1042 l 281 1042 z "},"Ö":{"ha":938,"x_min":85,"x_max":854,"o":"m 469 -14 q 190 81 289 -14 q 86 368 92 176 q 85 486 85 410 q 86 603 85 563 q 194 889 92 792 q 469 986 296 986 q 744 889 643 986 q 851 603 846 792 q 854 486 854 522 q 851 368 854 451 q 748 81 846 176 q 469 -14 650 -14 m 469 101 q 647 169 581 101 q 719 375 714 236 q 722 486 722 458 q 719 597 722 517 q 647 804 714 736 q 469 872 581 872 q 291 804 358 872 q 219 597 224 736 q 218 486 218 557 q 219 375 218 417 q 290 169 224 236 q 469 101 357 101 m 296 1042 q 274 1050 282 1042 q 265 1072 265 1058 l 265 1146 q 274 1169 265 1160 q 296 1178 282 1178 l 368 1178 q 391 1169 382 1178 q 400 1146 400 1160 l 400 1072 q 391 1050 400 1058 q 368 1042 382 1042 l 296 1042 m 569 1042 q 547 1050 556 1042 q 539 1072 539 1058 l 539 1146 q 547 1169 539 1160 q 569 1178 556 1178 l 643 1178 q 666 1169 657 1178 q 675 1146 675 1160 l 675 1072 q 666 1050 675 1058 q 643 1042 657 1042 l 569 1042 z "},"Ò":{"ha":938,"x_min":85,"x_max":854,"o":"m 469 -14 q 190 81 289 -14 q 86 368 92 176 q 85 486 85 410 q 86 603 85 563 q 194 889 92 792 q 469 986 296 986 q 744 889 643 986 q 851 603 846 792 q 854 486 854 522 q 851 368 854 451 q 748 81 846 176 q 469 -14 650 -14 m 469 101 q 647 169 581 101 q 719 375 714 236 q 722 486 722 458 q 719 597 722 517 q 647 804 714 736 q 469 872 581 872 q 291 804 358 872 q 219 597 224 736 q 218 486 218 557 q 219 375 218 417 q 290 169 224 236 q 469 101 357 101 m 464 1042 q 439 1044 449 1042 q 418 1057 429 1047 l 258 1189 q 251 1206 251 1196 q 278 1232 251 1232 l 376 1232 q 404 1227 394 1232 q 428 1207 414 1222 l 531 1082 q 538 1064 538 1075 q 515 1042 538 1042 l 464 1042 z "},"Ő":{"ha":938,"x_min":85,"x_max":854,"o":"m 469 -14 q 190 81 289 -14 q 86 368 92 176 q 85 486 85 410 q 86 603 85 563 q 194 889 92 792 q 469 986 296 986 q 744 889 643 986 q 851 603 846 792 q 854 486 854 522 q 851 368 854 451 q 748 81 846 176 q 469 -14 650 -14 m 469 101 q 647 169 581 101 q 719 375 714 236 q 722 486 722 458 q 719 597 722 517 q 647 804 714 736 q 469 872 581 872 q 291 804 358 872 q 219 597 224 736 q 218 486 218 557 q 219 375 218 417 q 290 169 224 236 q 469 101 357 101 m 329 1042 q 307 1064 307 1042 q 314 1085 307 1071 l 368 1206 q 387 1226 375 1219 q 419 1232 399 1232 l 501 1232 q 522 1225 514 1232 q 529 1206 529 1218 q 521 1188 529 1196 l 413 1061 q 369 1042 396 1042 l 329 1042 m 557 1042 q 535 1064 535 1042 q 542 1085 535 1071 l 596 1206 q 615 1226 603 1219 q 647 1232 626 1232 l 729 1232 q 749 1225 742 1232 q 757 1206 757 1218 q 749 1188 757 1196 l 640 1061 q 599 1042 624 1042 l 557 1042 z "},"Ō":{"ha":938,"x_min":85,"x_max":854,"o":"m 469 -14 q 190 81 289 -14 q 86 368 92 176 q 85 486 85 410 q 86 603 85 563 q 194 889 92 792 q 469 986 296 986 q 744 889 643 986 q 851 603 846 792 q 854 486 854 522 q 851 368 854 451 q 748 81 846 176 q 469 -14 650 -14 m 469 101 q 647 169 581 101 q 719 375 714 236 q 722 486 722 458 q 719 597 722 517 q 647 804 714 736 q 469 872 581 872 q 291 804 358 872 q 219 597 224 736 q 218 486 218 557 q 219 375 218 417 q 290 169 224 236 q 469 101 357 101 m 310 1042 q 288 1050 296 1042 q 279 1072 279 1058 l 279 1122 q 288 1144 279 1136 q 310 1153 296 1153 l 628 1153 q 650 1144 642 1153 q 658 1122 658 1136 l 658 1072 q 650 1050 658 1058 q 628 1042 642 1042 l 310 1042 z "},"Ø":{"ha":969,"x_min":15,"x_max":954,"o":"m 488 -14 q 113 293 157 -14 l 60 274 q 43 269 49 269 q 15 294 15 269 l 15 342 q 22 365 15 358 q 46 379 28 372 l 103 400 q 101 478 101 426 q 104 603 101 514 q 212 889 110 792 q 488 986 314 986 q 733 912 636 986 q 857 694 829 838 l 910 714 q 926 718 921 718 q 954 693 954 718 l 954 646 q 948 624 954 631 q 924 610 942 617 l 869 589 q 872 478 872 511 q 869 368 872 446 q 766 81 864 176 q 488 -14 668 -14 m 732 646 q 652 816 717 760 q 488 872 588 872 q 309 804 376 872 q 238 597 242 736 q 235 453 233 510 l 732 646 m 488 101 q 665 169 599 101 q 736 375 732 236 q 738 490 738 419 l 738 538 l 239 343 q 317 160 251 219 q 488 101 382 101 z "},"Ǿ":{"ha":969,"x_min":15,"x_max":954,"o":"m 488 -14 q 113 293 157 -14 l 60 274 q 43 269 49 269 q 15 294 15 269 l 15 342 q 22 365 15 358 q 46 379 28 372 l 103 400 q 101 478 101 426 q 104 603 101 514 q 212 889 110 792 q 488 986 314 986 q 733 912 636 986 q 857 694 829 838 l 910 714 q 926 718 921 718 q 954 693 954 718 l 954 646 q 948 624 954 631 q 924 610 942 617 l 869 589 q 872 478 872 511 q 869 368 872 446 q 766 81 864 176 q 488 -14 668 -14 m 732 646 q 652 816 717 760 q 488 872 588 872 q 309 804 376 872 q 238 597 242 736 q 235 453 233 510 l 732 646 m 488 101 q 665 169 599 101 q 736 375 732 236 q 738 490 738 419 l 738 538 l 239 343 q 317 160 251 219 q 488 101 382 101 m 450 1042 q 428 1064 428 1042 q 435 1082 428 1075 l 538 1207 q 561 1227 551 1222 q 589 1232 571 1232 l 688 1232 q 714 1206 714 1232 q 707 1189 714 1196 l 547 1057 q 526 1044 536 1047 q 501 1042 517 1042 l 450 1042 z "},"Õ":{"ha":938,"x_min":85,"x_max":854,"o":"m 469 -14 q 190 81 289 -14 q 86 368 92 176 q 85 486 85 410 q 86 603 85 563 q 194 889 92 792 q 469 986 296 986 q 744 889 643 986 q 851 603 846 792 q 854 486 854 522 q 851 368 854 451 q 748 81 846 176 q 469 -14 650 -14 m 469 101 q 647 169 581 101 q 719 375 714 236 q 722 486 722 458 q 719 597 722 517 q 647 804 714 736 q 469 872 581 872 q 291 804 358 872 q 219 597 224 736 q 218 486 218 557 q 219 375 218 417 q 290 169 224 236 q 469 101 357 101 m 542 1035 q 499 1042 517 1035 q 454 1063 481 1049 q 428 1076 442 1069 q 401 1082 414 1082 q 383 1076 390 1082 q 369 1061 376 1071 q 343 1042 358 1042 l 300 1042 q 284 1049 290 1042 q 278 1064 278 1056 q 310 1151 278 1110 q 394 1192 343 1192 q 439 1184 419 1192 q 482 1163 458 1176 q 508 1149 494 1156 q 535 1143 522 1143 q 553 1149 547 1143 q 567 1165 560 1154 q 579 1181 574 1176 q 594 1185 585 1185 l 638 1185 q 653 1178 647 1185 q 660 1163 660 1171 q 644 1105 660 1135 q 602 1055 629 1075 q 542 1035 575 1035 z "},"Œ":{"ha":1274,"x_min":88,"x_max":1203,"o":"m 482 0 q 256 40 342 0 q 132 163 171 81 q 89 378 93 246 l 88 488 l 89 596 q 186 878 93 785 q 489 972 279 972 l 1158 972 q 1183 963 1174 972 q 1192 939 1192 954 l 1192 889 q 1183 867 1192 875 q 1158 858 1174 858 l 736 858 l 736 549 l 1128 549 q 1152 540 1143 549 q 1161 515 1161 531 l 1161 468 q 1152 445 1161 454 q 1128 436 1143 436 l 736 436 l 736 115 l 1169 115 q 1194 106 1185 115 q 1203 82 1203 97 l 1203 32 q 1193 9 1203 18 q 1169 0 1183 0 l 482 0 m 608 115 l 608 858 l 496 858 q 288 794 351 858 q 221 590 224 729 l 219 488 l 221 383 q 250 227 224 285 q 334 142 276 169 q 489 115 392 115 l 608 115 z "},"P":{"ha":890,"x_min":122,"x_max":840,"o":"m 153 0 q 131 9 139 0 q 122 32 122 18 l 122 939 q 131 963 122 954 q 153 972 139 972 l 504 972 q 751 897 661 972 q 840 676 840 821 q 751 457 840 532 q 504 382 661 382 l 254 382 l 254 32 q 245 9 254 18 q 222 0 236 0 l 153 0 m 497 494 q 707 676 707 494 q 655 813 707 765 q 497 860 603 860 l 254 860 l 254 494 l 497 494 z "},"Þ":{"ha":896,"x_min":122,"x_max":840,"o":"m 153 0 q 131 9 139 0 q 122 32 122 18 l 122 940 q 131 963 122 954 q 153 972 139 972 l 224 972 q 246 963 238 972 q 254 940 254 954 l 254 783 l 504 783 q 751 708 661 783 q 840 488 840 632 q 751 268 840 343 q 504 193 661 193 l 254 193 l 254 32 q 245 9 254 18 q 222 0 236 0 l 153 0 m 497 306 q 654 352 601 306 q 707 488 707 399 q 655 624 707 576 q 497 671 603 671 l 254 671 l 254 306 l 497 306 z "},"Q":{"ha":938,"x_min":85,"x_max":854,"o":"m 749 -90 q 722 -81 733 -90 q 701 -58 711 -72 l 644 21 q 469 -14 571 -14 q 190 81 289 -14 q 86 368 92 176 q 85 486 85 410 q 86 603 85 563 q 194 889 92 792 q 469 986 296 986 q 744 889 643 986 q 851 603 846 792 q 854 486 854 522 q 851 368 854 451 q 750 83 846 176 l 843 -47 q 847 -62 847 -56 q 839 -82 847 -74 q 819 -90 831 -90 l 749 -90 m 469 101 q 647 169 581 101 q 718 375 714 236 q 721 486 721 458 q 718 597 721 517 q 647 804 714 736 q 469 872 581 872 q 291 804 358 872 q 219 597 224 736 q 218 486 218 557 q 219 375 218 417 q 290 169 224 236 q 469 101 357 101 z "},"R":{"ha":908,"x_min":122,"x_max":847,"o":"m 153 0 q 131 9 139 0 q 122 32 122 18 l 122 939 q 131 963 122 954 q 153 972 139 972 l 492 972 q 740 898 650 972 q 829 682 829 824 q 776 508 829 576 q 629 414 724 440 l 843 43 q 847 28 847 35 q 839 8 847 17 q 819 0 831 0 l 758 0 q 726 10 738 0 q 704 38 714 19 l 500 393 l 253 393 l 253 32 q 243 9 253 18 q 219 0 233 0 l 153 0 m 486 507 q 696 683 696 507 q 486 860 696 860 l 253 860 l 253 507 l 486 507 z "},"Ŕ":{"ha":908,"x_min":122,"x_max":847,"o":"m 153 0 q 131 9 139 0 q 122 32 122 18 l 122 939 q 131 963 122 954 q 153 972 139 972 l 492 972 q 740 898 650 972 q 829 682 829 824 q 776 508 829 576 q 629 414 724 440 l 843 43 q 847 28 847 35 q 839 8 847 17 q 819 0 831 0 l 758 0 q 726 10 738 0 q 704 38 714 19 l 500 393 l 253 393 l 253 32 q 243 9 253 18 q 219 0 233 0 l 153 0 m 486 507 q 696 683 696 507 q 486 860 696 860 l 253 860 l 253 507 l 486 507 m 392 1042 q 369 1064 369 1042 q 376 1082 369 1075 l 479 1207 q 503 1227 493 1222 q 531 1232 513 1232 l 629 1232 q 656 1206 656 1232 q 649 1189 656 1196 l 489 1057 q 468 1044 478 1047 q 443 1042 458 1042 l 392 1042 z "},"Ř":{"ha":908,"x_min":122,"x_max":847,"o":"m 153 0 q 131 9 139 0 q 122 32 122 18 l 122 939 q 131 963 122 954 q 153 972 139 972 l 492 972 q 740 898 650 972 q 829 682 829 824 q 776 508 829 576 q 629 414 724 440 l 843 43 q 847 28 847 35 q 839 8 847 17 q 819 0 831 0 l 758 0 q 726 10 738 0 q 704 38 714 19 l 500 393 l 253 393 l 253 32 q 243 9 253 18 q 219 0 233 0 l 153 0 m 486 507 q 696 683 696 507 q 486 860 696 860 l 253 860 l 253 507 l 486 507 m 406 1042 q 383 1045 392 1042 q 360 1063 374 1049 l 233 1189 q 218 1215 218 1203 q 238 1232 218 1232 l 274 1232 q 313 1222 296 1232 l 426 1143 l 540 1222 q 578 1232 554 1232 l 614 1232 q 633 1215 633 1232 q 619 1189 633 1203 l 492 1063 q 469 1045 479 1049 q 447 1042 460 1042 l 406 1042 z "},"Ŗ":{"ha":908,"x_min":122,"x_max":847,"o":"m 153 0 q 131 9 139 0 q 122 32 122 18 l 122 939 q 131 963 122 954 q 153 972 139 972 l 492 972 q 740 898 650 972 q 829 682 829 824 q 776 508 829 576 q 629 414 724 440 l 843 43 q 847 28 847 35 q 839 8 847 17 q 819 0 831 0 l 758 0 q 726 10 738 0 q 704 38 714 19 l 500 393 l 253 393 l 253 32 q 243 9 253 18 q 219 0 233 0 l 153 0 m 486 507 q 696 683 696 507 q 486 860 696 860 l 253 860 l 253 507 l 486 507 m 376 -301 q 359 -293 365 -301 q 356 -272 353 -285 l 379 -110 q 418 -69 385 -69 l 506 -69 q 522 -76 515 -69 q 528 -93 528 -83 q 524 -115 528 -103 l 464 -269 q 449 -294 457 -286 q 424 -301 440 -301 l 376 -301 z "},"S":{"ha":861,"x_min":60,"x_max":800,"o":"m 432 -14 q 234 22 318 -14 q 106 117 150 58 q 60 244 63 176 q 68 264 60 256 q 89 272 76 272 l 157 272 q 192 244 182 272 q 263 144 204 186 q 432 101 322 101 q 608 143 550 101 q 667 258 667 185 q 638 336 667 306 q 553 390 610 367 q 385 446 497 413 q 215 511 278 476 q 119 597 151 546 q 88 725 88 647 q 128 859 88 800 q 244 952 168 918 q 425 986 321 986 q 610 948 533 986 q 728 852 688 910 q 771 736 768 794 q 763 715 771 724 q 742 707 754 707 l 672 707 q 651 714 661 707 q 638 735 642 721 q 571 833 629 794 q 425 872 513 872 q 275 835 331 872 q 219 726 219 799 q 245 647 219 678 q 324 593 271 617 q 481 539 378 569 q 666 472 599 506 q 767 390 733 439 q 800 263 800 340 q 701 59 800 132 q 432 -14 601 -14 z "},"Ś":{"ha":861,"x_min":60,"x_max":800,"o":"m 432 -14 q 234 22 318 -14 q 106 117 150 58 q 60 244 63 176 q 68 264 60 256 q 89 272 76 272 l 157 272 q 192 244 182 272 q 263 144 204 186 q 432 101 322 101 q 608 143 550 101 q 667 258 667 185 q 638 336 667 306 q 553 390 610 367 q 385 446 497 413 q 215 511 278 476 q 119 597 151 546 q 88 725 88 647 q 128 859 88 800 q 244 952 168 918 q 425 986 321 986 q 610 948 533 986 q 728 852 688 910 q 771 736 768 794 q 763 715 771 724 q 742 707 754 707 l 672 707 q 651 714 661 707 q 638 735 642 721 q 571 833 629 794 q 425 872 513 872 q 275 835 331 872 q 219 726 219 799 q 245 647 219 678 q 324 593 271 617 q 481 539 378 569 q 666 472 599 506 q 767 390 733 439 q 800 263 800 340 q 701 59 800 132 q 432 -14 601 -14 m 397 1042 q 375 1064 375 1042 q 382 1082 375 1075 l 485 1207 q 508 1227 499 1222 q 536 1232 518 1232 l 635 1232 q 661 1206 661 1232 q 654 1189 661 1196 l 494 1057 q 474 1044 483 1047 q 449 1042 464 1042 l 397 1042 z "},"Š":{"ha":861,"x_min":60,"x_max":800,"o":"m 432 -14 q 234 22 318 -14 q 106 117 150 58 q 60 244 63 176 q 68 264 60 256 q 89 272 76 272 l 157 272 q 192 244 182 272 q 263 144 204 186 q 432 101 322 101 q 608 143 550 101 q 667 258 667 185 q 638 336 667 306 q 553 390 610 367 q 385 446 497 413 q 215 511 278 476 q 119 597 151 546 q 88 725 88 647 q 128 859 88 800 q 244 952 168 918 q 425 986 321 986 q 610 948 533 986 q 728 852 688 910 q 771 736 768 794 q 763 715 771 724 q 742 707 754 707 l 672 707 q 651 714 661 707 q 638 735 642 721 q 571 833 629 794 q 425 872 513 872 q 275 835 331 872 q 219 726 219 799 q 245 647 219 678 q 324 593 271 617 q 481 539 378 569 q 666 472 599 506 q 767 390 733 439 q 800 263 800 340 q 701 59 800 132 q 432 -14 601 -14 m 411 1042 q 388 1045 397 1042 q 365 1063 379 1049 l 239 1189 q 224 1215 224 1203 q 243 1232 224 1232 l 279 1232 q 318 1222 301 1232 l 432 1143 l 546 1222 q 583 1232 560 1232 l 619 1232 q 639 1215 639 1232 q 625 1189 639 1203 l 497 1063 q 475 1045 485 1049 q 453 1042 465 1042 l 411 1042 z "},"Ş":{"ha":861,"x_min":60,"x_max":800,"o":"m 431 -306 q 347 -285 383 -306 q 310 -246 310 -265 q 315 -235 310 -239 l 336 -215 q 349 -210 342 -210 q 368 -218 354 -210 q 394 -232 382 -226 q 428 -237 407 -237 q 469 -223 453 -237 q 485 -185 485 -208 q 469 -149 485 -162 q 428 -136 453 -136 q 392 -142 413 -136 q 365 -149 372 -149 q 346 -140 353 -149 l 324 -115 q 318 -103 318 -110 q 328 -74 318 -96 l 356 -8 q 198 40 264 3 q 97 131 132 76 q 60 244 61 185 q 68 264 60 256 q 89 272 76 272 l 157 272 q 192 244 182 272 q 263 144 204 186 q 432 101 322 101 q 608 143 550 101 q 667 258 667 185 q 638 336 667 306 q 553 390 610 367 q 385 446 497 413 q 215 511 278 476 q 119 597 151 546 q 88 725 88 647 q 128 859 88 800 q 244 952 168 918 q 425 986 321 986 q 610 948 533 986 q 728 852 688 910 q 771 736 768 794 q 763 715 771 724 q 742 707 754 707 l 672 707 q 651 714 661 707 q 638 735 642 721 q 571 833 629 794 q 425 872 513 872 q 275 835 331 872 q 219 726 219 799 q 245 647 219 678 q 324 593 271 617 q 481 539 378 569 q 666 472 599 506 q 767 390 733 439 q 800 263 800 340 q 701 60 800 133 q 433 -14 601 -14 l 403 -78 q 453 -67 421 -67 q 530 -99 500 -67 q 560 -183 560 -132 q 526 -271 560 -236 q 431 -306 493 -306 z "},"Ŝ":{"ha":861,"x_min":60,"x_max":800,"o":"m 432 -14 q 234 22 318 -14 q 106 117 150 58 q 60 244 63 176 q 68 264 60 256 q 89 272 76 272 l 157 272 q 192 244 182 272 q 263 144 204 186 q 432 101 322 101 q 608 143 550 101 q 667 258 667 185 q 638 336 667 306 q 553 390 610 367 q 385 446 497 413 q 215 511 278 476 q 119 597 151 546 q 88 725 88 647 q 128 859 88 800 q 244 952 168 918 q 425 986 321 986 q 610 948 533 986 q 728 852 688 910 q 771 736 768 794 q 763 715 771 724 q 742 707 754 707 l 672 707 q 651 714 661 707 q 638 735 642 721 q 571 833 629 794 q 425 872 513 872 q 275 835 331 872 q 219 726 219 799 q 245 647 219 678 q 324 593 271 617 q 481 539 378 569 q 666 472 599 506 q 767 390 733 439 q 800 263 800 340 q 701 59 800 132 q 432 -14 601 -14 m 243 1042 q 224 1058 224 1042 q 239 1085 224 1071 l 365 1211 q 388 1228 379 1225 q 411 1232 397 1232 l 453 1232 q 475 1228 465 1232 q 497 1211 485 1225 l 625 1085 q 639 1058 639 1071 q 619 1042 639 1042 l 583 1042 q 546 1051 560 1042 l 432 1131 l 318 1051 q 279 1042 301 1042 l 243 1042 z "},"Ș":{"ha":861,"x_min":60,"x_max":800,"o":"m 432 -14 q 234 22 318 -14 q 106 117 150 58 q 60 244 63 176 q 68 264 60 256 q 89 272 76 272 l 157 272 q 192 244 182 272 q 263 144 204 186 q 432 101 322 101 q 608 143 550 101 q 667 258 667 185 q 638 336 667 306 q 553 390 610 367 q 385 446 497 413 q 215 511 278 476 q 119 597 151 546 q 88 725 88 647 q 128 859 88 800 q 244 952 168 918 q 425 986 321 986 q 610 948 533 986 q 728 852 688 910 q 771 736 768 794 q 763 715 771 724 q 742 707 754 707 l 672 707 q 651 714 661 707 q 638 735 642 721 q 571 833 629 794 q 425 872 513 872 q 275 835 331 872 q 219 726 219 799 q 245 647 219 678 q 324 593 271 617 q 481 539 378 569 q 666 472 599 506 q 767 390 733 439 q 800 263 800 340 q 701 59 800 132 q 432 -14 601 -14 m 349 -301 q 331 -293 338 -301 q 328 -272 325 -285 l 351 -110 q 390 -69 357 -69 l 478 -69 q 494 -76 488 -69 q 500 -93 500 -83 q 496 -115 500 -103 l 436 -269 q 421 -294 429 -286 q 396 -301 413 -301 l 349 -301 z "},"T":{"ha":801,"x_min":35,"x_max":765,"o":"m 367 0 q 344 9 353 0 q 335 32 335 18 l 335 853 l 67 853 q 44 862 53 853 q 35 885 35 871 l 35 939 q 44 963 35 954 q 67 972 53 972 l 733 972 q 757 963 749 972 q 765 939 765 954 l 765 885 q 756 862 765 871 q 733 853 747 853 l 467 853 l 467 32 q 457 9 467 18 q 433 0 447 0 l 367 0 z "},"Ŧ":{"ha":814,"x_min":42,"x_max":772,"o":"m 374 0 q 351 9 360 0 q 342 32 342 18 l 342 465 l 183 465 q 161 474 169 465 q 153 497 153 483 l 153 531 q 161 555 153 546 q 183 564 169 564 l 342 564 l 342 853 l 74 853 q 51 862 60 853 q 42 885 42 871 l 42 939 q 51 963 42 954 q 74 972 60 972 l 739 972 q 763 963 754 972 q 772 939 772 954 l 772 885 q 763 862 772 871 q 739 853 754 853 l 474 853 l 474 564 l 629 564 q 653 555 644 564 q 663 531 663 546 l 663 497 q 653 474 663 483 q 629 465 644 465 l 474 465 l 474 32 q 464 9 474 18 q 440 0 454 0 l 374 0 z "},"Ť":{"ha":801,"x_min":35,"x_max":765,"o":"m 367 0 q 344 9 353 0 q 335 32 335 18 l 335 853 l 67 853 q 44 862 53 853 q 35 885 35 871 l 35 939 q 44 963 35 954 q 67 972 53 972 l 733 972 q 757 963 749 972 q 765 939 765 954 l 765 885 q 756 862 765 871 q 733 853 747 853 l 467 853 l 467 32 q 457 9 467 18 q 433 0 447 0 l 367 0 m 381 1042 q 358 1045 367 1042 q 335 1063 349 1049 l 208 1189 q 193 1215 193 1203 q 213 1232 193 1232 l 249 1232 q 288 1222 271 1232 l 401 1143 l 515 1222 q 553 1232 529 1232 l 589 1232 q 608 1215 608 1232 q 594 1189 608 1203 l 467 1063 q 444 1045 454 1049 q 422 1042 435 1042 l 381 1042 z "},"Ț":{"ha":801,"x_min":35,"x_max":765,"o":"m 367 0 q 344 9 353 0 q 335 32 335 18 l 335 853 l 67 853 q 44 862 53 853 q 35 885 35 871 l 35 939 q 44 963 35 954 q 67 972 53 972 l 733 972 q 757 963 749 972 q 765 939 765 954 l 765 885 q 756 862 765 871 q 733 853 747 853 l 467 853 l 467 32 q 457 9 467 18 q 433 0 447 0 l 367 0 m 317 -301 q 299 -293 306 -301 q 296 -272 293 -285 l 319 -110 q 358 -69 325 -69 l 446 -69 q 462 -76 456 -69 q 468 -93 468 -83 q 464 -115 468 -103 l 404 -269 q 389 -294 397 -286 q 364 -301 381 -301 l 317 -301 z "},"U":{"ha":972,"x_min":114,"x_max":860,"o":"m 488 -14 q 211 83 308 -14 q 114 375 114 179 l 114 939 q 122 963 114 954 q 144 972 131 972 l 211 972 q 235 963 226 972 q 244 939 244 954 l 244 372 q 308 169 244 236 q 488 103 371 103 q 666 170 603 103 q 729 372 729 238 l 729 939 q 738 963 729 954 q 761 972 746 972 l 828 972 q 851 963 842 972 q 860 939 860 954 l 860 375 q 763 83 860 179 q 488 -14 667 -14 z "},"Ú":{"ha":972,"x_min":114,"x_max":860,"o":"m 488 -14 q 211 83 308 -14 q 114 375 114 179 l 114 939 q 122 963 114 954 q 144 972 131 972 l 211 972 q 235 963 226 972 q 244 939 244 954 l 244 372 q 308 169 244 236 q 488 103 371 103 q 666 170 603 103 q 729 372 729 238 l 729 939 q 738 963 729 954 q 761 972 746 972 l 828 972 q 851 963 842 972 q 860 939 860 954 l 860 375 q 763 83 860 179 q 488 -14 667 -14 m 453 1042 q 431 1064 431 1042 q 438 1082 431 1075 l 540 1207 q 564 1227 554 1222 q 592 1232 574 1232 l 690 1232 q 717 1206 717 1232 q 710 1189 717 1196 l 550 1057 q 529 1044 539 1047 q 504 1042 519 1042 l 453 1042 z "},"Ŭ":{"ha":972,"x_min":114,"x_max":860,"o":"m 488 -14 q 211 83 308 -14 q 114 375 114 179 l 114 939 q 122 963 114 954 q 144 972 131 972 l 211 972 q 235 963 226 972 q 244 939 244 954 l 244 372 q 308 169 244 236 q 488 103 371 103 q 666 170 603 103 q 729 372 729 238 l 729 939 q 738 963 729 954 q 761 972 746 972 l 828 972 q 851 963 842 972 q 860 939 860 954 l 860 375 q 763 83 860 179 q 488 -14 667 -14 m 488 1029 q 354 1077 394 1029 q 314 1200 314 1125 q 321 1219 314 1211 q 340 1226 328 1226 l 381 1226 q 400 1219 393 1226 q 407 1200 407 1211 q 425 1135 407 1161 q 488 1110 443 1110 q 550 1135 532 1110 q 568 1200 568 1161 q 575 1219 568 1211 q 594 1226 582 1226 l 635 1226 q 654 1219 647 1226 q 661 1200 661 1211 q 621 1077 661 1125 q 488 1029 581 1029 z "},"Û":{"ha":972,"x_min":114,"x_max":860,"o":"m 488 -14 q 211 83 308 -14 q 114 375 114 179 l 114 939 q 122 963 114 954 q 144 972 131 972 l 211 972 q 235 963 226 972 q 244 939 244 954 l 244 372 q 308 169 244 236 q 488 103 371 103 q 666 170 603 103 q 729 372 729 238 l 729 939 q 738 963 729 954 q 761 972 746 972 l 828 972 q 851 963 842 972 q 860 939 860 954 l 860 375 q 763 83 860 179 q 488 -14 667 -14 m 299 1042 q 279 1058 279 1042 q 294 1085 279 1071 l 421 1211 q 444 1228 435 1225 q 467 1232 453 1232 l 508 1232 q 531 1228 521 1232 q 553 1211 540 1225 l 681 1085 q 694 1058 694 1071 q 675 1042 694 1042 l 639 1042 q 601 1051 615 1042 l 488 1131 l 374 1051 q 335 1042 357 1042 l 299 1042 z "},"Ü":{"ha":972,"x_min":114,"x_max":860,"o":"m 488 -14 q 211 83 308 -14 q 114 375 114 179 l 114 939 q 122 963 114 954 q 144 972 131 972 l 211 972 q 235 963 226 972 q 244 939 244 954 l 244 372 q 308 169 244 236 q 488 103 371 103 q 666 170 603 103 q 729 372 729 238 l 729 939 q 738 963 729 954 q 761 972 746 972 l 828 972 q 851 963 842 972 q 860 939 860 954 l 860 375 q 763 83 860 179 q 488 -14 667 -14 m 314 1042 q 292 1050 300 1042 q 283 1072 283 1058 l 283 1146 q 292 1169 283 1160 q 314 1178 300 1178 l 386 1178 q 409 1169 400 1178 q 418 1146 418 1160 l 418 1072 q 409 1050 418 1058 q 386 1042 400 1042 l 314 1042 m 588 1042 q 565 1050 574 1042 q 557 1072 557 1058 l 557 1146 q 565 1169 557 1160 q 588 1178 574 1178 l 661 1178 q 684 1169 675 1178 q 693 1146 693 1160 l 693 1072 q 684 1050 693 1058 q 661 1042 675 1042 l 588 1042 z "},"Ù":{"ha":972,"x_min":114,"x_max":860,"o":"m 488 -14 q 211 83 308 -14 q 114 375 114 179 l 114 939 q 122 963 114 954 q 144 972 131 972 l 211 972 q 235 963 226 972 q 244 939 244 954 l 244 372 q 308 169 244 236 q 488 103 371 103 q 666 170 603 103 q 729 372 729 238 l 729 939 q 738 963 729 954 q 761 972 746 972 l 828 972 q 851 963 842 972 q 860 939 860 954 l 860 375 q 763 83 860 179 q 488 -14 667 -14 m 482 1042 q 457 1044 467 1042 q 436 1057 447 1047 l 276 1189 q 269 1206 269 1196 q 296 1232 269 1232 l 394 1232 q 422 1227 413 1232 q 446 1207 432 1222 l 549 1082 q 556 1064 556 1075 q 533 1042 556 1042 l 482 1042 z "},"Ű":{"ha":972,"x_min":114,"x_max":860,"o":"m 488 -14 q 211 83 308 -14 q 114 375 114 179 l 114 939 q 122 963 114 954 q 144 972 131 972 l 211 972 q 235 963 226 972 q 244 939 244 954 l 244 372 q 308 169 244 236 q 488 103 371 103 q 666 170 603 103 q 729 372 729 238 l 729 939 q 738 963 729 954 q 761 972 746 972 l 828 972 q 851 963 842 972 q 860 939 860 954 l 860 375 q 763 83 860 179 q 488 -14 667 -14 m 347 1042 q 325 1064 325 1042 q 332 1085 325 1071 l 386 1206 q 405 1226 393 1219 q 438 1232 417 1232 l 519 1232 q 540 1225 532 1232 q 547 1206 547 1218 q 539 1188 547 1196 l 431 1061 q 388 1042 414 1042 l 347 1042 m 575 1042 q 553 1064 553 1042 q 560 1085 553 1071 l 614 1206 q 633 1226 621 1219 q 665 1232 644 1232 l 747 1232 q 767 1225 760 1232 q 775 1206 775 1218 q 767 1188 775 1196 l 658 1061 q 617 1042 642 1042 l 575 1042 z "},"Ū":{"ha":972,"x_min":114,"x_max":860,"o":"m 488 -14 q 211 83 308 -14 q 114 375 114 179 l 114 939 q 122 963 114 954 q 144 972 131 972 l 211 972 q 235 963 226 972 q 244 939 244 954 l 244 372 q 308 169 244 236 q 488 103 371 103 q 666 170 603 103 q 729 372 729 238 l 729 939 q 738 963 729 954 q 761 972 746 972 l 828 972 q 851 963 842 972 q 860 939 860 954 l 860 375 q 763 83 860 179 q 488 -14 667 -14 m 328 1042 q 306 1050 314 1042 q 297 1072 297 1058 l 297 1122 q 306 1144 297 1136 q 328 1153 314 1153 l 646 1153 q 668 1144 660 1153 q 676 1122 676 1136 l 676 1072 q 668 1050 676 1058 q 646 1042 660 1042 l 328 1042 z "},"Ų":{"ha":972,"x_min":114,"x_max":860,"o":"m 579 -306 q 438 -251 489 -306 q 386 -107 386 -197 q 406 -8 386 -44 q 190 106 265 11 q 114 375 114 201 l 114 939 q 122 963 114 954 q 144 972 131 972 l 211 972 q 235 963 226 972 q 244 939 244 954 l 244 372 q 308 169 244 236 q 488 103 371 103 q 666 170 603 103 q 729 372 729 238 l 729 939 q 738 963 729 954 q 761 972 746 972 l 828 972 q 851 963 842 972 q 860 939 860 954 l 860 375 q 788 111 860 206 q 581 -7 715 17 q 509 -40 533 -17 q 485 -107 485 -62 q 513 -183 485 -154 q 585 -211 540 -211 l 604 -211 q 627 -220 618 -211 q 636 -243 636 -229 l 636 -274 q 628 -297 636 -289 q 604 -306 619 -306 l 579 -306 z "},"Ů":{"ha":972,"x_min":114,"x_max":860,"o":"m 488 -14 q 211 83 308 -14 q 114 375 114 179 l 114 939 q 122 963 114 954 q 144 972 131 972 l 211 972 q 235 963 226 972 q 244 939 244 954 l 244 372 q 308 169 244 236 q 488 103 371 103 q 666 170 603 103 q 729 372 729 238 l 729 939 q 738 963 729 954 q 761 972 746 972 l 828 972 q 851 963 842 972 q 860 939 860 954 l 860 375 q 763 83 860 179 q 488 -14 667 -14 m 488 1028 q 406 1059 439 1028 q 372 1136 372 1090 q 406 1215 372 1183 q 488 1246 439 1246 q 569 1215 536 1246 q 603 1136 603 1183 q 569 1059 603 1090 q 488 1028 536 1028 m 488 1094 q 517 1106 506 1094 q 529 1136 529 1118 q 517 1166 529 1154 q 488 1178 506 1178 q 458 1166 469 1178 q 446 1136 446 1154 q 458 1106 446 1118 q 488 1094 469 1094 z "},"Ũ":{"ha":972,"x_min":114,"x_max":860,"o":"m 488 -14 q 211 83 308 -14 q 114 375 114 179 l 114 939 q 122 963 114 954 q 144 972 131 972 l 211 972 q 235 963 226 972 q 244 939 244 954 l 244 372 q 308 169 244 236 q 488 103 371 103 q 666 170 603 103 q 729 372 729 238 l 729 939 q 738 963 729 954 q 761 972 746 972 l 828 972 q 851 963 842 972 q 860 939 860 954 l 860 375 q 763 83 860 179 q 488 -14 667 -14 m 560 1035 q 517 1042 535 1035 q 472 1063 499 1049 q 446 1076 460 1069 q 419 1082 432 1082 q 401 1076 408 1082 q 388 1061 394 1071 q 361 1042 376 1042 l 318 1042 q 302 1049 308 1042 q 296 1064 296 1056 q 328 1151 296 1110 q 413 1192 361 1192 q 457 1184 438 1192 q 500 1163 476 1176 q 526 1149 513 1156 q 553 1143 540 1143 q 572 1149 565 1143 q 585 1165 578 1154 q 597 1181 592 1176 q 613 1185 603 1185 l 656 1185 q 672 1178 665 1185 q 678 1163 678 1171 q 663 1105 678 1135 q 620 1055 647 1075 q 560 1035 593 1035 z "},"V":{"ha":907,"x_min":46,"x_max":860,"o":"m 411 0 q 361 36 375 0 l 49 929 l 46 944 q 55 964 46 956 q 75 972 64 972 l 142 972 q 166 965 157 972 q 178 947 175 957 l 453 153 l 729 947 q 741 965 732 957 q 765 972 750 972 l 832 972 q 851 964 843 972 q 860 944 860 956 q 858 929 860 935 l 546 36 q 496 0 532 0 l 411 0 z "},"W":{"ha":1110,"x_min":61,"x_max":1049,"o":"m 286 0 q 243 36 251 0 l 64 929 l 61 944 q 69 964 61 956 q 89 972 78 972 l 157 972 q 190 949 186 972 l 333 224 l 488 724 q 531 757 496 757 l 579 757 q 624 724 613 757 l 776 224 l 919 949 q 954 972 924 972 l 1021 972 q 1040 964 1032 972 q 1049 944 1049 956 q 1047 929 1049 936 l 867 36 q 824 0 860 0 l 774 0 q 728 35 739 0 l 556 569 l 382 35 q 338 0 372 0 l 286 0 z "},"Ẃ":{"ha":1110,"x_min":61,"x_max":1049,"o":"m 286 0 q 243 36 251 0 l 64 929 l 61 944 q 69 964 61 956 q 89 972 78 972 l 157 972 q 190 949 186 972 l 333 224 l 488 724 q 531 757 496 757 l 579 757 q 624 724 613 757 l 776 224 l 919 949 q 954 972 924 972 l 1021 972 q 1040 964 1032 972 q 1049 944 1049 956 q 1047 929 1049 936 l 867 36 q 824 0 860 0 l 774 0 q 728 35 739 0 l 556 569 l 382 35 q 338 0 372 0 l 286 0 m 521 1042 q 499 1064 499 1042 q 506 1082 499 1075 l 608 1207 q 632 1227 622 1222 q 660 1232 642 1232 l 758 1232 q 785 1206 785 1232 q 778 1189 785 1196 l 618 1057 q 597 1044 607 1047 q 572 1042 588 1042 l 521 1042 z "},"Ŵ":{"ha":1110,"x_min":61,"x_max":1049,"o":"m 286 0 q 243 36 251 0 l 64 929 l 61 944 q 69 964 61 956 q 89 972 78 972 l 157 972 q 190 949 186 972 l 333 224 l 488 724 q 531 757 496 757 l 579 757 q 624 724 613 757 l 776 224 l 919 949 q 954 972 924 972 l 1021 972 q 1040 964 1032 972 q 1049 944 1049 956 q 1047 929 1049 936 l 867 36 q 824 0 860 0 l 774 0 q 728 35 739 0 l 556 569 l 382 35 q 338 0 372 0 l 286 0 m 367 1042 q 347 1058 347 1042 q 363 1085 347 1071 l 489 1211 q 512 1228 503 1225 q 535 1232 521 1232 l 576 1232 q 599 1228 589 1232 q 621 1211 608 1225 l 749 1085 q 763 1058 763 1071 q 743 1042 763 1042 l 707 1042 q 669 1051 683 1042 l 556 1131 l 442 1051 q 403 1042 425 1042 l 367 1042 z "},"Ẅ":{"ha":1110,"x_min":61,"x_max":1049,"o":"m 286 0 q 243 36 251 0 l 64 929 l 61 944 q 69 964 61 956 q 89 972 78 972 l 157 972 q 190 949 186 972 l 333 224 l 488 724 q 531 757 496 757 l 579 757 q 624 724 613 757 l 776 224 l 919 949 q 954 972 924 972 l 1021 972 q 1040 964 1032 972 q 1049 944 1049 956 q 1047 929 1049 936 l 867 36 q 824 0 860 0 l 774 0 q 728 35 739 0 l 556 569 l 382 35 q 338 0 372 0 l 286 0 m 382 1042 q 360 1050 368 1042 q 351 1072 351 1058 l 351 1146 q 360 1169 351 1160 q 382 1178 368 1178 l 454 1178 q 477 1169 468 1178 q 486 1146 486 1160 l 486 1072 q 477 1050 486 1058 q 454 1042 468 1042 l 382 1042 m 656 1042 q 633 1050 642 1042 q 625 1072 625 1058 l 625 1146 q 633 1169 625 1160 q 656 1178 642 1178 l 729 1178 q 752 1169 743 1178 q 761 1146 761 1160 l 761 1072 q 752 1050 761 1058 q 729 1042 743 1042 l 656 1042 z "},"Ẁ":{"ha":1110,"x_min":61,"x_max":1049,"o":"m 286 0 q 243 36 251 0 l 64 929 l 61 944 q 69 964 61 956 q 89 972 78 972 l 157 972 q 190 949 186 972 l 333 224 l 488 724 q 531 757 496 757 l 579 757 q 624 724 613 757 l 776 224 l 919 949 q 954 972 924 972 l 1021 972 q 1040 964 1032 972 q 1049 944 1049 956 q 1047 929 1049 936 l 867 36 q 824 0 860 0 l 774 0 q 728 35 739 0 l 556 569 l 382 35 q 338 0 372 0 l 286 0 m 550 1042 q 525 1044 535 1042 q 504 1057 515 1047 l 344 1189 q 338 1206 338 1196 q 364 1232 338 1232 l 463 1232 q 490 1227 481 1232 q 514 1207 500 1222 l 617 1082 q 624 1064 624 1075 q 601 1042 624 1042 l 550 1042 z "},"X":{"ha":876,"x_min":35,"x_max":843,"o":"m 63 0 q 43 8 51 0 q 35 28 35 17 q 40 46 35 38 l 358 494 l 56 926 q 50 944 50 935 q 58 964 50 956 q 78 972 67 972 l 157 972 q 193 949 176 972 l 442 597 l 688 949 q 724 972 701 972 l 797 972 q 817 964 808 972 q 825 944 825 956 q 819 926 825 935 l 519 493 l 838 46 q 843 28 843 38 q 834 8 843 17 q 814 0 825 0 l 735 0 q 699 22 714 0 l 436 389 l 175 22 q 139 0 160 0 l 63 0 z "},"Y":{"ha":896,"x_min":43,"x_max":854,"o":"m 414 0 q 391 9 400 0 q 382 32 382 18 l 382 361 l 47 926 q 43 944 43 935 q 51 964 43 956 q 71 972 60 972 l 138 972 q 174 949 163 972 l 449 494 l 722 949 q 758 972 736 972 l 825 972 q 845 964 836 972 q 854 944 854 956 q 849 926 854 938 l 514 361 l 514 32 q 505 9 514 18 q 481 0 496 0 l 414 0 z "},"Ý":{"ha":896,"x_min":43,"x_max":854,"o":"m 414 0 q 391 9 400 0 q 382 32 382 18 l 382 361 l 47 926 q 43 944 43 935 q 51 964 43 956 q 71 972 60 972 l 138 972 q 174 949 163 972 l 449 494 l 722 949 q 758 972 736 972 l 825 972 q 845 964 836 972 q 854 944 854 956 q 849 926 854 938 l 514 361 l 514 32 q 505 9 514 18 q 481 0 496 0 l 414 0 m 414 1042 q 392 1064 392 1042 q 399 1082 392 1075 l 501 1207 q 525 1227 515 1222 q 553 1232 535 1232 l 651 1232 q 678 1206 678 1232 q 671 1189 678 1196 l 511 1057 q 490 1044 500 1047 q 465 1042 481 1042 l 414 1042 z "},"Ŷ":{"ha":896,"x_min":43,"x_max":854,"o":"m 414 0 q 391 9 400 0 q 382 32 382 18 l 382 361 l 47 926 q 43 944 43 935 q 51 964 43 956 q 71 972 60 972 l 138 972 q 174 949 163 972 l 449 494 l 722 949 q 758 972 736 972 l 825 972 q 845 964 836 972 q 854 944 854 956 q 849 926 854 938 l 514 361 l 514 32 q 505 9 514 18 q 481 0 496 0 l 414 0 m 260 1042 q 240 1058 240 1042 q 256 1085 240 1071 l 382 1211 q 405 1228 396 1225 q 428 1232 414 1232 l 469 1232 q 492 1228 482 1232 q 514 1211 501 1225 l 642 1085 q 656 1058 656 1071 q 636 1042 656 1042 l 600 1042 q 563 1051 576 1042 l 449 1131 l 335 1051 q 296 1042 318 1042 l 260 1042 z "},"Ÿ":{"ha":896,"x_min":43,"x_max":854,"o":"m 414 0 q 391 9 400 0 q 382 32 382 18 l 382 361 l 47 926 q 43 944 43 935 q 51 964 43 956 q 71 972 60 972 l 138 972 q 174 949 163 972 l 449 494 l 722 949 q 758 972 736 972 l 825 972 q 845 964 836 972 q 854 944 854 956 q 849 926 854 938 l 514 361 l 514 32 q 505 9 514 18 q 481 0 496 0 l 414 0 m 275 1042 q 253 1050 261 1042 q 244 1072 244 1058 l 244 1146 q 253 1169 244 1160 q 275 1178 261 1178 l 347 1178 q 370 1169 361 1178 q 379 1146 379 1160 l 379 1072 q 370 1050 379 1058 q 347 1042 361 1042 l 275 1042 m 549 1042 q 526 1050 535 1042 q 518 1072 518 1058 l 518 1146 q 526 1169 518 1160 q 549 1178 535 1178 l 622 1178 q 645 1169 636 1178 q 654 1146 654 1160 l 654 1072 q 645 1050 654 1058 q 622 1042 636 1042 l 549 1042 z "},"Ỳ":{"ha":896,"x_min":43,"x_max":854,"o":"m 414 0 q 391 9 400 0 q 382 32 382 18 l 382 361 l 47 926 q 43 944 43 935 q 51 964 43 956 q 71 972 60 972 l 138 972 q 174 949 163 972 l 449 494 l 722 949 q 758 972 736 972 l 825 972 q 845 964 836 972 q 854 944 854 956 q 849 926 854 938 l 514 361 l 514 32 q 505 9 514 18 q 481 0 496 0 l 414 0 m 443 1042 q 418 1044 428 1042 q 397 1057 408 1047 l 238 1189 q 231 1206 231 1196 q 257 1232 231 1232 l 356 1232 q 383 1227 374 1232 q 407 1207 393 1222 l 510 1082 q 517 1064 517 1075 q 494 1042 517 1042 l 443 1042 z "},"Z":{"ha":831,"x_min":57,"x_max":775,"o":"m 89 0 q 66 9 75 0 q 57 33 57 18 l 57 89 q 67 126 57 113 q 78 142 76 140 l 599 856 l 101 856 q 78 865 88 856 q 69 888 69 874 l 69 939 q 78 963 69 954 q 101 972 88 972 l 726 972 q 751 963 742 972 q 760 939 760 954 l 760 883 q 742 835 760 858 l 226 117 l 742 117 q 766 108 757 117 q 775 85 775 99 l 775 32 q 765 9 775 18 q 742 0 756 0 l 89 0 z "},"Ź":{"ha":831,"x_min":57,"x_max":775,"o":"m 89 0 q 66 9 75 0 q 57 33 57 18 l 57 89 q 67 126 57 113 q 78 142 76 140 l 599 856 l 101 856 q 78 865 88 856 q 69 888 69 874 l 69 939 q 78 963 69 954 q 101 972 88 972 l 726 972 q 751 963 742 972 q 760 939 760 954 l 760 883 q 742 835 760 858 l 226 117 l 742 117 q 766 108 757 117 q 775 85 775 99 l 775 32 q 765 9 775 18 q 742 0 756 0 l 89 0 m 368 1042 q 346 1064 346 1042 q 353 1082 346 1075 l 456 1207 q 479 1227 469 1222 q 507 1232 489 1232 l 606 1232 q 632 1206 632 1232 q 625 1189 632 1196 l 465 1057 q 444 1044 454 1047 q 419 1042 435 1042 l 368 1042 z "},"Ž":{"ha":831,"x_min":57,"x_max":775,"o":"m 89 0 q 66 9 75 0 q 57 33 57 18 l 57 89 q 67 126 57 113 q 78 142 76 140 l 599 856 l 101 856 q 78 865 88 856 q 69 888 69 874 l 69 939 q 78 963 69 954 q 101 972 88 972 l 726 972 q 751 963 742 972 q 760 939 760 954 l 760 883 q 742 835 760 858 l 226 117 l 742 117 q 766 108 757 117 q 775 85 775 99 l 775 32 q 765 9 775 18 q 742 0 756 0 l 89 0 m 382 1042 q 359 1045 368 1042 q 336 1063 350 1049 l 210 1189 q 194 1215 194 1203 q 214 1232 194 1232 l 250 1232 q 289 1222 272 1232 l 403 1143 l 517 1222 q 554 1232 531 1232 l 590 1232 q 610 1215 610 1232 q 596 1189 610 1203 l 468 1063 q 446 1045 456 1049 q 424 1042 436 1042 l 382 1042 z "},"Ż":{"ha":831,"x_min":57,"x_max":775,"o":"m 89 0 q 66 9 75 0 q 57 33 57 18 l 57 89 q 67 126 57 113 q 78 142 76 140 l 599 856 l 101 856 q 78 865 88 856 q 69 888 69 874 l 69 939 q 78 963 69 954 q 101 972 88 972 l 726 972 q 751 963 742 972 q 760 939 760 954 l 760 883 q 742 835 760 858 l 226 117 l 742 117 q 766 108 757 117 q 775 85 775 99 l 775 32 q 765 9 775 18 q 742 0 756 0 l 89 0 m 358 1042 q 336 1050 344 1042 q 328 1072 328 1058 l 328 1160 q 336 1183 328 1174 q 358 1192 344 1192 l 446 1192 q 469 1183 460 1192 q 478 1160 478 1174 l 478 1072 q 469 1050 478 1058 q 446 1042 460 1042 l 358 1042 z "},"a":{"ha":764,"x_min":53,"x_max":667,"o":"m 304 -14 q 178 14 236 -14 q 87 90 121 42 q 53 196 53 138 q 128 346 53 288 q 332 424 203 404 l 540 453 l 540 493 q 375 636 540 636 q 272 610 311 636 q 215 550 233 585 q 203 531 210 536 q 186 526 197 526 l 132 526 q 110 535 119 526 q 101 557 101 544 q 131 631 101 589 q 224 705 161 674 q 376 736 286 736 q 599 664 532 736 q 667 483 667 592 l 667 32 q 658 9 667 18 q 635 0 649 0 l 574 0 q 551 9 560 0 q 543 32 543 18 l 543 93 q 454 17 513 47 q 304 -14 396 -14 m 332 88 q 482 147 424 88 q 540 321 540 207 l 540 360 l 378 336 q 226 289 278 322 q 175 206 175 256 q 222 118 175 149 q 332 88 268 88 z "},"á":{"ha":764,"x_min":53,"x_max":667,"o":"m 304 -14 q 178 14 236 -14 q 87 90 121 42 q 53 196 53 138 q 128 346 53 288 q 332 424 203 404 l 540 453 l 540 493 q 375 636 540 636 q 272 610 311 636 q 215 550 233 585 q 203 531 210 536 q 186 526 197 526 l 132 526 q 110 535 119 526 q 101 557 101 544 q 131 631 101 589 q 224 705 161 674 q 376 736 286 736 q 599 664 532 736 q 667 483 667 592 l 667 32 q 658 9 667 18 q 635 0 649 0 l 574 0 q 551 9 560 0 q 543 32 543 18 l 543 93 q 454 17 513 47 q 304 -14 396 -14 m 332 88 q 482 147 424 88 q 540 321 540 207 l 540 360 l 378 336 q 226 289 278 322 q 175 206 175 256 q 222 118 175 149 q 332 88 268 88 m 319 826 q 297 849 297 826 q 304 867 297 860 l 407 992 q 431 1012 421 1007 q 458 1017 440 1017 l 549 1017 q 575 990 575 1017 q 568 974 575 981 l 408 842 q 388 829 397 832 q 363 826 378 826 l 319 826 z "},"ă":{"ha":764,"x_min":53,"x_max":667,"o":"m 304 -14 q 178 14 236 -14 q 87 90 121 42 q 53 196 53 138 q 128 346 53 288 q 332 424 203 404 l 540 453 l 540 493 q 375 636 540 636 q 272 610 311 636 q 215 550 233 585 q 203 531 210 536 q 186 526 197 526 l 132 526 q 110 535 119 526 q 101 557 101 544 q 131 631 101 589 q 224 705 161 674 q 376 736 286 736 q 599 664 532 736 q 667 483 667 592 l 667 32 q 658 9 667 18 q 635 0 649 0 l 574 0 q 551 9 560 0 q 543 32 543 18 l 543 93 q 454 17 513 47 q 304 -14 396 -14 m 332 88 q 482 147 424 88 q 540 321 540 207 l 540 360 l 378 336 q 226 289 278 322 q 175 206 175 256 q 222 118 175 149 q 332 88 268 88 m 374 819 q 247 868 286 819 q 207 990 207 917 q 214 1009 207 1001 q 233 1017 221 1017 l 272 1017 q 292 1009 285 1017 q 299 990 299 1001 q 374 901 299 901 q 449 990 449 901 q 456 1009 449 1001 q 475 1017 463 1017 l 515 1017 q 535 1009 528 1017 q 542 990 542 1001 q 502 868 542 917 q 374 819 463 819 z "},"â":{"ha":764,"x_min":53,"x_max":667,"o":"m 304 -14 q 178 14 236 -14 q 87 90 121 42 q 53 196 53 138 q 128 346 53 288 q 332 424 203 404 l 540 453 l 540 493 q 375 636 540 636 q 272 610 311 636 q 215 550 233 585 q 203 531 210 536 q 186 526 197 526 l 132 526 q 110 535 119 526 q 101 557 101 544 q 131 631 101 589 q 224 705 161 674 q 376 736 286 736 q 599 664 532 736 q 667 483 667 592 l 667 32 q 658 9 667 18 q 635 0 649 0 l 574 0 q 551 9 560 0 q 543 32 543 18 l 543 93 q 454 17 513 47 q 304 -14 396 -14 m 332 88 q 482 147 424 88 q 540 321 540 207 l 540 360 l 378 336 q 226 289 278 322 q 175 206 175 256 q 222 118 175 149 q 332 88 268 88 m 186 826 q 167 843 167 826 q 182 869 167 856 l 308 996 q 331 1013 322 1010 q 354 1017 340 1017 l 393 1017 q 416 1013 407 1017 q 439 996 425 1010 l 565 869 q 581 843 581 854 q 560 826 581 826 l 525 826 q 488 836 501 826 l 374 915 l 260 836 q 221 826 243 826 l 186 826 z "},"ä":{"ha":764,"x_min":53,"x_max":667,"o":"m 304 -14 q 178 14 236 -14 q 87 90 121 42 q 53 196 53 138 q 128 346 53 288 q 332 424 203 404 l 540 453 l 540 493 q 375 636 540 636 q 272 610 311 636 q 215 550 233 585 q 203 531 210 536 q 186 526 197 526 l 132 526 q 110 535 119 526 q 101 557 101 544 q 131 631 101 589 q 224 705 161 674 q 376 736 286 736 q 599 664 532 736 q 667 483 667 592 l 667 32 q 658 9 667 18 q 635 0 649 0 l 574 0 q 551 9 560 0 q 543 32 543 18 l 543 93 q 454 17 513 47 q 304 -14 396 -14 m 332 88 q 482 147 424 88 q 540 321 540 207 l 540 360 l 378 336 q 226 289 278 322 q 175 206 175 256 q 222 118 175 149 q 332 88 268 88 m 225 864 q 203 872 211 864 q 194 894 194 881 l 194 967 q 203 990 194 981 q 225 999 211 999 l 297 999 q 320 990 311 999 q 329 967 329 981 l 329 894 q 320 872 329 881 q 297 864 311 864 l 225 864 m 457 864 q 435 872 443 864 q 426 894 426 881 l 426 967 q 435 990 426 981 q 457 999 443 999 l 531 999 q 553 990 544 999 q 563 967 563 981 l 563 894 q 553 872 563 881 q 531 864 544 864 l 457 864 z "},"à":{"ha":764,"x_min":53,"x_max":667,"o":"m 304 -14 q 178 14 236 -14 q 87 90 121 42 q 53 196 53 138 q 128 346 53 288 q 332 424 203 404 l 540 453 l 540 493 q 375 636 540 636 q 272 610 311 636 q 215 550 233 585 q 203 531 210 536 q 186 526 197 526 l 132 526 q 110 535 119 526 q 101 557 101 544 q 131 631 101 589 q 224 705 161 674 q 376 736 286 736 q 599 664 532 736 q 667 483 667 592 l 667 32 q 658 9 667 18 q 635 0 649 0 l 574 0 q 551 9 560 0 q 543 32 543 18 l 543 93 q 454 17 513 47 q 304 -14 396 -14 m 332 88 q 482 147 424 88 q 540 321 540 207 l 540 360 l 378 336 q 226 289 278 322 q 175 206 175 256 q 222 118 175 149 q 332 88 268 88 m 375 826 q 351 829 360 826 q 331 842 342 832 l 169 974 q 163 990 163 981 q 189 1017 163 1017 l 279 1017 q 308 1012 299 1017 q 331 992 318 1007 l 435 867 q 442 849 442 860 q 419 826 442 826 l 375 826 z "},"ā":{"ha":764,"x_min":53,"x_max":667,"o":"m 304 -14 q 178 14 236 -14 q 87 90 121 42 q 53 196 53 138 q 128 346 53 288 q 332 424 203 404 l 540 453 l 540 493 q 375 636 540 636 q 272 610 311 636 q 215 550 233 585 q 203 531 210 536 q 186 526 197 526 l 132 526 q 110 535 119 526 q 101 557 101 544 q 131 631 101 589 q 224 705 161 674 q 376 736 286 736 q 599 664 532 736 q 667 483 667 592 l 667 32 q 658 9 667 18 q 635 0 649 0 l 574 0 q 551 9 560 0 q 543 32 543 18 l 543 93 q 454 17 513 47 q 304 -14 396 -14 m 332 88 q 482 147 424 88 q 540 321 540 207 l 540 360 l 378 336 q 226 289 278 322 q 175 206 175 256 q 222 118 175 149 q 332 88 268 88 m 221 858 q 199 867 207 858 q 190 889 190 875 l 190 929 q 199 951 190 943 q 221 960 207 960 l 526 960 q 549 951 540 960 q 557 929 557 943 l 557 889 q 549 867 557 875 q 526 858 540 858 l 221 858 z "},"ą":{"ha":764,"x_min":53,"x_max":667,"o":"m 621 -306 q 499 -255 546 -306 q 451 -115 451 -204 q 481 -20 451 -61 q 547 40 510 21 q 543 50 543 44 l 543 93 q 454 17 513 47 q 304 -14 396 -14 q 178 14 236 -14 q 87 90 121 42 q 53 196 53 138 q 128 346 53 288 q 332 424 203 404 l 540 453 l 540 493 q 375 636 540 636 q 272 610 311 636 q 215 550 233 585 q 203 531 210 536 q 186 526 197 526 l 132 526 q 110 535 119 526 q 101 557 101 544 q 131 631 101 589 q 224 705 161 674 q 376 736 286 736 q 599 664 532 736 q 667 483 667 592 l 667 32 q 643 1 667 13 l 638 0 q 571 -46 592 -18 q 550 -115 550 -74 q 569 -187 550 -162 q 626 -211 589 -211 l 635 -211 q 658 -220 649 -211 q 667 -243 667 -229 l 667 -274 q 658 -297 667 -287 q 635 -306 649 -306 l 621 -306 m 332 88 q 482 147 424 88 q 540 321 540 207 l 540 360 l 378 336 q 226 289 278 322 q 175 206 175 256 q 222 118 175 149 q 332 88 268 88 z "},"å":{"ha":764,"x_min":53,"x_max":667,"o":"m 304 -14 q 178 14 236 -14 q 87 90 121 42 q 53 196 53 138 q 128 346 53 288 q 332 424 203 404 l 540 453 l 540 493 q 375 636 540 636 q 272 610 311 636 q 215 550 233 585 q 203 531 210 536 q 186 526 197 526 l 132 526 q 110 535 119 526 q 101 557 101 544 q 131 631 101 589 q 224 705 161 674 q 376 736 286 736 q 599 664 532 736 q 667 483 667 592 l 667 32 q 658 9 667 18 q 635 0 649 0 l 574 0 q 551 9 560 0 q 543 32 543 18 l 543 93 q 454 17 513 47 q 304 -14 396 -14 m 332 88 q 482 147 424 88 q 540 321 540 207 l 540 360 l 378 336 q 226 289 278 322 q 175 206 175 256 q 222 118 175 149 q 332 88 268 88 m 372 819 q 290 851 324 819 q 257 928 257 882 q 290 1006 257 975 q 372 1038 324 1038 q 454 1006 421 1038 q 488 928 488 975 q 454 851 488 882 q 372 819 421 819 m 372 886 q 402 898 390 886 q 414 928 414 910 q 402 958 414 946 q 372 969 390 969 q 342 958 354 969 q 331 928 331 946 q 342 898 331 910 q 372 886 354 886 z "},"ã":{"ha":764,"x_min":53,"x_max":667,"o":"m 304 -14 q 178 14 236 -14 q 87 90 121 42 q 53 196 53 138 q 128 346 53 288 q 332 424 203 404 l 540 453 l 540 493 q 375 636 540 636 q 272 610 311 636 q 215 550 233 585 q 203 531 210 536 q 186 526 197 526 l 132 526 q 110 535 119 526 q 101 557 101 544 q 131 631 101 589 q 224 705 161 674 q 376 736 286 736 q 599 664 532 736 q 667 483 667 592 l 667 32 q 658 9 667 18 q 635 0 649 0 l 574 0 q 551 9 560 0 q 543 32 543 18 l 543 93 q 454 17 513 47 q 304 -14 396 -14 m 332 88 q 482 147 424 88 q 540 321 540 207 l 540 360 l 378 336 q 226 289 278 322 q 175 206 175 256 q 222 118 175 149 q 332 88 268 88 m 444 819 q 403 826 419 819 q 363 847 386 833 q 338 860 350 854 q 313 867 325 867 q 294 861 301 867 q 281 846 288 856 q 254 826 269 826 l 211 826 q 195 833 201 826 q 189 849 189 840 q 220 932 189 894 q 303 969 251 969 q 344 963 328 969 q 385 942 361 956 q 403 931 388 940 q 435 922 418 922 q 453 928 447 922 q 467 944 460 933 q 479 960 474 956 q 494 964 485 964 l 536 964 q 553 957 547 964 q 560 942 560 950 q 528 858 560 896 q 444 819 496 819 z "},"æ":{"ha":1236,"x_min":54,"x_max":1171,"o":"m 311 -14 q 177 14 236 -14 q 86 90 118 42 q 54 196 54 138 q 130 349 54 289 q 333 426 206 408 l 542 456 l 542 493 q 376 636 542 636 q 273 610 313 636 q 215 550 233 585 q 203 531 210 536 q 186 526 197 526 l 132 526 q 110 535 119 526 q 101 557 101 544 q 132 631 101 589 q 225 705 163 674 q 378 736 288 736 q 532 706 472 736 q 619 626 592 676 q 857 736 704 736 q 1101 628 1032 736 q 1171 375 1171 519 l 1171 350 q 1162 327 1171 336 q 1139 318 1153 318 l 669 318 l 669 306 q 726 141 672 194 q 856 88 781 88 q 950 107 906 88 q 1022 167 994 126 q 1041 186 1033 182 q 1065 190 1049 190 l 1122 190 q 1143 183 1135 190 q 1151 163 1151 175 q 1116 92 1151 135 q 1014 18 1081 50 q 856 -14 947 -14 q 696 24 761 -14 q 593 128 631 61 q 311 -14 508 -14 m 1044 413 l 1044 418 q 997 576 1044 517 q 857 636 949 636 q 726 581 781 636 q 669 418 672 525 l 669 413 l 1044 413 m 333 88 q 483 147 425 88 q 542 321 542 207 l 542 360 l 379 336 q 228 289 279 322 q 176 206 176 256 q 223 118 176 149 q 333 88 269 88 z "},"ǽ":{"ha":1236,"x_min":54,"x_max":1171,"o":"m 582 826 q 560 849 560 826 q 567 867 560 860 l 669 992 q 693 1012 683 1007 q 721 1017 703 1017 l 811 1017 q 838 990 838 1017 q 831 974 838 981 l 671 842 q 650 829 660 832 q 625 826 640 826 l 582 826 m 311 -14 q 177 14 236 -14 q 86 90 118 42 q 54 196 54 138 q 130 349 54 289 q 333 426 206 408 l 542 456 l 542 493 q 376 636 542 636 q 273 610 313 636 q 215 550 233 585 q 203 531 210 536 q 186 526 197 526 l 132 526 q 110 535 119 526 q 101 557 101 544 q 132 631 101 589 q 225 705 163 674 q 378 736 288 736 q 532 706 472 736 q 619 626 592 676 q 857 736 704 736 q 1101 628 1032 736 q 1171 375 1171 519 l 1171 350 q 1162 327 1171 336 q 1139 318 1153 318 l 669 318 l 669 306 q 726 141 672 194 q 856 88 781 88 q 950 107 906 88 q 1022 167 994 126 q 1041 186 1033 182 q 1065 190 1049 190 l 1122 190 q 1143 183 1135 190 q 1151 163 1151 175 q 1116 92 1151 135 q 1014 18 1081 50 q 856 -14 947 -14 q 696 24 761 -14 q 593 128 631 61 q 311 -14 508 -14 m 1044 413 l 1044 418 q 997 576 1044 517 q 857 636 949 636 q 726 581 781 636 q 669 418 672 525 l 669 413 l 1044 413 m 333 88 q 483 147 425 88 q 542 321 542 207 l 542 360 l 379 336 q 228 289 279 322 q 176 206 176 256 q 223 118 176 149 q 333 88 269 88 z "},"b":{"ha":825,"x_min":106,"x_max":754,"o":"m 457 -14 q 228 92 307 -14 l 228 32 q 219 9 228 18 q 196 0 210 0 l 138 0 q 115 9 124 0 q 106 32 106 18 l 106 954 q 115 978 106 969 q 138 986 124 986 l 200 986 q 223 977 214 986 q 232 954 232 968 l 232 633 q 457 736 310 736 q 676 641 603 736 q 753 403 749 546 q 754 361 754 388 q 753 319 754 335 q 676 81 749 176 q 457 -14 603 -14 m 431 94 q 576 157 531 94 q 626 321 622 219 q 628 361 628 335 q 431 628 628 628 q 285 566 336 628 q 232 419 235 504 q 231 365 231 404 q 232 313 231 328 q 284 159 235 224 q 431 94 333 94 z "},"c":{"ha":764,"x_min":72,"x_max":703,"o":"m 393 -14 q 161 70 244 -14 q 74 306 78 154 l 72 361 l 74 417 q 161 652 78 568 q 393 736 244 736 q 562 701 493 736 q 665 613 631 665 q 701 507 699 560 q 692 485 703 494 q 669 475 682 475 l 608 475 q 588 481 594 475 q 574 504 581 488 q 505 601 549 572 q 394 629 461 629 q 256 575 307 629 q 200 410 204 521 l 199 361 l 200 313 q 256 147 204 201 q 394 93 307 93 q 506 122 463 93 q 574 218 549 150 q 588 241 581 235 q 608 247 594 247 l 669 247 q 692 238 682 247 q 701 215 703 228 q 665 111 699 164 q 562 22 631 58 q 393 -14 493 -14 z "},"ć":{"ha":764,"x_min":72,"x_max":701,"o":"m 393 -14 q 161 70 244 -14 q 74 306 78 154 l 72 361 l 74 417 q 161 652 78 568 q 393 736 244 736 q 562 701 493 736 q 665 613 631 665 q 701 507 699 560 q 692 485 703 494 q 669 475 682 475 l 608 475 q 588 481 594 475 q 574 504 581 488 q 505 601 549 572 q 394 629 461 629 q 256 575 307 629 q 200 410 204 521 l 199 361 l 200 313 q 256 147 204 201 q 394 93 307 93 q 506 122 463 93 q 574 218 549 150 q 588 241 581 235 q 608 247 594 247 l 669 247 q 692 238 682 247 q 701 215 703 228 q 665 111 699 164 q 562 22 631 58 q 393 -14 493 -14 m 344 826 q 322 849 322 826 q 329 867 322 860 l 432 992 q 456 1012 446 1007 q 483 1017 465 1017 l 574 1017 q 600 990 600 1017 q 593 974 600 981 l 433 842 q 413 829 422 832 q 388 826 403 826 l 344 826 z "},"č":{"ha":764,"x_min":72,"x_max":701,"o":"m 393 -14 q 161 70 244 -14 q 74 306 78 154 l 72 361 l 74 417 q 161 652 78 568 q 393 736 244 736 q 562 701 493 736 q 665 613 631 665 q 701 507 699 560 q 692 485 703 494 q 669 475 682 475 l 608 475 q 588 481 594 475 q 574 504 581 488 q 505 601 549 572 q 394 629 461 629 q 256 575 307 629 q 200 410 204 521 l 199 361 l 200 313 q 256 147 204 201 q 394 93 307 93 q 506 122 463 93 q 574 218 549 150 q 588 241 581 235 q 608 247 594 247 l 669 247 q 692 238 682 247 q 701 215 703 228 q 665 111 699 164 q 562 22 631 58 q 393 -14 493 -14 m 368 826 q 345 830 354 826 q 322 847 336 833 l 196 974 q 181 1000 181 988 q 200 1017 181 1017 l 235 1017 q 274 1007 257 1017 l 388 928 l 501 1007 q 539 1017 515 1017 l 574 1017 q 594 1000 594 1017 q 579 974 594 989 l 453 847 q 430 830 439 833 q 407 826 421 826 l 368 826 z "},"ç":{"ha":764,"x_min":72,"x_max":703,"o":"m 393 -306 q 309 -285 346 -306 q 272 -246 272 -265 q 278 -235 272 -239 l 299 -215 q 311 -210 304 -210 q 331 -218 317 -210 q 357 -232 344 -226 q 390 -237 369 -237 q 431 -223 414 -237 q 447 -185 447 -208 q 431 -149 447 -162 q 390 -136 415 -136 q 354 -142 374 -136 q 328 -149 335 -149 q 308 -140 315 -149 l 285 -115 q 281 -103 281 -110 q 290 -74 281 -96 l 319 -7 q 140 94 204 13 q 74 306 76 175 l 72 361 l 74 417 q 161 652 78 568 q 393 736 244 736 q 562 701 493 736 q 665 613 631 665 q 701 507 699 560 q 692 485 703 494 q 669 475 682 475 l 608 475 q 588 481 594 475 q 574 504 581 488 q 505 601 549 572 q 394 629 461 629 q 256 575 307 629 q 200 410 204 521 l 199 361 l 200 313 q 256 147 204 201 q 394 93 307 93 q 506 122 463 93 q 574 218 549 150 q 588 241 581 235 q 608 247 594 247 l 669 247 q 692 238 682 247 q 701 215 703 228 q 665 111 699 164 q 563 22 632 58 q 396 -14 494 -14 l 364 -78 q 415 -67 382 -67 q 492 -99 463 -67 q 522 -183 522 -132 q 489 -271 522 -236 q 393 -306 456 -306 z "},"ĉ":{"ha":764,"x_min":72,"x_max":701,"o":"m 393 -14 q 161 70 244 -14 q 74 306 78 154 l 72 361 l 74 417 q 161 652 78 568 q 393 736 244 736 q 562 701 493 736 q 665 613 631 665 q 701 507 699 560 q 692 485 703 494 q 669 475 682 475 l 608 475 q 588 481 594 475 q 574 504 581 488 q 505 601 549 572 q 394 629 461 629 q 256 575 307 629 q 200 410 204 521 l 199 361 l 200 313 q 256 147 204 201 q 394 93 307 93 q 506 122 463 93 q 574 218 549 150 q 588 241 581 235 q 608 247 594 247 l 669 247 q 692 238 682 247 q 701 215 703 228 q 665 111 699 164 q 562 22 631 58 q 393 -14 493 -14 m 200 838 q 181 854 181 838 q 196 881 181 867 l 322 1007 q 345 1024 336 1021 q 368 1028 354 1028 l 407 1028 q 430 1024 421 1028 q 453 1007 439 1021 l 579 881 q 594 854 594 865 q 574 838 594 838 l 539 838 q 501 847 515 838 l 388 926 l 274 847 q 235 838 257 838 l 200 838 z "},"ċ":{"ha":764,"x_min":72,"x_max":701,"o":"m 393 -14 q 161 70 244 -14 q 74 306 78 154 l 72 361 l 74 417 q 161 652 78 568 q 393 736 244 736 q 562 701 493 736 q 665 613 631 665 q 701 507 699 560 q 692 485 703 494 q 669 475 682 475 l 608 475 q 588 481 594 475 q 574 504 581 488 q 505 601 549 572 q 394 629 461 629 q 256 575 307 629 q 200 410 204 521 l 199 361 l 200 313 q 256 147 204 201 q 394 93 307 93 q 506 122 463 93 q 574 218 549 150 q 588 241 581 235 q 608 247 594 247 l 669 247 q 692 238 682 247 q 701 215 703 228 q 665 111 699 164 q 562 22 631 58 q 393 -14 493 -14 m 344 851 q 322 860 331 851 q 314 883 314 869 l 314 968 q 322 991 314 982 q 344 1000 331 1000 l 431 1000 q 453 991 444 1000 q 463 968 463 982 l 463 883 q 453 860 463 869 q 431 851 444 851 l 344 851 z "},"d":{"ha":825,"x_min":69,"x_max":719,"o":"m 368 -14 q 149 81 222 -14 q 71 319 76 175 l 69 361 l 71 403 q 150 641 76 546 q 368 736 224 736 q 593 633 513 736 l 593 954 q 602 977 593 968 q 625 986 611 986 l 688 986 q 710 977 701 986 q 719 954 719 968 l 719 32 q 710 9 719 18 q 688 0 701 0 l 628 0 q 606 9 614 0 q 597 32 597 18 l 597 92 q 368 -14 518 -14 m 394 94 q 540 159 492 94 q 593 313 589 224 q 594 365 594 328 q 593 419 594 404 q 540 566 590 504 q 394 628 489 628 q 249 565 294 628 q 199 401 203 503 l 197 361 q 394 94 197 94 z "},"ð":{"ha":785,"x_min":68,"x_max":710,"o":"m 389 -14 q 153 78 238 -14 q 68 321 68 171 q 153 562 68 471 q 389 653 239 653 q 546 608 479 653 q 463 761 515 696 l 325 708 q 307 704 315 704 q 288 710 294 704 q 281 729 281 717 l 281 758 q 287 781 281 774 q 311 794 293 788 l 400 829 q 301 914 361 865 q 279 944 279 931 q 287 965 279 957 q 307 972 294 972 l 374 972 q 428 954 406 972 l 453 932 q 515 874 486 903 l 643 922 q 661 926 654 926 q 681 920 674 926 q 688 901 688 914 l 688 872 q 681 850 688 857 q 657 836 675 843 l 576 804 q 674 612 640 724 q 710 335 707 500 l 710 317 q 624 76 708 167 q 389 -14 540 -14 m 389 90 q 531 152 482 90 q 582 311 581 214 q 582 328 583 318 q 533 487 582 425 q 389 549 483 549 q 246 487 296 549 q 196 328 196 425 l 196 308 q 248 151 199 211 q 389 90 297 90 z "},"ď":{"ha":825,"x_min":69,"x_max":965,"o":"m 368 -14 q 149 81 222 -14 q 71 319 76 175 l 69 361 l 71 403 q 150 641 76 546 q 368 736 224 736 q 593 633 513 736 l 593 954 q 602 977 593 968 q 625 986 611 986 l 688 986 q 710 977 701 986 q 719 954 719 968 l 719 32 q 710 9 719 18 q 688 0 701 0 l 628 0 q 606 9 614 0 q 597 32 597 18 l 597 92 q 368 -14 518 -14 m 394 94 q 540 159 492 94 q 593 313 589 224 q 594 365 594 328 q 593 419 594 404 q 540 566 590 504 q 394 628 489 628 q 249 565 294 628 q 199 401 203 503 l 197 361 q 394 94 197 94 m 815 754 q 798 763 804 754 q 794 783 792 771 l 819 946 q 858 986 825 986 l 943 986 q 959 979 953 986 q 965 963 965 972 q 960 940 965 951 l 901 786 q 886 762 894 769 q 861 754 878 754 l 815 754 z "},"đ":{"ha":825,"x_min":71,"x_max":826,"o":"m 369 -14 q 145 84 213 -14 q 72 319 78 182 l 71 361 l 72 403 q 145 638 78 540 q 369 736 213 736 q 594 633 514 736 l 594 788 l 521 788 q 498 797 507 788 q 489 819 489 806 l 489 847 q 498 871 489 863 q 521 879 507 879 l 594 879 l 594 954 q 603 978 594 969 q 626 986 613 986 l 689 986 q 712 977 703 986 q 721 954 721 968 l 721 879 l 794 879 q 817 870 808 879 q 826 847 826 861 l 826 819 q 817 797 826 806 q 794 788 808 788 l 721 788 l 721 32 q 712 9 721 18 q 689 0 703 0 l 629 0 q 606 9 615 0 q 597 32 597 18 l 597 93 q 369 -14 519 -14 m 396 94 q 542 159 493 94 q 594 313 590 224 q 596 365 596 328 q 594 419 596 404 q 541 566 592 504 q 396 628 490 628 q 250 565 296 628 q 200 401 204 501 l 199 361 l 200 321 q 250 158 204 221 q 396 94 296 94 z "},"e":{"ha":776,"x_min":69,"x_max":711,"o":"m 390 -14 q 164 74 249 -14 q 71 315 79 163 l 69 363 l 71 408 q 164 647 79 558 q 390 736 249 736 q 627 639 543 736 q 711 375 711 542 l 711 350 q 702 327 711 336 q 679 318 693 318 l 197 318 l 197 306 q 253 151 201 215 q 389 88 304 88 q 495 113 454 88 q 557 167 536 139 q 576 187 569 183 q 600 190 583 190 l 661 190 q 683 183 674 190 q 692 165 692 176 q 654 92 692 135 q 548 17 617 49 q 390 -14 479 -14 m 585 413 l 585 417 q 532 575 585 514 q 390 636 479 636 q 249 575 300 636 q 197 417 197 514 l 197 413 l 585 413 z "},"é":{"ha":776,"x_min":69,"x_max":711,"o":"m 390 -14 q 164 74 249 -14 q 71 315 79 163 l 69 363 l 71 408 q 164 647 79 558 q 390 736 249 736 q 627 639 543 736 q 711 375 711 542 l 711 350 q 702 327 711 336 q 679 318 693 318 l 197 318 l 197 306 q 253 151 201 215 q 389 88 304 88 q 495 113 454 88 q 557 167 536 139 q 576 187 569 183 q 600 190 583 190 l 661 190 q 683 183 674 190 q 692 165 692 176 q 654 92 692 135 q 548 17 617 49 q 390 -14 479 -14 m 585 413 l 585 417 q 532 575 585 514 q 390 636 479 636 q 249 575 300 636 q 197 417 197 514 l 197 413 l 585 413 m 354 826 q 332 849 332 826 q 339 867 332 860 l 442 992 q 465 1012 456 1007 q 493 1017 475 1017 l 583 1017 q 610 990 610 1017 q 603 974 610 981 l 443 842 q 422 829 432 832 q 397 826 413 826 l 354 826 z "},"ĕ":{"ha":776,"x_min":69,"x_max":711,"o":"m 390 -14 q 164 74 249 -14 q 71 315 79 163 l 69 363 l 71 408 q 164 647 79 558 q 390 736 249 736 q 627 639 543 736 q 711 375 711 542 l 711 350 q 702 327 711 336 q 679 318 693 318 l 197 318 l 197 306 q 253 151 201 215 q 389 88 304 88 q 495 113 454 88 q 557 167 536 139 q 576 187 569 183 q 600 190 583 190 l 661 190 q 683 183 674 190 q 692 165 692 176 q 654 92 692 135 q 548 17 617 49 q 390 -14 479 -14 m 585 413 l 585 417 q 532 575 585 514 q 390 636 479 636 q 249 575 300 636 q 197 417 197 514 l 197 413 l 585 413 m 389 819 q 262 868 301 819 q 222 990 222 917 q 229 1009 222 1001 q 249 1017 236 1017 l 288 1017 q 307 1009 300 1017 q 314 990 314 1001 q 389 901 314 901 q 464 990 464 901 q 471 1009 464 1001 q 490 1017 478 1017 l 531 1017 q 550 1009 543 1017 q 557 990 557 1001 q 517 868 557 917 q 389 819 478 819 z "},"ě":{"ha":776,"x_min":69,"x_max":711,"o":"m 390 -14 q 164 74 249 -14 q 71 315 79 163 l 69 363 l 71 408 q 164 647 79 558 q 390 736 249 736 q 627 639 543 736 q 711 375 711 542 l 711 350 q 702 327 711 336 q 679 318 693 318 l 197 318 l 197 306 q 253 151 201 215 q 389 88 304 88 q 495 113 454 88 q 557 167 536 139 q 576 187 569 183 q 600 190 583 190 l 661 190 q 683 183 674 190 q 692 165 692 176 q 654 92 692 135 q 548 17 617 49 q 390 -14 479 -14 m 585 413 l 585 417 q 532 575 585 514 q 390 636 479 636 q 249 575 300 636 q 197 417 197 514 l 197 413 l 585 413 m 371 826 q 348 830 357 826 q 325 847 339 833 l 199 974 q 183 1000 183 988 q 203 1017 183 1017 l 238 1017 q 276 1007 260 1017 l 390 928 l 504 1007 q 542 1017 518 1017 l 576 1017 q 597 1000 597 1017 q 582 974 597 989 l 456 847 q 433 830 442 833 q 410 826 424 826 l 371 826 z "},"ê":{"ha":776,"x_min":69,"x_max":711,"o":"m 390 -14 q 164 74 249 -14 q 71 315 79 163 l 69 363 l 71 408 q 164 647 79 558 q 390 736 249 736 q 627 639 543 736 q 711 375 711 542 l 711 350 q 702 327 711 336 q 679 318 693 318 l 197 318 l 197 306 q 253 151 201 215 q 389 88 304 88 q 495 113 454 88 q 557 167 536 139 q 576 187 569 183 q 600 190 583 190 l 661 190 q 683 183 674 190 q 692 165 692 176 q 654 92 692 135 q 548 17 617 49 q 390 -14 479 -14 m 585 413 l 585 417 q 532 575 585 514 q 390 636 479 636 q 249 575 300 636 q 197 417 197 514 l 197 413 l 585 413 m 203 826 q 183 843 183 826 q 199 869 183 856 l 325 996 q 348 1013 339 1010 q 371 1017 357 1017 l 410 1017 q 433 1013 424 1017 q 456 996 442 1010 l 582 869 q 597 843 597 854 q 576 826 597 826 l 542 826 q 504 836 518 826 l 390 915 l 276 836 q 238 826 260 826 l 203 826 z "},"ë":{"ha":776,"x_min":69,"x_max":711,"o":"m 390 -14 q 164 74 249 -14 q 71 315 79 163 l 69 363 l 71 408 q 164 647 79 558 q 390 736 249 736 q 627 639 543 736 q 711 375 711 542 l 711 350 q 702 327 711 336 q 679 318 693 318 l 197 318 l 197 306 q 253 151 201 215 q 389 88 304 88 q 495 113 454 88 q 557 167 536 139 q 576 187 569 183 q 600 190 583 190 l 661 190 q 683 183 674 190 q 692 165 692 176 q 654 92 692 135 q 548 17 617 49 q 390 -14 479 -14 m 585 413 l 585 417 q 532 575 585 514 q 390 636 479 636 q 249 575 300 636 q 197 417 197 514 l 197 413 l 585 413 m 238 864 q 215 872 224 864 q 207 894 207 881 l 207 967 q 215 990 207 981 q 238 999 224 999 l 310 999 q 333 990 324 999 q 342 967 342 981 l 342 894 q 333 872 342 881 q 310 864 324 864 l 238 864 m 469 864 q 447 872 456 864 q 439 894 439 881 l 439 967 q 447 990 439 981 q 469 999 456 999 l 543 999 q 566 990 557 999 q 575 967 575 981 l 575 894 q 566 872 575 881 q 543 864 557 864 l 469 864 z "},"ė":{"ha":776,"x_min":69,"x_max":711,"o":"m 390 -14 q 164 74 249 -14 q 71 315 79 163 l 69 363 l 71 408 q 164 647 79 558 q 390 736 249 736 q 627 639 543 736 q 711 375 711 542 l 711 350 q 702 327 711 336 q 679 318 693 318 l 197 318 l 197 306 q 253 151 201 215 q 389 88 304 88 q 495 113 454 88 q 557 167 536 139 q 576 187 569 183 q 600 190 583 190 l 661 190 q 683 183 674 190 q 692 165 692 176 q 654 92 692 135 q 548 17 617 49 q 390 -14 479 -14 m 585 413 l 585 417 q 532 575 585 514 q 390 636 479 636 q 249 575 300 636 q 197 417 197 514 l 197 413 l 585 413 m 347 851 q 325 860 333 851 q 317 883 317 869 l 317 968 q 325 991 317 982 q 347 1000 333 1000 l 433 1000 q 456 991 447 1000 q 465 968 465 982 l 465 883 q 456 860 465 869 q 433 851 447 851 l 347 851 z "},"è":{"ha":776,"x_min":69,"x_max":711,"o":"m 390 -14 q 164 74 249 -14 q 71 315 79 163 l 69 363 l 71 408 q 164 647 79 558 q 390 736 249 736 q 627 639 543 736 q 711 375 711 542 l 711 350 q 702 327 711 336 q 679 318 693 318 l 197 318 l 197 306 q 253 151 201 215 q 389 88 304 88 q 495 113 454 88 q 557 167 536 139 q 576 187 569 183 q 600 190 583 190 l 661 190 q 683 183 674 190 q 692 165 692 176 q 654 92 692 135 q 548 17 617 49 q 390 -14 479 -14 m 585 413 l 585 417 q 532 575 585 514 q 390 636 479 636 q 249 575 300 636 q 197 417 197 514 l 197 413 l 585 413 m 386 826 q 362 829 371 826 q 342 842 353 832 l 181 974 q 174 990 174 981 q 200 1017 174 1017 l 290 1017 q 319 1012 310 1017 q 342 992 329 1007 l 446 867 q 453 849 453 860 q 431 826 453 826 l 386 826 z "},"ē":{"ha":776,"x_min":69,"x_max":711,"o":"m 390 -14 q 164 74 249 -14 q 71 315 79 163 l 69 363 l 71 408 q 164 647 79 558 q 390 736 249 736 q 627 639 543 736 q 711 375 711 542 l 711 350 q 702 327 711 336 q 679 318 693 318 l 197 318 l 197 306 q 253 151 201 215 q 389 88 304 88 q 495 113 454 88 q 557 167 536 139 q 576 187 569 183 q 600 190 583 190 l 661 190 q 683 183 674 190 q 692 165 692 176 q 654 92 692 135 q 548 17 617 49 q 390 -14 479 -14 m 585 413 l 585 417 q 532 575 585 514 q 390 636 479 636 q 249 575 300 636 q 197 417 197 514 l 197 413 l 585 413 m 238 858 q 215 867 224 858 q 207 889 207 875 l 207 929 q 215 951 207 943 q 238 960 224 960 l 543 960 q 565 951 557 960 q 574 929 574 943 l 574 889 q 565 867 574 875 q 543 858 557 858 l 238 858 z "},"ę":{"ha":778,"x_min":71,"x_max":713,"o":"m 463 -306 q 321 -251 372 -306 q 269 -107 269 -197 q 293 -1 269 -44 q 136 108 194 25 q 71 315 78 192 l 71 408 q 165 647 81 558 q 390 736 250 736 q 628 639 543 736 q 713 375 713 542 l 713 350 q 703 327 713 336 q 679 318 693 318 l 199 318 l 199 306 q 253 151 201 215 q 390 88 306 88 q 497 113 456 88 q 558 167 538 139 q 577 187 571 183 q 600 190 583 190 l 663 190 q 683 183 675 190 q 692 165 692 176 q 663 103 692 139 q 581 35 635 67 q 458 -8 528 4 q 391 -40 414 -17 q 368 -107 368 -64 q 396 -183 368 -154 q 468 -211 424 -211 l 488 -211 q 510 -220 501 -211 q 519 -243 519 -229 l 519 -274 q 511 -297 519 -289 q 488 -306 503 -306 l 463 -306 m 585 413 l 585 417 q 532 575 585 514 q 390 636 479 636 q 249 575 300 636 q 197 417 197 514 l 197 413 l 585 413 z "},"f":{"ha":531,"x_min":25,"x_max":525,"o":"m 208 0 q 185 9 194 0 q 176 32 176 18 l 176 615 l 57 615 q 34 624 43 615 q 25 646 25 632 l 25 690 q 34 713 25 704 q 57 722 43 722 l 176 722 l 176 792 q 231 966 176 904 q 411 1028 286 1028 l 493 1028 q 516 1019 507 1028 q 525 996 525 1010 l 525 951 q 516 929 525 938 q 493 921 507 921 l 414 921 q 325 888 350 921 q 300 785 300 854 l 300 722 l 479 722 q 502 713 493 722 q 511 690 511 704 l 511 646 q 502 624 511 632 q 479 615 493 615 l 300 615 l 300 32 q 291 9 300 18 q 268 0 282 0 l 208 0 z "},"g":{"ha":826,"x_min":71,"x_max":721,"o":"m 397 -306 q 213 -267 282 -306 q 115 -178 143 -228 q 86 -92 86 -128 q 96 -70 86 -79 q 118 -61 106 -61 l 179 -61 q 200 -67 192 -61 q 214 -90 208 -74 q 390 -201 253 -201 q 544 -157 494 -201 q 594 0 594 -112 l 594 96 q 369 -7 514 -7 q 149 88 222 -7 q 72 326 76 182 l 71 365 l 72 403 q 149 641 76 546 q 369 736 222 736 q 597 629 515 736 l 597 689 q 606 713 597 703 q 629 722 615 722 l 689 722 q 712 713 703 722 q 721 689 721 703 l 721 15 q 397 -306 721 -306 m 394 101 q 541 165 492 101 q 594 317 590 228 q 596 365 596 329 q 594 413 596 400 q 541 565 590 501 q 394 628 492 628 q 249 565 294 628 q 200 401 204 501 l 199 365 l 200 328 q 249 165 204 228 q 394 101 294 101 z "},"ğ":{"ha":826,"x_min":71,"x_max":721,"o":"m 397 -306 q 213 -267 282 -306 q 115 -178 143 -228 q 86 -92 86 -128 q 96 -70 86 -79 q 118 -61 106 -61 l 179 -61 q 200 -67 192 -61 q 214 -90 208 -74 q 390 -201 253 -201 q 544 -157 494 -201 q 594 0 594 -112 l 594 96 q 369 -7 514 -7 q 149 88 222 -7 q 72 326 76 182 l 71 365 l 72 403 q 149 641 76 546 q 369 736 222 736 q 597 629 515 736 l 597 689 q 606 713 597 703 q 629 722 615 722 l 689 722 q 712 713 703 722 q 721 689 721 703 l 721 15 q 397 -306 721 -306 m 394 101 q 541 165 492 101 q 594 317 590 228 q 596 365 596 329 q 594 413 596 400 q 541 565 590 501 q 394 628 492 628 q 249 565 294 628 q 200 401 204 501 l 199 365 l 200 328 q 249 165 204 228 q 394 101 294 101 m 396 819 q 269 868 308 819 q 229 990 229 917 q 236 1009 229 1001 q 256 1017 243 1017 l 294 1017 q 314 1009 307 1017 q 321 990 321 1001 q 396 901 321 901 q 471 990 471 901 q 478 1009 471 1001 q 497 1017 485 1017 l 538 1017 q 557 1009 550 1017 q 564 990 564 1001 q 524 868 564 917 q 396 819 485 819 z "},"ĝ":{"ha":826,"x_min":71,"x_max":721,"o":"m 397 -306 q 213 -267 282 -306 q 115 -178 143 -228 q 86 -92 86 -128 q 96 -70 86 -79 q 118 -61 106 -61 l 179 -61 q 200 -67 192 -61 q 214 -90 208 -74 q 390 -201 253 -201 q 544 -157 494 -201 q 594 0 594 -112 l 594 96 q 369 -7 514 -7 q 149 88 222 -7 q 72 326 76 182 l 71 365 l 72 403 q 149 641 76 546 q 369 736 222 736 q 597 629 515 736 l 597 689 q 606 713 597 703 q 629 722 615 722 l 689 722 q 712 713 703 722 q 721 689 721 703 l 721 15 q 397 -306 721 -306 m 394 101 q 541 165 492 101 q 594 317 590 228 q 596 365 596 329 q 594 413 596 400 q 541 565 590 501 q 394 628 492 628 q 249 565 294 628 q 200 401 204 501 l 199 365 l 200 328 q 249 165 204 228 q 394 101 294 101 m 208 826 q 189 843 189 826 q 204 869 189 856 l 331 996 q 353 1013 344 1010 q 376 1017 363 1017 l 415 1017 q 438 1013 429 1017 q 461 996 447 1010 l 588 869 q 603 843 603 854 q 582 826 603 826 l 547 826 q 510 836 524 826 l 396 915 l 282 836 q 243 826 265 826 l 208 826 z "},"ģ":{"ha":826,"x_min":71,"x_max":721,"o":"m 481 1058 q 498 1050 492 1058 q 501 1029 504 1042 l 476 867 q 438 826 471 826 l 353 826 q 337 833 343 826 q 331 850 331 840 q 336 872 331 861 l 394 1026 q 410 1051 401 1043 q 435 1058 418 1058 l 481 1058 m 397 -306 q 213 -267 282 -306 q 115 -178 143 -228 q 86 -92 86 -128 q 96 -70 86 -79 q 118 -61 106 -61 l 179 -61 q 200 -67 192 -61 q 214 -90 208 -74 q 390 -201 253 -201 q 544 -157 494 -201 q 594 0 594 -112 l 594 96 q 369 -7 514 -7 q 149 88 222 -7 q 72 326 76 182 l 71 365 l 72 403 q 149 641 76 546 q 369 736 222 736 q 597 629 515 736 l 597 689 q 606 713 597 703 q 629 722 615 722 l 689 722 q 712 713 703 722 q 721 689 721 703 l 721 15 q 397 -306 721 -306 m 394 101 q 541 165 492 101 q 594 317 590 228 q 596 365 596 329 q 594 413 596 400 q 541 565 590 501 q 394 628 492 628 q 249 565 294 628 q 200 401 204 501 l 199 365 l 200 328 q 249 165 204 228 q 394 101 294 101 z "},"ġ":{"ha":826,"x_min":71,"x_max":721,"o":"m 397 -306 q 213 -267 282 -306 q 115 -178 143 -228 q 86 -92 86 -128 q 96 -70 86 -79 q 118 -61 106 -61 l 179 -61 q 200 -67 192 -61 q 214 -90 208 -74 q 390 -201 253 -201 q 544 -157 494 -201 q 594 0 594 -112 l 594 96 q 369 -7 514 -7 q 149 88 222 -7 q 72 326 76 182 l 71 365 l 72 403 q 149 641 76 546 q 369 736 222 736 q 597 629 515 736 l 597 689 q 606 713 597 703 q 629 722 615 722 l 689 722 q 712 713 703 722 q 721 689 721 703 l 721 15 q 397 -306 721 -306 m 394 101 q 541 165 492 101 q 594 317 590 228 q 596 365 596 329 q 594 413 596 400 q 541 565 590 501 q 394 628 492 628 q 249 565 294 628 q 200 401 204 501 l 199 365 l 200 328 q 249 165 204 228 q 394 101 294 101 m 353 851 q 331 860 339 851 q 322 883 322 869 l 322 968 q 331 991 322 982 q 353 1000 339 1000 l 439 1000 q 462 991 453 1000 q 471 968 471 982 l 471 883 q 462 860 471 869 q 439 851 453 851 l 353 851 z "},"h":{"ha":843,"x_min":106,"x_max":746,"o":"m 138 0 q 115 9 124 0 q 106 32 106 18 l 106 954 q 115 978 106 969 q 138 986 124 986 l 201 986 q 225 978 217 986 q 233 954 233 969 l 233 631 q 328 709 274 682 q 464 736 383 736 q 672 651 597 736 q 746 425 746 565 l 746 32 q 737 9 746 18 q 714 0 728 0 l 649 0 q 626 9 635 0 q 617 32 617 18 l 617 417 q 568 572 617 517 q 428 628 519 628 q 286 572 339 628 q 233 417 233 515 l 233 32 q 224 9 233 18 q 201 0 215 0 l 138 0 z "},"ħ":{"ha":842,"x_min":0,"x_max":744,"o":"m 136 0 q 113 9 122 0 q 104 32 104 18 l 104 786 l 32 786 q 9 794 18 786 q 0 817 0 803 l 0 846 q 9 868 0 860 q 32 876 18 876 l 104 876 l 104 954 q 113 977 104 968 q 136 986 122 986 l 201 986 q 224 977 215 986 q 233 954 233 968 l 233 876 l 306 876 q 328 868 319 876 q 338 846 338 860 l 338 817 q 328 794 338 803 q 306 786 319 786 l 233 786 l 233 631 q 327 709 272 682 q 463 736 382 736 q 670 651 596 736 q 744 425 744 565 l 744 32 q 735 9 744 18 q 713 0 726 0 l 647 0 q 625 9 633 0 q 617 32 617 18 l 617 417 q 567 572 617 517 q 428 628 518 628 q 286 572 339 628 q 233 417 233 515 l 233 32 q 224 9 233 18 q 201 0 215 0 l 136 0 z "},"ĥ":{"ha":843,"x_min":106,"x_max":746,"o":"m 138 0 q 115 9 124 0 q 106 32 106 18 l 106 954 q 115 978 106 969 q 138 986 124 986 l 201 986 q 225 978 217 986 q 233 954 233 969 l 233 631 q 328 709 274 682 q 464 736 383 736 q 672 651 597 736 q 746 425 746 565 l 746 32 q 737 9 746 18 q 714 0 728 0 l 649 0 q 626 9 635 0 q 617 32 617 18 l 617 417 q 568 572 617 517 q 428 628 519 628 q 286 572 339 628 q 233 417 233 515 l 233 32 q 224 9 233 18 q 201 0 215 0 l 138 0 m 238 1042 q 218 1058 218 1042 q 233 1085 218 1071 l 360 1211 q 383 1228 374 1225 q 406 1232 392 1232 l 444 1232 q 467 1228 458 1232 q 490 1211 476 1225 l 617 1085 q 632 1058 632 1069 q 611 1042 632 1042 l 576 1042 q 539 1051 553 1042 l 425 1131 l 311 1051 q 272 1042 294 1042 l 238 1042 z "},"i":{"ha":333,"x_min":93,"x_max":240,"o":"m 125 858 q 102 867 111 858 q 93 890 93 876 l 93 963 q 102 986 93 976 q 125 996 111 996 l 207 996 q 231 986 221 996 q 240 963 240 976 l 240 890 q 231 867 240 876 q 207 858 221 858 l 125 858 m 136 0 q 113 9 122 0 q 104 32 104 18 l 104 690 q 113 713 104 704 q 136 722 122 722 l 197 722 q 220 713 211 722 q 229 690 229 704 l 229 32 q 220 9 229 18 q 197 0 211 0 l 136 0 z "},"ı":{"ha":333,"x_min":104,"x_max":229,"o":"m 136 0 q 113 9 122 0 q 104 32 104 18 l 104 690 q 113 713 104 704 q 136 722 122 722 l 197 722 q 220 713 211 722 q 229 690 229 704 l 229 32 q 220 9 229 18 q 197 0 211 0 l 136 0 z "},"í":{"ha":333,"x_min":104,"x_max":385,"o":"m 136 0 q 113 9 122 0 q 104 32 104 18 l 104 690 q 113 713 104 704 q 136 722 122 722 l 197 722 q 220 713 211 722 q 229 690 229 704 l 229 32 q 220 9 229 18 q 197 0 211 0 l 136 0 m 129 826 q 107 849 107 826 q 114 867 107 860 l 217 992 q 240 1012 231 1007 q 268 1017 250 1017 l 358 1017 q 385 990 385 1017 q 378 974 385 981 l 218 842 q 197 829 207 832 q 172 826 188 826 l 129 826 z "},"ĭ":{"ha":333,"x_min":-1,"x_max":333,"o":"m 136 0 q 113 9 122 0 q 104 32 104 18 l 104 690 q 113 713 104 704 q 136 722 122 722 l 197 722 q 220 713 211 722 q 229 690 229 704 l 229 32 q 220 9 229 18 q 197 0 211 0 l 136 0 m 165 819 q 38 868 78 819 q -1 990 -1 917 q 6 1009 -1 1001 q 25 1017 13 1017 l 64 1017 q 83 1009 76 1017 q 90 990 90 1001 q 165 901 90 901 q 240 990 240 901 q 247 1009 240 1001 q 267 1017 254 1017 l 307 1017 q 326 1009 319 1017 q 333 990 333 1001 q 294 868 333 917 q 165 819 254 819 z "},"î":{"ha":333,"x_min":-40,"x_max":374,"o":"m 136 0 q 113 9 122 0 q 104 32 104 18 l 104 690 q 113 713 104 704 q 136 722 122 722 l 197 722 q 220 713 211 722 q 229 690 229 704 l 229 32 q 220 9 229 18 q 197 0 211 0 l 136 0 m -21 826 q -40 843 -40 826 q -25 869 -40 856 l 101 996 q 124 1013 115 1010 q 147 1017 133 1017 l 186 1017 q 209 1013 200 1017 q 232 996 218 1010 l 358 869 q 374 843 374 854 q 353 826 374 826 l 318 826 q 281 836 294 826 l 167 915 l 53 836 q 14 826 36 826 l -21 826 z "},"ï":{"ha":333,"x_min":-18,"x_max":350,"o":"m 136 0 q 113 9 122 0 q 104 32 104 18 l 104 690 q 113 713 104 704 q 136 722 122 722 l 197 722 q 220 713 211 722 q 229 690 229 704 l 229 32 q 220 9 229 18 q 197 0 211 0 l 136 0 m 13 864 q -10 872 -1 864 q -18 894 -18 881 l -18 967 q -10 990 -18 981 q 13 999 -1 999 l 85 999 q 108 990 99 999 q 117 967 117 981 l 117 894 q 108 872 117 881 q 85 864 99 864 l 13 864 m 244 864 q 222 872 231 864 q 214 894 214 881 l 214 967 q 222 990 214 981 q 244 999 231 999 l 318 999 q 341 990 332 999 q 350 967 350 981 l 350 894 q 341 872 350 881 q 318 864 332 864 l 244 864 z "},"ì":{"ha":333,"x_min":-51,"x_max":229,"o":"m 136 0 q 113 9 122 0 q 104 32 104 18 l 104 690 q 113 713 104 704 q 136 722 122 722 l 197 722 q 220 713 211 722 q 229 690 229 704 l 229 32 q 220 9 229 18 q 197 0 211 0 l 136 0 m 161 826 q 137 829 146 826 q 117 842 128 832 l -44 974 q -51 990 -51 981 q -25 1017 -51 1017 l 65 1017 q 94 1012 85 1017 q 117 992 104 1007 l 221 867 q 228 849 228 860 q 206 826 228 826 l 161 826 z "},"ĳ":{"ha":683,"x_min":93,"x_max":589,"o":"m 125 858 q 102 867 111 858 q 93 890 93 876 l 93 963 q 102 986 93 976 q 125 996 111 996 l 207 996 q 231 986 221 996 q 240 963 240 976 l 240 890 q 231 867 240 876 q 207 858 221 858 l 125 858 m 136 0 q 113 9 122 0 q 104 32 104 18 l 104 690 q 113 713 104 704 q 136 722 122 722 l 197 722 q 220 713 211 722 q 229 690 229 704 l 229 32 q 220 9 229 18 q 197 0 211 0 l 136 0 m 471 858 q 448 867 457 858 q 439 890 439 876 l 439 963 q 448 986 439 976 q 471 996 457 996 l 557 996 q 580 986 571 996 q 589 963 589 976 l 589 890 q 580 867 589 876 q 557 858 571 858 l 471 858 m 318 -264 q 296 -255 304 -264 q 288 -232 288 -246 l 288 -187 q 296 -165 288 -174 q 318 -157 304 -157 l 338 -157 q 428 -122 406 -157 q 451 -18 451 -86 l 451 690 q 460 714 451 706 q 483 722 469 722 l 546 722 q 569 713 560 722 q 578 690 578 704 l 578 -19 q 344 -264 578 -264 l 318 -264 z "},"ī":{"ha":333,"x_min":-17,"x_max":350,"o":"m 136 0 q 113 9 122 0 q 104 32 104 18 l 104 690 q 113 713 104 704 q 136 722 122 722 l 197 722 q 220 713 211 722 q 229 690 229 704 l 229 32 q 220 9 229 18 q 197 0 211 0 l 136 0 m 14 858 q -8 867 0 858 q -17 889 -17 875 l -17 929 q -8 951 -17 943 q 14 960 0 960 l 319 960 q 342 951 333 960 q 350 929 350 943 l 350 889 q 342 867 350 875 q 319 858 333 858 l 14 858 z "},"į":{"ha":357,"x_min":18,"x_max":265,"o":"m 149 858 q 126 867 135 858 q 117 890 117 876 l 117 963 q 126 986 117 976 q 149 996 135 996 l 232 996 q 256 986 246 996 q 265 963 265 976 l 265 890 q 256 867 265 876 q 232 858 246 858 l 149 858 m 208 -299 q 69 -246 119 -299 q 18 -104 18 -193 q 49 6 18 -37 q 136 63 81 50 l 135 67 q 129 81 129 72 l 129 690 q 138 713 129 704 q 160 722 146 722 l 221 722 q 244 714 236 722 q 253 690 253 706 l 253 32 q 244 9 253 18 q 221 0 235 0 l 214 0 q 141 -28 168 0 q 114 -104 114 -57 q 141 -179 114 -151 q 214 -207 168 -207 l 233 -207 q 256 -216 247 -207 q 265 -239 265 -225 l 265 -268 q 256 -290 265 -282 q 233 -299 247 -299 l 208 -299 z "},"ĩ":{"ha":333,"x_min":-18,"x_max":353,"o":"m 136 0 q 113 9 122 0 q 104 32 104 18 l 104 690 q 113 713 104 704 q 136 722 122 722 l 197 722 q 220 713 211 722 q 229 690 229 704 l 229 32 q 220 9 229 18 q 197 0 211 0 l 136 0 m 238 819 q 196 826 213 819 q 156 847 179 833 q 131 860 143 854 q 106 867 118 867 q 88 861 94 867 q 74 846 81 856 q 47 826 63 826 l 4 826 q -12 833 -6 826 q -18 849 -18 840 q 13 932 -18 894 q 96 969 44 969 q 138 963 121 969 q 178 942 154 956 q 196 931 181 940 q 228 922 211 922 q 247 928 240 922 q 260 944 253 933 q 272 960 267 956 q 288 964 278 964 l 329 964 q 347 957 340 964 q 353 942 353 950 q 321 858 353 896 q 238 819 289 819 z "},"j":{"ha":350,"x_min":-46,"x_max":256,"o":"m 138 858 q 115 867 124 858 q 106 890 106 876 l 106 963 q 115 986 106 976 q 138 996 124 996 l 224 996 q 247 986 238 996 q 256 963 256 976 l 256 890 q 247 867 256 876 q 224 858 238 858 l 138 858 m -15 -264 q -37 -255 -29 -264 q -46 -232 -46 -246 l -46 -187 q -37 -165 -46 -174 q -15 -157 -29 -157 l 4 -157 q 95 -122 72 -157 q 118 -18 118 -86 l 118 690 q 127 714 118 706 q 150 722 136 722 l 213 722 q 235 713 226 722 q 244 690 244 704 l 244 -19 q 11 -264 244 -264 l -15 -264 z "},"ȷ":{"ha":424,"x_min":17,"x_max":318,"o":"m 49 -264 q 26 -255 35 -264 q 17 -232 17 -246 l 17 -181 q 26 -158 17 -167 q 49 -149 35 -149 l 76 -149 q 168 -113 146 -149 q 190 -10 190 -78 l 190 613 l 61 613 q 38 622 47 613 q 29 644 29 631 l 29 690 q 38 714 29 706 q 61 722 47 722 l 286 722 q 309 713 300 722 q 318 690 318 704 l 318 -10 q 263 -196 318 -128 q 83 -264 207 -264 l 49 -264 z "},"ĵ":{"ha":424,"x_min":-17,"x_max":397,"o":"m 49 -264 q 26 -255 35 -264 q 17 -232 17 -246 l 17 -181 q 26 -158 17 -167 q 49 -149 35 -149 l 76 -149 q 168 -113 146 -149 q 190 -10 190 -78 l 190 613 l 61 613 q 38 622 47 613 q 29 644 29 631 l 29 690 q 38 714 29 706 q 61 722 47 722 l 286 722 q 309 713 300 722 q 318 690 318 704 l 318 -10 q 263 -196 318 -128 q 83 -264 207 -264 l 49 -264 m 3 826 q -17 843 -17 826 q -1 869 -17 856 l 125 996 q 148 1013 139 1010 q 171 1017 157 1017 l 210 1017 q 233 1013 224 1017 q 256 996 242 1010 l 382 869 q 397 843 397 854 q 376 826 397 826 l 342 826 q 304 836 318 826 l 190 915 l 76 836 q 38 826 60 826 l 3 826 z "},"k":{"ha":713,"x_min":106,"x_max":694,"o":"m 138 0 q 115 9 124 0 q 106 32 106 18 l 106 954 q 115 978 106 969 q 138 986 124 986 l 197 986 q 220 977 211 986 q 229 954 229 968 l 229 469 l 507 699 q 536 718 528 714 q 563 722 544 722 l 632 722 q 652 715 644 722 q 660 693 660 707 q 644 667 660 681 l 319 400 l 679 56 q 694 29 694 40 q 687 8 694 17 q 667 0 679 0 l 599 0 q 569 4 578 0 q 543 24 560 8 l 229 321 l 229 32 q 220 9 229 18 q 197 0 211 0 l 138 0 z "},"ķ":{"ha":713,"x_min":106,"x_max":694,"o":"m 138 0 q 115 9 124 0 q 106 32 106 18 l 106 954 q 115 978 106 969 q 138 986 124 986 l 197 986 q 220 977 211 986 q 229 954 229 968 l 229 469 l 507 699 q 536 718 528 714 q 563 722 544 722 l 632 722 q 652 715 644 722 q 660 693 660 707 q 644 667 660 681 l 319 400 l 679 56 q 694 29 694 40 q 687 8 694 17 q 667 0 679 0 l 599 0 q 569 4 578 0 q 543 24 560 8 l 229 321 l 229 32 q 220 9 229 18 q 197 0 211 0 l 138 0 m 272 -301 q 255 -293 261 -301 q 251 -272 249 -285 l 276 -110 q 315 -69 282 -69 l 400 -69 q 416 -76 410 -69 q 422 -93 422 -83 q 417 -115 422 -104 l 358 -269 q 343 -294 351 -286 q 318 -301 335 -301 l 272 -301 z "},"ĸ":{"ha":714,"x_min":104,"x_max":693,"o":"m 136 0 q 113 9 122 0 q 104 32 104 18 l 104 690 q 113 713 104 704 q 136 722 122 722 l 196 722 q 219 714 211 722 q 228 690 228 706 l 228 433 l 518 699 q 546 718 538 714 q 574 722 554 722 l 636 722 q 657 715 649 722 q 665 693 665 707 q 649 667 665 679 l 318 363 l 678 56 q 693 29 693 42 q 685 8 693 17 q 665 0 678 0 l 596 0 q 568 5 578 0 q 540 24 558 10 l 228 289 l 228 32 q 219 9 228 18 q 196 0 210 0 l 136 0 z "},"l":{"ha":335,"x_min":106,"x_max":231,"o":"m 138 0 q 115 9 124 0 q 106 32 106 18 l 106 954 q 115 978 106 969 q 138 986 124 986 l 199 986 q 222 977 213 986 q 231 954 231 968 l 231 32 q 222 9 231 18 q 199 0 213 0 l 138 0 z "},"ĺ":{"ha":335,"x_min":106,"x_max":399,"o":"m 138 0 q 115 9 124 0 q 106 32 106 18 l 106 954 q 115 978 106 969 q 138 986 124 986 l 199 986 q 222 977 213 986 q 231 954 231 968 l 231 32 q 222 9 231 18 q 199 0 213 0 l 138 0 m 143 1042 q 121 1064 121 1042 q 128 1082 121 1075 l 231 1207 q 254 1227 244 1222 q 282 1232 264 1232 l 372 1232 q 399 1206 399 1232 q 392 1189 399 1196 l 232 1057 q 211 1044 221 1047 q 186 1042 201 1042 l 143 1042 z "},"ľ":{"ha":399,"x_min":106,"x_max":476,"o":"m 138 0 q 115 9 124 0 q 106 32 106 18 l 106 954 q 115 978 106 969 q 138 986 124 986 l 199 986 q 222 977 213 986 q 231 954 231 968 l 231 32 q 222 9 231 18 q 199 0 213 0 l 138 0 m 326 754 q 309 763 315 754 q 306 783 303 771 l 331 946 q 369 986 336 986 l 454 986 q 470 979 464 986 q 476 963 476 972 q 471 940 476 951 l 413 786 q 397 762 406 769 q 372 754 389 754 l 326 754 z "},"ļ":{"ha":335,"x_min":64,"x_max":235,"o":"m 138 0 q 115 9 124 0 q 106 32 106 18 l 106 954 q 115 978 106 969 q 138 986 124 986 l 199 986 q 222 977 213 986 q 231 954 231 968 l 231 32 q 222 9 231 18 q 199 0 213 0 l 138 0 m 85 -301 q 67 -293 74 -301 q 64 -272 61 -285 l 89 -110 q 128 -69 94 -69 l 213 -69 q 228 -76 222 -69 q 235 -93 235 -83 q 229 -115 235 -104 l 171 -269 q 156 -294 164 -286 q 131 -301 147 -301 l 85 -301 z "},"ŀ":{"ha":414,"x_min":106,"x_max":449,"o":"m 138 0 q 115 9 124 0 q 106 32 106 18 l 106 954 q 115 978 106 969 q 138 986 124 986 l 199 986 q 222 977 213 986 q 231 954 231 968 l 231 32 q 222 9 231 18 q 199 0 213 0 l 138 0 m 331 425 q 308 434 317 425 q 300 457 300 443 l 300 542 q 308 565 300 556 q 331 574 317 574 l 417 574 q 440 565 431 574 q 449 542 449 556 l 449 457 q 440 434 449 443 q 417 425 431 425 l 331 425 z "},"ł":{"ha":379,"x_min":33,"x_max":347,"o":"m 160 0 q 137 9 146 0 q 128 32 128 18 l 128 421 l 78 403 q 60 399 67 399 q 40 405 47 399 q 33 424 33 411 l 33 471 q 40 493 33 486 q 64 507 46 500 l 128 532 l 128 954 q 137 977 128 968 q 160 986 146 986 l 221 986 q 244 978 236 986 q 253 954 253 969 l 253 579 l 303 599 q 321 603 313 603 q 340 597 333 603 q 347 578 347 590 l 347 531 q 341 508 347 515 q 317 494 335 501 l 253 468 l 253 32 q 244 9 253 18 q 221 0 235 0 l 160 0 z "},"m":{"ha":1233,"x_min":104,"x_max":1136,"o":"m 136 0 q 113 9 122 0 q 104 32 104 18 l 104 690 q 113 713 104 704 q 136 722 122 722 l 194 722 q 217 713 208 722 q 225 690 225 704 l 225 643 q 428 736 300 736 q 644 608 581 736 q 740 701 678 667 q 878 736 801 736 q 1064 658 992 736 q 1136 433 1136 581 l 1136 32 q 1127 9 1136 18 q 1104 0 1118 0 l 1044 0 q 1022 9 1031 0 q 1013 32 1013 18 l 1013 421 q 967 580 1013 532 q 846 628 921 628 q 731 578 779 628 q 683 421 683 529 l 683 32 q 674 9 683 18 q 651 0 665 0 l 590 0 q 567 9 576 0 q 558 32 558 18 l 558 421 q 510 579 558 531 q 392 628 463 628 q 277 579 325 628 q 229 422 229 531 l 229 32 q 220 9 229 18 q 197 0 211 0 l 136 0 z "},"n":{"ha":839,"x_min":104,"x_max":742,"o":"m 136 0 q 113 9 122 0 q 104 32 104 18 l 104 690 q 113 713 104 704 q 136 722 122 722 l 196 722 q 219 714 211 722 q 228 690 228 706 l 228 629 q 324 708 269 681 q 461 736 379 736 q 668 651 594 736 q 742 425 742 565 l 742 32 q 733 9 742 18 q 710 0 724 0 l 646 0 q 623 9 632 0 q 614 32 614 18 l 614 417 q 565 572 614 517 q 426 628 517 628 q 285 572 338 628 q 232 417 232 515 l 232 32 q 223 9 232 18 q 200 0 214 0 l 136 0 z "},"ń":{"ha":839,"x_min":104,"x_max":742,"o":"m 136 0 q 113 9 122 0 q 104 32 104 18 l 104 690 q 113 713 104 704 q 136 722 122 722 l 196 722 q 219 714 211 722 q 228 690 228 706 l 228 629 q 324 708 269 681 q 461 736 379 736 q 668 651 594 736 q 742 425 742 565 l 742 32 q 733 9 742 18 q 710 0 724 0 l 646 0 q 623 9 632 0 q 614 32 614 18 l 614 417 q 565 572 614 517 q 426 628 517 628 q 285 572 338 628 q 232 417 232 515 l 232 32 q 223 9 232 18 q 200 0 214 0 l 136 0 m 381 826 q 358 849 358 826 q 365 867 358 860 l 468 992 q 492 1012 482 1007 q 519 1017 501 1017 l 610 1017 q 636 990 636 1017 q 629 974 636 981 l 469 842 q 449 829 458 832 q 424 826 439 826 l 381 826 z "},"ŉ":{"ha":839,"x_min":104,"x_max":742,"o":"m 136 0 q 113 9 122 0 q 104 32 104 18 l 104 690 q 113 713 104 704 q 136 722 122 722 l 196 722 q 219 714 211 722 q 228 690 228 706 l 228 629 q 324 708 269 681 q 461 736 379 736 q 668 651 594 736 q 742 425 742 565 l 742 32 q 733 9 742 18 q 710 0 724 0 l 646 0 q 623 9 632 0 q 614 32 614 18 l 614 417 q 565 572 614 517 q 426 628 517 628 q 285 572 338 628 q 232 417 232 515 l 232 32 q 223 9 232 18 q 200 0 214 0 l 136 0 m 143 811 q 126 819 132 811 q 122 840 119 828 l 147 1003 q 186 1043 153 1043 l 271 1043 q 287 1036 281 1043 q 293 1019 293 1029 q 288 997 293 1008 l 229 843 q 214 819 222 826 q 189 811 206 811 l 143 811 z "},"ň":{"ha":839,"x_min":104,"x_max":742,"o":"m 136 0 q 113 9 122 0 q 104 32 104 18 l 104 690 q 113 713 104 704 q 136 722 122 722 l 196 722 q 219 714 211 722 q 228 690 228 706 l 228 629 q 324 708 269 681 q 461 736 379 736 q 668 651 594 736 q 742 425 742 565 l 742 32 q 733 9 742 18 q 710 0 724 0 l 646 0 q 623 9 632 0 q 614 32 614 18 l 614 417 q 565 572 614 517 q 426 628 517 628 q 285 572 338 628 q 232 417 232 515 l 232 32 q 223 9 232 18 q 200 0 214 0 l 136 0 m 403 826 q 380 830 389 826 q 357 847 371 833 l 231 974 q 215 1000 215 988 q 235 1017 215 1017 l 269 1017 q 308 1007 292 1017 l 422 928 l 536 1007 q 574 1017 550 1017 l 608 1017 q 629 1000 629 1017 q 614 974 629 989 l 488 847 q 465 830 474 833 q 442 826 456 826 l 403 826 z "},"ņ":{"ha":839,"x_min":104,"x_max":742,"o":"m 136 0 q 113 9 122 0 q 104 32 104 18 l 104 690 q 113 713 104 704 q 136 722 122 722 l 196 722 q 219 714 211 722 q 228 690 228 706 l 228 629 q 324 708 269 681 q 461 736 379 736 q 668 651 594 736 q 742 425 742 565 l 742 32 q 733 9 742 18 q 710 0 724 0 l 646 0 q 623 9 632 0 q 614 32 614 18 l 614 417 q 565 572 614 517 q 426 628 517 628 q 285 572 338 628 q 232 417 232 515 l 232 32 q 223 9 232 18 q 200 0 214 0 l 136 0 m 347 -301 q 330 -293 336 -301 q 326 -272 324 -285 l 351 -110 q 390 -69 357 -69 l 475 -69 q 491 -76 485 -69 q 497 -93 497 -83 q 492 -115 497 -104 l 433 -269 q 418 -294 426 -286 q 393 -301 410 -301 l 347 -301 z "},"ŋ":{"ha":839,"x_min":104,"x_max":742,"o":"m 481 -312 q 458 -303 467 -312 q 450 -281 450 -294 l 450 -231 q 458 -208 450 -217 q 481 -199 467 -199 l 494 -199 q 590 -162 567 -199 q 614 -53 614 -126 l 614 417 q 565 572 614 517 q 426 628 517 628 q 285 572 338 628 q 232 417 232 515 l 232 32 q 223 9 232 18 q 200 0 214 0 l 136 0 q 113 9 122 0 q 104 32 104 18 l 104 690 q 113 713 104 704 q 136 722 122 722 l 196 722 q 219 714 211 722 q 228 690 228 706 l 228 629 q 324 708 269 681 q 461 736 379 736 q 668 651 594 736 q 742 425 742 565 l 742 -56 q 493 -312 742 -312 l 481 -312 z "},"ñ":{"ha":839,"x_min":104,"x_max":742,"o":"m 136 0 q 113 9 122 0 q 104 32 104 18 l 104 690 q 113 713 104 704 q 136 722 122 722 l 196 722 q 219 714 211 722 q 228 690 228 706 l 228 629 q 324 708 269 681 q 461 736 379 736 q 668 651 594 736 q 742 425 742 565 l 742 32 q 733 9 742 18 q 710 0 724 0 l 646 0 q 623 9 632 0 q 614 32 614 18 l 614 417 q 565 572 614 517 q 426 628 517 628 q 285 572 338 628 q 232 417 232 515 l 232 32 q 223 9 232 18 q 200 0 214 0 l 136 0 m 493 819 q 451 826 468 819 q 411 847 435 833 q 386 860 399 854 q 361 867 374 867 q 343 861 350 867 q 329 846 336 856 q 303 826 318 826 l 260 826 q 244 833 250 826 q 238 849 238 840 q 269 932 238 894 q 351 969 300 969 q 393 963 376 969 q 433 942 410 956 q 451 931 436 940 q 483 922 467 922 q 502 928 496 922 q 515 944 508 933 q 528 960 522 956 q 543 964 533 964 l 585 964 q 602 957 596 964 q 608 942 608 950 q 576 858 608 896 q 493 819 544 819 z "},"o":{"ha":794,"x_min":72,"x_max":724,"o":"m 397 -14 q 162 72 244 -14 q 74 301 79 158 l 72 361 l 74 421 q 163 650 79 564 q 397 736 247 736 q 631 650 547 736 q 721 421 715 564 q 724 361 724 390 q 721 301 724 332 q 633 72 715 158 q 397 -14 550 -14 m 397 90 q 538 147 486 90 q 594 308 590 203 q 596 361 596 322 q 594 414 596 400 q 538 576 590 519 q 397 632 486 632 q 256 576 308 632 q 200 414 204 519 l 199 361 l 200 308 q 256 147 204 203 q 397 90 308 90 z "},"ó":{"ha":794,"x_min":72,"x_max":724,"o":"m 397 -14 q 162 72 244 -14 q 74 301 79 158 l 72 361 l 74 421 q 163 650 79 564 q 397 736 247 736 q 631 650 547 736 q 721 421 715 564 q 724 361 724 390 q 721 301 724 332 q 633 72 715 158 q 397 -14 550 -14 m 397 90 q 538 147 486 90 q 594 308 590 203 q 596 361 596 322 q 594 414 596 400 q 538 576 590 519 q 397 632 486 632 q 256 576 308 632 q 200 414 204 519 l 199 361 l 200 308 q 256 147 204 203 q 397 90 308 90 m 358 826 q 336 849 336 826 q 343 867 336 860 l 446 992 q 469 1012 460 1007 q 497 1017 479 1017 l 588 1017 q 614 990 614 1017 q 607 974 614 981 l 447 842 q 426 829 436 832 q 401 826 417 826 l 358 826 z "},"ŏ":{"ha":794,"x_min":72,"x_max":724,"o":"m 397 -14 q 162 72 244 -14 q 74 301 79 158 l 72 361 l 74 421 q 163 650 79 564 q 397 736 247 736 q 631 650 547 736 q 721 421 715 564 q 724 361 724 390 q 721 301 724 332 q 633 72 715 158 q 397 -14 550 -14 m 397 90 q 538 147 486 90 q 594 308 590 203 q 596 361 596 322 q 594 414 596 400 q 538 576 590 519 q 397 632 486 632 q 256 576 308 632 q 200 414 204 519 l 199 361 l 200 308 q 256 147 204 203 q 397 90 308 90 m 397 819 q 270 868 310 819 q 231 990 231 917 q 238 1009 231 1001 q 257 1017 244 1017 l 296 1017 q 315 1009 308 1017 q 322 990 322 1001 q 397 901 322 901 q 472 990 472 901 q 479 1009 472 1001 q 499 1017 486 1017 l 539 1017 q 558 1009 551 1017 q 565 990 565 1001 q 526 868 565 917 q 397 819 486 819 z "},"ô":{"ha":794,"x_min":72,"x_max":724,"o":"m 397 -14 q 162 72 244 -14 q 74 301 79 158 l 72 361 l 74 421 q 163 650 79 564 q 397 736 247 736 q 631 650 547 736 q 721 421 715 564 q 724 361 724 390 q 721 301 724 332 q 633 72 715 158 q 397 -14 550 -14 m 397 90 q 538 147 486 90 q 594 308 590 203 q 596 361 596 322 q 594 414 596 400 q 538 576 590 519 q 397 632 486 632 q 256 576 308 632 q 200 414 204 519 l 199 361 l 200 308 q 256 147 204 203 q 397 90 308 90 m 210 826 q 190 843 190 826 q 206 869 190 856 l 332 996 q 355 1013 346 1010 q 378 1017 364 1017 l 417 1017 q 440 1013 431 1017 q 463 996 449 1010 l 589 869 q 604 843 604 854 q 583 826 604 826 l 549 826 q 511 836 525 826 l 397 915 l 283 836 q 244 826 267 826 l 210 826 z "},"ö":{"ha":794,"x_min":72,"x_max":724,"o":"m 397 -14 q 162 72 244 -14 q 74 301 79 158 l 72 361 l 74 421 q 163 650 79 564 q 397 736 247 736 q 631 650 547 736 q 721 421 715 564 q 724 361 724 390 q 721 301 724 332 q 633 72 715 158 q 397 -14 550 -14 m 397 90 q 538 147 486 90 q 594 308 590 203 q 596 361 596 322 q 594 414 596 400 q 538 576 590 519 q 397 632 486 632 q 256 576 308 632 q 200 414 204 519 l 199 361 l 200 308 q 256 147 204 203 q 397 90 308 90 m 244 864 q 222 872 231 864 q 214 894 214 881 l 214 967 q 222 990 214 981 q 244 999 231 999 l 317 999 q 340 990 331 999 q 349 967 349 981 l 349 894 q 340 872 349 881 q 317 864 331 864 l 244 864 m 476 864 q 454 872 463 864 q 446 894 446 881 l 446 967 q 454 990 446 981 q 476 999 463 999 l 550 999 q 573 990 564 999 q 582 967 582 981 l 582 894 q 573 872 582 881 q 550 864 564 864 l 476 864 z "},"ò":{"ha":794,"x_min":72,"x_max":724,"o":"m 397 -14 q 162 72 244 -14 q 74 301 79 158 l 72 361 l 74 421 q 163 650 79 564 q 397 736 247 736 q 631 650 547 736 q 721 421 715 564 q 724 361 724 390 q 721 301 724 332 q 633 72 715 158 q 397 -14 550 -14 m 397 90 q 538 147 486 90 q 594 308 590 203 q 596 361 596 322 q 594 414 596 400 q 538 576 590 519 q 397 632 486 632 q 256 576 308 632 q 200 414 204 519 l 199 361 l 200 308 q 256 147 204 203 q 397 90 308 90 m 393 826 q 369 829 378 826 q 349 842 360 832 l 188 974 q 181 990 181 981 q 207 1017 181 1017 l 297 1017 q 326 1012 317 1017 q 349 992 336 1007 l 453 867 q 460 849 460 860 q 438 826 460 826 l 393 826 z "},"ő":{"ha":794,"x_min":72,"x_max":724,"o":"m 397 -14 q 162 72 244 -14 q 74 301 79 158 l 72 361 l 74 421 q 163 650 79 564 q 397 736 247 736 q 631 650 547 736 q 721 421 715 564 q 724 361 724 390 q 721 301 724 332 q 633 72 715 158 q 397 -14 550 -14 m 397 90 q 538 147 486 90 q 594 308 590 203 q 596 361 596 322 q 594 414 596 400 q 538 576 590 519 q 397 632 486 632 q 256 576 308 632 q 200 414 204 519 l 199 361 l 200 308 q 256 147 204 203 q 397 90 308 90 m 250 826 q 228 849 228 826 q 235 869 228 856 l 289 990 q 308 1010 296 1004 q 340 1017 319 1017 l 415 1017 q 435 1010 428 1017 q 443 990 443 1003 q 435 972 443 981 l 326 846 q 283 826 310 826 l 250 826 m 475 826 q 453 849 453 826 q 460 869 453 856 l 514 990 q 533 1010 521 1004 q 565 1017 544 1017 l 640 1017 q 660 1010 653 1017 q 668 990 668 1003 q 660 972 668 983 l 550 846 q 508 826 533 826 l 475 826 z "},"ō":{"ha":794,"x_min":72,"x_max":724,"o":"m 397 -14 q 162 72 244 -14 q 74 301 79 158 l 72 361 l 74 421 q 163 650 79 564 q 397 736 247 736 q 631 650 547 736 q 721 421 715 564 q 724 361 724 390 q 721 301 724 332 q 633 72 715 158 q 397 -14 550 -14 m 397 90 q 538 147 486 90 q 594 308 590 203 q 596 361 596 322 q 594 414 596 400 q 538 576 590 519 q 397 632 486 632 q 256 576 308 632 q 200 414 204 519 l 199 361 l 200 308 q 256 147 204 203 q 397 90 308 90 m 246 858 q 224 867 232 858 q 215 889 215 875 l 215 929 q 224 951 215 943 q 246 960 232 960 l 551 960 q 574 951 565 960 q 582 929 582 943 l 582 889 q 574 867 582 875 q 551 858 565 858 l 246 858 z "},"ø":{"ha":842,"x_min":19,"x_max":822,"o":"m 421 -14 q 221 42 296 -14 q 115 190 146 99 l 64 171 q 46 167 54 167 q 26 173 33 167 q 19 192 19 179 l 19 229 q 26 253 19 246 q 50 267 32 260 l 99 285 q 96 361 96 311 q 97 421 96 401 q 181 645 101 554 q 421 736 261 736 q 621 679 546 736 q 725 528 696 622 l 778 549 q 796 553 789 553 q 815 547 808 553 q 822 528 822 540 l 822 489 q 816 467 822 474 q 792 453 810 460 l 744 435 q 747 356 747 393 l 746 301 q 663 76 742 167 q 421 -14 583 -14 m 610 483 q 542 596 593 560 q 421 632 492 632 q 283 581 338 632 q 225 422 229 529 l 224 381 l 225 333 l 610 483 m 421 90 q 560 142 507 90 q 618 303 614 193 q 619 342 619 313 q 618 386 619 374 l 232 236 q 301 126 250 161 q 421 90 351 90 z "},"ǿ":{"ha":842,"x_min":19,"x_max":822,"o":"m 381 826 q 358 849 358 826 q 365 867 358 860 l 468 992 q 492 1012 482 1007 q 519 1017 501 1017 l 610 1017 q 636 990 636 1017 q 629 974 636 981 l 469 842 q 449 829 458 832 q 424 826 439 826 l 381 826 m 421 -14 q 221 42 296 -14 q 115 190 146 99 l 64 171 q 46 167 54 167 q 26 173 33 167 q 19 192 19 179 l 19 229 q 26 253 19 246 q 50 267 32 260 l 99 285 q 96 361 96 311 q 97 421 96 401 q 181 645 101 554 q 421 736 261 736 q 621 679 546 736 q 725 528 696 622 l 778 549 q 796 553 789 553 q 815 547 808 553 q 822 528 822 540 l 822 489 q 816 467 822 474 q 792 453 810 460 l 744 435 q 747 356 747 393 l 746 301 q 663 76 742 167 q 421 -14 583 -14 m 610 483 q 542 596 593 560 q 421 632 492 632 q 283 581 338 632 q 225 422 229 529 l 224 381 l 225 333 l 610 483 m 421 90 q 560 142 507 90 q 618 303 614 193 q 619 342 619 313 q 618 386 619 374 l 232 236 q 301 126 250 161 q 421 90 351 90 z "},"õ":{"ha":794,"x_min":72,"x_max":724,"o":"m 397 -14 q 162 72 244 -14 q 74 301 79 158 l 72 361 l 74 421 q 163 650 79 564 q 397 736 247 736 q 631 650 547 736 q 721 421 715 564 q 724 361 724 390 q 721 301 724 332 q 633 72 715 158 q 397 -14 550 -14 m 397 90 q 538 147 486 90 q 594 308 590 203 q 596 361 596 322 q 594 414 596 400 q 538 576 590 519 q 397 632 486 632 q 256 576 308 632 q 200 414 204 519 l 199 361 l 200 308 q 256 147 204 203 q 397 90 308 90 m 468 819 q 426 826 443 819 q 386 847 410 833 q 361 860 374 854 q 336 867 349 867 q 318 861 325 867 q 304 846 311 856 q 278 826 293 826 l 235 826 q 219 833 225 826 q 213 849 213 840 q 244 932 213 894 q 326 969 275 969 q 368 963 351 969 q 408 942 385 956 q 426 931 411 940 q 458 922 442 922 q 477 928 471 922 q 490 944 483 933 q 503 960 497 956 q 518 964 508 964 l 560 964 q 577 957 571 964 q 583 942 583 950 q 551 858 583 896 q 468 819 519 819 z "},"œ":{"ha":1300,"x_min":74,"x_max":1239,"o":"m 399 -14 q 163 72 246 -14 q 75 301 81 158 q 74 361 74 317 q 75 421 74 406 q 165 650 81 564 q 399 736 249 736 q 557 700 490 736 q 663 599 624 664 q 768 700 703 664 q 918 736 833 736 q 1155 639 1071 736 q 1239 375 1239 542 l 1239 350 q 1230 327 1239 336 q 1207 318 1221 318 l 725 318 l 725 306 q 781 151 729 215 q 917 88 832 88 q 1019 113 979 88 q 1079 167 1058 139 q 1098 187 1092 183 q 1121 190 1104 190 l 1183 190 q 1204 183 1196 190 q 1213 165 1213 176 q 1175 92 1213 135 q 1070 17 1138 49 q 918 -14 1003 -14 q 767 22 833 -14 q 663 122 701 57 q 558 22 624 57 q 399 -14 492 -14 m 1113 413 l 1113 417 q 1060 575 1113 514 q 918 636 1007 636 q 776 575 828 636 q 725 417 725 514 l 725 413 l 1113 413 m 399 90 q 540 147 488 90 q 596 308 592 203 q 597 361 597 322 q 596 414 597 400 q 540 576 592 519 q 399 632 488 632 q 258 576 310 632 q 201 414 206 519 l 200 361 l 201 308 q 258 147 206 203 q 399 90 310 90 z "},"p":{"ha":825,"x_min":106,"x_max":754,"o":"m 138 -264 q 115 -256 124 -264 q 106 -232 106 -247 l 106 690 q 115 714 106 706 q 138 722 124 722 l 196 722 q 219 714 211 722 q 228 690 228 706 l 228 629 q 457 736 308 736 q 676 644 603 736 q 753 408 749 551 q 754 361 754 393 q 753 314 754 329 q 676 79 749 172 q 457 -14 603 -14 q 232 92 308 -14 l 232 -232 q 223 -255 232 -246 q 200 -264 214 -264 l 138 -264 m 431 94 q 576 157 531 94 q 626 321 622 219 q 628 361 628 335 q 431 628 628 628 q 284 563 333 628 q 232 411 235 499 q 231 357 231 396 q 232 303 231 318 q 285 156 235 218 q 431 94 336 94 z "},"þ":{"ha":826,"x_min":106,"x_max":756,"o":"m 138 -264 q 115 -255 124 -264 q 106 -232 106 -246 l 106 954 q 115 977 106 968 q 138 986 124 986 l 200 986 q 223 977 214 986 q 232 954 232 968 l 232 632 q 457 736 308 736 q 676 644 603 736 q 754 408 749 551 q 756 361 756 393 q 754 314 756 329 q 676 79 749 172 q 457 -14 603 -14 q 232 92 308 -14 l 232 -232 q 223 -255 232 -246 q 200 -264 214 -264 l 138 -264 m 431 94 q 576 157 531 94 q 626 321 622 219 q 628 361 628 335 q 431 628 628 628 q 285 564 333 628 q 232 411 236 500 l 231 357 l 232 303 q 285 156 235 218 q 431 94 336 94 z "},"q":{"ha":825,"x_min":71,"x_max":721,"o":"m 626 -264 q 603 -256 613 -264 q 594 -232 594 -247 l 594 92 q 369 -14 515 -14 q 150 79 224 -14 q 72 314 76 172 l 71 361 l 72 408 q 151 644 78 551 q 369 736 224 736 q 597 629 519 736 l 597 690 q 606 713 597 704 q 629 722 615 722 l 689 722 q 712 713 703 722 q 721 690 721 704 l 721 -232 q 712 -255 721 -246 q 689 -264 703 -264 l 626 -264 m 396 94 q 541 156 490 94 q 594 303 592 218 q 596 357 596 318 q 594 411 596 396 q 542 564 590 500 q 396 628 493 628 q 250 565 296 628 q 200 401 204 503 l 199 361 q 396 94 199 94 z "},"r":{"ha":522,"x_min":104,"x_max":507,"o":"m 136 0 q 113 9 122 0 q 104 32 104 18 l 104 689 q 113 713 104 703 q 136 722 122 722 l 194 722 q 219 713 210 722 q 228 689 228 704 l 228 628 q 421 722 285 722 l 475 722 q 499 714 490 722 q 507 690 507 706 l 507 639 q 499 616 507 625 q 475 607 490 607 l 396 607 q 276 563 319 607 q 232 442 232 518 l 232 32 q 222 9 232 18 q 199 0 213 0 l 136 0 z "},"ŕ":{"ha":522,"x_min":104,"x_max":507,"o":"m 136 0 q 113 9 122 0 q 104 32 104 18 l 104 689 q 113 713 104 703 q 136 722 122 722 l 194 722 q 219 713 210 722 q 228 689 228 704 l 228 628 q 421 722 285 722 l 475 722 q 499 714 490 722 q 507 690 507 706 l 507 639 q 499 616 507 625 q 475 607 490 607 l 396 607 q 276 563 319 607 q 232 442 232 518 l 232 32 q 222 9 232 18 q 199 0 213 0 l 136 0 m 250 826 q 228 849 228 826 q 235 867 228 860 l 338 992 q 361 1012 351 1007 q 389 1017 371 1017 l 479 1017 q 506 990 506 1017 q 499 974 506 981 l 339 842 q 318 829 328 832 q 293 826 308 826 l 250 826 z "},"ř":{"ha":522,"x_min":72,"x_max":507,"o":"m 136 0 q 113 9 122 0 q 104 32 104 18 l 104 689 q 113 713 104 703 q 136 722 122 722 l 194 722 q 219 713 210 722 q 228 689 228 704 l 228 628 q 421 722 285 722 l 475 722 q 499 714 490 722 q 507 690 507 706 l 507 639 q 499 616 507 625 q 475 607 490 607 l 396 607 q 276 563 319 607 q 232 442 232 518 l 232 32 q 222 9 232 18 q 199 0 213 0 l 136 0 m 260 826 q 237 830 246 826 q 214 847 228 833 l 88 974 q 72 1000 72 988 q 92 1017 72 1017 l 126 1017 q 165 1007 149 1017 l 279 928 l 393 1007 q 431 1017 407 1017 l 465 1017 q 486 1000 486 1017 q 471 974 486 989 l 344 847 q 322 830 331 833 q 299 826 313 826 l 260 826 z "},"ŗ":{"ha":522,"x_min":56,"x_max":507,"o":"m 136 0 q 113 9 122 0 q 104 32 104 18 l 104 689 q 113 713 104 703 q 136 722 122 722 l 194 722 q 219 713 210 722 q 228 689 228 704 l 228 628 q 421 722 285 722 l 475 722 q 499 714 490 722 q 507 690 507 706 l 507 639 q 499 616 507 625 q 475 607 490 607 l 396 607 q 276 563 319 607 q 232 442 232 518 l 232 32 q 222 9 232 18 q 199 0 213 0 l 136 0 m 76 -301 q 59 -293 65 -301 q 56 -272 53 -285 l 81 -110 q 119 -69 86 -69 l 204 -69 q 220 -76 214 -69 q 226 -93 226 -83 q 221 -115 226 -104 l 163 -269 q 147 -294 156 -286 q 122 -301 139 -301 l 76 -301 z "},"s":{"ha":706,"x_min":60,"x_max":647,"o":"m 351 -14 q 190 17 256 -14 q 92 89 124 49 q 60 156 60 129 q 69 177 60 169 q 90 185 79 185 l 149 185 q 162 182 157 185 q 175 169 167 179 q 247 108 207 131 q 353 86 286 86 q 473 114 428 86 q 518 194 518 142 q 499 250 518 229 q 434 288 479 271 q 300 324 389 304 q 129 400 179 350 q 79 529 79 450 q 110 628 79 581 q 201 706 140 676 q 344 736 261 736 q 494 707 432 736 q 587 639 556 678 q 618 574 618 600 q 609 553 618 561 q 588 544 600 544 l 535 544 q 507 560 515 544 q 467 601 483 586 q 421 626 451 615 q 344 636 390 636 q 240 608 276 636 q 204 532 204 579 q 219 483 204 503 q 278 445 235 463 q 406 410 321 428 q 592 331 538 382 q 647 199 647 279 q 613 90 647 139 q 512 14 579 42 q 351 -14 444 -14 z "},"ś":{"ha":706,"x_min":60,"x_max":647,"o":"m 351 -14 q 190 17 256 -14 q 92 89 124 49 q 60 156 60 129 q 69 177 60 169 q 90 185 79 185 l 149 185 q 162 182 157 185 q 175 169 167 179 q 247 108 207 131 q 353 86 286 86 q 473 114 428 86 q 518 194 518 142 q 499 250 518 229 q 434 288 479 271 q 300 324 389 304 q 129 400 179 350 q 79 529 79 450 q 110 628 79 581 q 201 706 140 676 q 344 736 261 736 q 494 707 432 736 q 587 639 556 678 q 618 574 618 600 q 609 553 618 561 q 588 544 600 544 l 535 544 q 507 560 515 544 q 467 601 483 586 q 421 626 451 615 q 344 636 390 636 q 240 608 276 636 q 204 532 204 579 q 219 483 204 503 q 278 445 235 463 q 406 410 321 428 q 592 331 538 382 q 647 199 647 279 q 613 90 647 139 q 512 14 579 42 q 351 -14 444 -14 m 303 826 q 281 849 281 826 q 288 867 281 860 l 390 992 q 414 1012 404 1007 q 442 1017 424 1017 l 532 1017 q 558 990 558 1017 q 551 974 558 981 l 392 842 q 371 829 381 832 q 346 826 361 826 l 303 826 z "},"š":{"ha":706,"x_min":60,"x_max":647,"o":"m 351 -14 q 190 17 256 -14 q 92 89 124 49 q 60 156 60 129 q 69 177 60 169 q 90 185 79 185 l 149 185 q 162 182 157 185 q 175 169 167 179 q 247 108 207 131 q 353 86 286 86 q 473 114 428 86 q 518 194 518 142 q 499 250 518 229 q 434 288 479 271 q 300 324 389 304 q 129 400 179 350 q 79 529 79 450 q 110 628 79 581 q 201 706 140 676 q 344 736 261 736 q 494 707 432 736 q 587 639 556 678 q 618 574 618 600 q 609 553 618 561 q 588 544 600 544 l 535 544 q 507 560 515 544 q 467 601 483 586 q 421 626 451 615 q 344 636 390 636 q 240 608 276 636 q 204 532 204 579 q 219 483 204 503 q 278 445 235 463 q 406 410 321 428 q 592 331 538 382 q 647 199 647 279 q 613 90 647 139 q 512 14 579 42 q 351 -14 444 -14 m 333 826 q 310 830 319 826 q 288 847 301 833 l 161 974 q 146 1000 146 988 q 165 1017 146 1017 l 200 1017 q 239 1007 222 1017 l 353 928 l 467 1007 q 504 1017 481 1017 l 539 1017 q 560 1000 560 1017 q 544 974 560 989 l 418 847 q 395 830 404 833 q 372 826 386 826 l 333 826 z "},"ş":{"ha":706,"x_min":60,"x_max":647,"o":"m 351 -306 q 267 -286 303 -306 q 231 -247 231 -267 q 236 -235 231 -240 l 257 -215 q 269 -210 263 -210 q 289 -218 275 -210 q 315 -232 303 -226 q 349 -237 328 -237 q 388 -223 372 -237 q 404 -185 404 -208 q 388 -149 404 -162 q 349 -136 372 -136 q 312 -142 332 -136 q 285 -149 292 -149 q 267 -140 274 -149 l 243 -115 q 239 -103 239 -110 q 249 -74 239 -96 l 278 -7 q 158 34 207 4 q 84 99 108 64 q 60 156 60 133 q 69 177 60 169 q 90 185 79 185 l 146 185 q 160 182 156 185 q 174 169 165 179 q 248 108 210 129 q 353 86 286 86 q 473 114 428 86 q 518 194 518 142 q 499 250 518 229 q 434 288 479 271 q 300 324 389 304 q 129 400 179 350 q 79 529 79 450 q 110 628 79 581 q 201 706 140 676 q 344 736 261 736 q 494 707 432 736 q 587 639 556 678 q 618 574 618 600 q 609 553 618 561 q 588 544 600 544 l 533 544 q 507 560 515 544 q 467 601 483 586 q 421 626 451 615 q 344 636 390 636 q 240 608 276 636 q 204 532 204 579 q 219 483 204 503 q 278 445 235 463 q 406 410 321 428 q 592 331 538 382 q 647 199 647 279 q 613 91 647 139 q 513 15 579 43 q 353 -14 446 -14 l 322 -78 q 374 -67 340 -67 q 451 -99 421 -67 q 481 -183 481 -132 q 447 -271 481 -236 q 351 -306 413 -306 z "},"ŝ":{"ha":706,"x_min":60,"x_max":647,"o":"m 351 -14 q 190 17 256 -14 q 92 89 124 49 q 60 156 60 129 q 69 177 60 169 q 90 185 79 185 l 149 185 q 162 182 157 185 q 175 169 167 179 q 247 108 207 131 q 353 86 286 86 q 473 114 428 86 q 518 194 518 142 q 499 250 518 229 q 434 288 479 271 q 300 324 389 304 q 129 400 179 350 q 79 529 79 450 q 110 628 79 581 q 201 706 140 676 q 344 736 261 736 q 494 707 432 736 q 587 639 556 678 q 618 574 618 600 q 609 553 618 561 q 588 544 600 544 l 535 544 q 507 560 515 544 q 467 601 483 586 q 421 626 451 615 q 344 636 390 636 q 240 608 276 636 q 204 532 204 579 q 219 483 204 503 q 278 445 235 463 q 406 410 321 428 q 592 331 538 382 q 647 199 647 279 q 613 90 647 139 q 512 14 579 42 q 351 -14 444 -14 m 165 826 q 146 843 146 826 q 161 869 146 856 l 288 996 q 310 1013 301 1010 q 333 1017 319 1017 l 372 1017 q 395 1013 386 1017 q 418 996 404 1010 l 544 869 q 560 843 560 854 q 539 826 560 826 l 504 826 q 467 836 481 826 l 353 915 l 239 836 q 200 826 222 826 l 165 826 z "},"ș":{"ha":706,"x_min":60,"x_max":647,"o":"m 351 -14 q 190 17 256 -14 q 92 89 124 49 q 60 156 60 129 q 69 177 60 169 q 90 185 79 185 l 149 185 q 162 182 157 185 q 175 169 167 179 q 247 108 207 131 q 353 86 286 86 q 473 114 428 86 q 518 194 518 142 q 499 250 518 229 q 434 288 479 271 q 300 324 389 304 q 129 400 179 350 q 79 529 79 450 q 110 628 79 581 q 201 706 140 676 q 344 736 261 736 q 494 707 432 736 q 587 639 556 678 q 618 574 618 600 q 609 553 618 561 q 588 544 600 544 l 535 544 q 507 560 515 544 q 467 601 483 586 q 421 626 451 615 q 344 636 390 636 q 240 608 276 636 q 204 532 204 579 q 219 483 204 503 q 278 445 235 463 q 406 410 321 428 q 592 331 538 382 q 647 199 647 279 q 613 90 647 139 q 512 14 579 42 q 351 -14 444 -14 m 272 -301 q 255 -293 261 -301 q 251 -272 249 -285 l 276 -110 q 315 -69 282 -69 l 400 -69 q 416 -76 410 -69 q 422 -93 422 -83 q 417 -115 422 -104 l 358 -269 q 343 -294 351 -286 q 318 -301 335 -301 l 272 -301 z "},"ß":{"ha":815,"x_min":106,"x_max":749,"o":"m 138 0 q 115 9 124 0 q 106 32 106 18 l 106 686 q 180 901 106 817 q 407 986 254 986 q 577 949 510 986 q 676 852 644 911 q 708 728 708 793 q 674 599 708 650 q 590 524 639 549 q 749 283 749 469 q 715 150 749 215 q 611 42 682 85 q 435 0 540 0 l 339 0 q 315 9 325 0 q 306 32 306 18 l 306 75 q 315 98 306 89 q 339 106 325 107 l 415 106 q 567 157 513 106 q 621 286 621 208 q 567 417 621 367 q 414 468 514 468 l 339 468 q 315 476 324 468 q 306 500 306 485 l 306 539 q 315 562 306 553 q 339 571 324 571 l 403 571 q 586 725 586 572 q 537 837 586 793 q 407 881 488 881 q 277 830 325 881 q 229 682 229 779 l 229 32 q 221 9 229 18 q 199 0 213 0 l 138 0 z "},"ſ":{"ha":404,"x_min":26,"x_max":525,"o":"m 208 0 q 185 9 194 0 q 176 32 176 18 l 176 615 l 57 615 q 35 624 43 615 q 26 646 26 632 l 26 690 q 35 713 26 704 q 57 722 43 722 l 176 722 l 176 786 q 231 965 176 903 q 411 1028 286 1028 l 493 1028 q 516 1019 507 1028 q 525 996 525 1010 l 525 951 q 516 929 525 938 q 493 921 507 921 l 414 921 q 323 886 346 921 q 300 785 300 851 l 300 32 q 291 9 300 18 q 268 0 282 0 l 208 0 z "},"t":{"ha":539,"x_min":26,"x_max":507,"o":"m 382 0 q 167 243 167 0 l 167 615 l 57 615 q 35 624 43 615 q 26 646 26 632 l 26 690 q 35 713 26 704 q 57 722 43 722 l 167 722 l 167 954 q 175 977 167 968 q 197 986 183 986 l 258 986 q 281 977 272 986 q 290 954 290 968 l 290 722 l 463 722 q 485 713 476 722 q 494 690 494 704 l 494 646 q 485 624 494 632 q 463 615 476 615 l 290 615 l 290 253 q 313 146 290 182 q 392 110 336 110 l 476 110 q 499 101 490 110 q 507 78 507 92 l 507 32 q 499 9 507 18 q 476 0 490 0 l 382 0 z "},"ŧ":{"ha":549,"x_min":32,"x_max":514,"o":"m 388 0 q 172 243 172 0 l 172 414 l 64 414 q 41 422 50 414 q 32 444 32 431 l 32 474 q 41 496 32 488 q 64 504 50 504 l 172 504 l 172 631 l 64 631 q 41 640 50 631 q 32 663 32 649 l 32 690 q 41 714 32 706 q 64 722 50 722 l 172 722 l 172 954 q 181 978 172 969 q 204 986 190 986 l 264 986 q 287 977 278 986 q 296 954 296 968 l 296 722 l 468 722 q 492 714 483 722 q 500 690 500 706 l 500 663 q 491 640 500 649 q 468 631 482 631 l 296 631 l 296 504 l 468 504 q 491 496 482 504 q 500 474 500 488 l 500 444 q 491 422 500 431 q 468 414 482 414 l 296 414 l 296 253 q 319 146 296 182 q 399 110 343 110 l 482 110 q 505 101 496 110 q 514 78 514 92 l 514 32 q 505 9 514 18 q 482 0 496 0 l 388 0 z "},"ť":{"ha":497,"x_min":26,"x_max":579,"o":"m 382 0 q 167 243 167 0 l 167 615 l 57 615 q 35 624 43 615 q 26 646 26 632 l 26 690 q 35 713 26 704 q 57 722 43 722 l 167 722 l 167 954 q 175 977 167 968 q 197 986 183 986 l 258 986 q 281 977 272 986 q 290 954 290 968 l 290 722 l 463 722 q 485 713 476 722 q 494 690 494 704 l 494 646 q 485 624 494 632 q 463 615 476 615 l 290 615 l 290 253 q 313 146 290 182 q 392 110 336 110 l 476 110 q 499 101 490 110 q 507 78 507 92 l 507 32 q 499 9 507 18 q 476 0 490 0 l 382 0 m 429 847 q 412 856 418 847 q 408 876 406 864 l 433 1039 q 472 1079 439 1079 l 557 1079 q 573 1072 567 1079 q 579 1056 579 1065 q 574 1033 579 1044 l 515 879 q 500 855 508 863 q 475 847 492 847 l 429 847 z "},"ț":{"ha":539,"x_min":26,"x_max":507,"o":"m 382 0 q 167 243 167 0 l 167 615 l 57 615 q 35 624 43 615 q 26 646 26 632 l 26 690 q 35 713 26 704 q 57 722 43 722 l 167 722 l 167 954 q 175 977 167 968 q 197 986 183 986 l 258 986 q 281 977 272 986 q 290 954 290 968 l 290 722 l 463 722 q 485 713 476 722 q 494 690 494 704 l 494 646 q 485 624 494 632 q 463 615 476 615 l 290 615 l 290 253 q 313 146 290 182 q 392 110 336 110 l 476 110 q 499 101 490 110 q 507 78 507 92 l 507 32 q 499 9 507 18 q 476 0 490 0 l 382 0 m 169 -301 q 152 -293 158 -301 q 149 -272 146 -285 l 174 -110 q 213 -69 179 -69 l 297 -69 q 313 -76 307 -69 q 319 -93 319 -83 q 314 -115 319 -104 l 256 -269 q 240 -294 249 -286 q 215 -301 232 -301 l 169 -301 z "},"u":{"ha":833,"x_min":97,"x_max":729,"o":"m 374 -14 q 169 72 242 -14 q 97 299 97 157 l 97 690 q 106 713 97 704 q 129 722 115 722 l 193 722 q 216 713 207 722 q 225 690 225 704 l 225 306 q 408 94 225 94 q 549 151 497 94 q 601 306 601 207 l 601 690 q 610 713 601 704 q 633 722 619 722 l 697 722 q 720 713 711 722 q 729 690 729 704 l 729 32 q 720 9 729 18 q 697 0 711 0 l 638 0 q 615 9 624 0 q 606 32 606 18 l 606 94 q 511 13 565 40 q 374 -14 457 -14 z "},"ú":{"ha":833,"x_min":97,"x_max":729,"o":"m 374 -14 q 169 72 242 -14 q 97 299 97 157 l 97 690 q 106 713 97 704 q 129 722 115 722 l 193 722 q 216 713 207 722 q 225 690 225 704 l 225 306 q 408 94 225 94 q 549 151 497 94 q 601 306 601 207 l 601 690 q 610 713 601 704 q 633 722 619 722 l 697 722 q 720 713 711 722 q 729 690 729 704 l 729 32 q 720 9 729 18 q 697 0 711 0 l 638 0 q 615 9 624 0 q 606 32 606 18 l 606 94 q 511 13 565 40 q 374 -14 457 -14 m 374 826 q 351 849 351 826 q 358 867 351 860 l 461 992 q 485 1012 475 1007 q 513 1017 494 1017 l 603 1017 q 629 990 629 1017 q 622 974 629 981 l 463 842 q 442 829 451 832 q 417 826 432 826 l 374 826 z "},"ŭ":{"ha":833,"x_min":97,"x_max":729,"o":"m 374 -14 q 169 72 242 -14 q 97 299 97 157 l 97 690 q 106 713 97 704 q 129 722 115 722 l 193 722 q 216 713 207 722 q 225 690 225 704 l 225 306 q 408 94 225 94 q 549 151 497 94 q 601 306 601 207 l 601 690 q 610 713 601 704 q 633 722 619 722 l 697 722 q 720 713 711 722 q 729 690 729 704 l 729 32 q 720 9 729 18 q 697 0 711 0 l 638 0 q 615 9 624 0 q 606 32 606 18 l 606 94 q 511 13 565 40 q 374 -14 457 -14 m 413 819 q 285 868 325 819 q 246 990 246 917 q 253 1009 246 1001 q 272 1017 260 1017 l 311 1017 q 331 1009 324 1017 q 338 990 338 1001 q 413 901 338 901 q 488 990 488 901 q 494 1009 488 1001 q 514 1017 501 1017 l 554 1017 q 574 1009 567 1017 q 581 990 581 1001 q 541 868 581 917 q 413 819 501 819 z "},"û":{"ha":833,"x_min":97,"x_max":729,"o":"m 374 -14 q 169 72 242 -14 q 97 299 97 157 l 97 690 q 106 713 97 704 q 129 722 115 722 l 193 722 q 216 713 207 722 q 225 690 225 704 l 225 306 q 408 94 225 94 q 549 151 497 94 q 601 306 601 207 l 601 690 q 610 713 601 704 q 633 722 619 722 l 697 722 q 720 713 711 722 q 729 690 729 704 l 729 32 q 720 9 729 18 q 697 0 711 0 l 638 0 q 615 9 624 0 q 606 32 606 18 l 606 94 q 511 13 565 40 q 374 -14 457 -14 m 226 826 q 207 843 207 826 q 222 869 207 856 l 349 996 q 372 1013 363 1010 q 394 1017 381 1017 l 433 1017 q 456 1013 447 1017 q 479 996 465 1010 l 606 869 q 621 843 621 854 q 600 826 621 826 l 565 826 q 528 836 542 826 l 414 915 l 300 836 q 261 826 283 826 l 226 826 z "},"ü":{"ha":833,"x_min":97,"x_max":729,"o":"m 374 -14 q 169 72 242 -14 q 97 299 97 157 l 97 690 q 106 713 97 704 q 129 722 115 722 l 193 722 q 216 713 207 722 q 225 690 225 704 l 225 306 q 408 94 225 94 q 549 151 497 94 q 601 306 601 207 l 601 690 q 610 713 601 704 q 633 722 619 722 l 697 722 q 720 713 711 722 q 729 690 729 704 l 729 32 q 720 9 729 18 q 697 0 711 0 l 638 0 q 615 9 624 0 q 606 32 606 18 l 606 94 q 511 13 565 40 q 374 -14 457 -14 m 260 864 q 238 872 246 864 q 229 894 229 881 l 229 967 q 238 990 229 981 q 260 999 246 999 l 332 999 q 355 990 346 999 q 364 967 364 981 l 364 894 q 355 872 364 881 q 332 864 346 864 l 260 864 m 492 864 q 469 872 478 864 q 461 894 461 881 l 461 967 q 469 990 461 981 q 492 999 478 999 l 565 999 q 588 990 579 999 q 597 967 597 981 l 597 894 q 588 872 597 881 q 565 864 579 864 l 492 864 z "},"ù":{"ha":833,"x_min":97,"x_max":729,"o":"m 374 -14 q 169 72 242 -14 q 97 299 97 157 l 97 690 q 106 713 97 704 q 129 722 115 722 l 193 722 q 216 713 207 722 q 225 690 225 704 l 225 306 q 408 94 225 94 q 549 151 497 94 q 601 306 601 207 l 601 690 q 610 713 601 704 q 633 722 619 722 l 697 722 q 720 713 711 722 q 729 690 729 704 l 729 32 q 720 9 729 18 q 697 0 711 0 l 638 0 q 615 9 624 0 q 606 32 606 18 l 606 94 q 511 13 565 40 q 374 -14 457 -14 m 408 826 q 384 829 393 826 q 364 842 375 832 l 203 974 q 196 990 196 981 q 222 1017 196 1017 l 313 1017 q 342 1012 332 1017 q 364 992 351 1007 l 468 867 q 475 849 475 860 q 453 826 475 826 l 408 826 z "},"ű":{"ha":833,"x_min":97,"x_max":729,"o":"m 374 -14 q 169 72 242 -14 q 97 299 97 157 l 97 690 q 106 713 97 704 q 129 722 115 722 l 193 722 q 216 713 207 722 q 225 690 225 704 l 225 306 q 408 94 225 94 q 549 151 497 94 q 601 306 601 207 l 601 690 q 610 713 601 704 q 633 722 619 722 l 697 722 q 720 713 711 722 q 729 690 729 704 l 729 32 q 720 9 729 18 q 697 0 711 0 l 638 0 q 615 9 624 0 q 606 32 606 18 l 606 94 q 511 13 565 40 q 374 -14 457 -14 m 256 826 q 233 849 233 826 q 240 869 233 856 l 294 990 q 313 1010 301 1004 q 346 1017 325 1017 l 421 1017 q 441 1010 433 1017 q 449 990 449 1003 q 440 972 449 981 l 332 846 q 289 826 315 826 l 256 826 m 481 826 q 458 849 458 826 q 465 869 458 856 l 519 990 q 538 1010 526 1004 q 571 1017 550 1017 l 646 1017 q 666 1010 658 1017 q 674 990 674 1003 q 665 972 674 983 l 556 846 q 514 826 539 826 l 481 826 z "},"ū":{"ha":833,"x_min":97,"x_max":729,"o":"m 374 -14 q 169 72 242 -14 q 97 299 97 157 l 97 690 q 106 713 97 704 q 129 722 115 722 l 193 722 q 216 713 207 722 q 225 690 225 704 l 225 306 q 408 94 225 94 q 549 151 497 94 q 601 306 601 207 l 601 690 q 610 713 601 704 q 633 722 619 722 l 697 722 q 720 713 711 722 q 729 690 729 704 l 729 32 q 720 9 729 18 q 697 0 711 0 l 638 0 q 615 9 624 0 q 606 32 606 18 l 606 94 q 511 13 565 40 q 374 -14 457 -14 m 261 858 q 239 867 247 858 q 231 889 231 875 l 231 929 q 239 951 231 943 q 261 960 247 960 l 567 960 q 589 951 581 960 q 597 929 597 943 l 597 889 q 589 867 597 875 q 567 858 581 858 l 261 858 z "},"ų":{"ha":833,"x_min":97,"x_max":729,"o":"m 683 -306 q 561 -255 608 -306 q 514 -115 514 -204 q 543 -21 514 -62 q 610 40 572 21 q 606 56 606 47 l 606 94 q 511 13 565 40 q 374 -14 457 -14 q 169 72 242 -14 q 97 299 97 157 l 97 690 q 106 713 97 704 q 129 722 115 722 l 193 722 q 216 713 207 722 q 225 690 225 704 l 225 306 q 408 94 225 94 q 549 151 497 94 q 601 306 601 207 l 601 690 q 610 713 601 704 q 633 722 619 722 l 697 722 q 720 713 711 722 q 729 690 729 704 l 729 32 q 704 0 729 10 l 697 -3 q 633 -46 653 -19 q 613 -115 613 -72 q 632 -187 613 -162 q 689 -211 651 -211 l 697 -211 q 720 -220 711 -211 q 729 -243 729 -229 l 729 -274 q 720 -297 729 -287 q 697 -306 711 -306 l 683 -306 z "},"ů":{"ha":833,"x_min":97,"x_max":729,"o":"m 374 -14 q 169 72 242 -14 q 97 299 97 157 l 97 690 q 106 713 97 704 q 129 722 115 722 l 193 722 q 216 713 207 722 q 225 690 225 704 l 225 306 q 408 94 225 94 q 549 151 497 94 q 601 306 601 207 l 601 690 q 610 713 601 704 q 633 722 619 722 l 697 722 q 720 713 711 722 q 729 690 729 704 l 729 32 q 720 9 729 18 q 697 0 711 0 l 638 0 q 615 9 624 0 q 606 32 606 18 l 606 94 q 511 13 565 40 q 374 -14 457 -14 m 413 819 q 331 851 364 819 q 297 928 297 882 q 331 1006 297 975 q 413 1038 364 1038 q 494 1006 461 1038 q 528 928 528 975 q 494 851 528 882 q 413 819 461 819 m 413 886 q 442 898 431 886 q 454 928 454 910 q 442 958 454 946 q 413 969 431 969 q 383 958 394 969 q 371 928 371 946 q 383 898 371 910 q 413 886 394 886 z "},"ũ":{"ha":833,"x_min":97,"x_max":729,"o":"m 374 -14 q 169 72 242 -14 q 97 299 97 157 l 97 690 q 106 713 97 704 q 129 722 115 722 l 193 722 q 216 713 207 722 q 225 690 225 704 l 225 306 q 408 94 225 94 q 549 151 497 94 q 601 306 601 207 l 601 690 q 610 713 601 704 q 633 722 619 722 l 697 722 q 720 713 711 722 q 729 690 729 704 l 729 32 q 720 9 729 18 q 697 0 711 0 l 638 0 q 615 9 624 0 q 606 32 606 18 l 606 94 q 511 13 565 40 q 374 -14 457 -14 m 485 819 q 443 826 460 819 q 403 847 426 833 q 378 860 390 854 q 353 867 365 867 q 335 861 342 867 q 321 846 328 856 q 294 826 310 826 l 251 826 q 235 833 242 826 q 229 849 229 840 q 260 932 229 894 q 343 969 292 969 q 385 963 368 969 q 425 942 401 956 q 443 931 428 940 q 475 922 458 922 q 494 928 488 922 q 507 944 500 933 q 519 960 514 956 q 535 964 525 964 l 576 964 q 594 957 588 964 q 600 942 600 950 q 568 858 600 896 q 485 819 536 819 z "},"v":{"ha":767,"x_min":44,"x_max":722,"o":"m 356 0 q 304 35 319 0 l 46 679 q 44 693 44 683 q 53 714 44 706 q 72 722 61 722 l 136 722 q 169 700 158 722 l 383 146 l 597 700 q 609 715 600 708 q 631 722 618 722 l 694 722 q 714 714 706 722 q 722 693 722 706 l 719 679 l 463 35 q 411 0 447 0 l 356 0 z "},"w":{"ha":1111,"x_min":51,"x_max":1060,"o":"m 296 0 q 267 8 276 0 q 251 35 257 17 l 54 679 l 51 693 q 60 714 51 706 q 81 722 68 722 l 138 722 q 160 715 151 722 q 171 700 169 707 l 328 169 l 494 693 q 507 713 497 704 q 533 722 517 722 l 578 722 q 604 713 594 722 q 617 693 614 704 l 783 169 l 940 700 q 951 715 942 707 q 974 722 960 722 l 1031 722 q 1051 714 1043 722 q 1060 693 1060 706 l 1057 679 l 860 35 q 844 8 854 17 q 815 0 835 0 l 765 0 q 718 35 729 0 l 556 538 l 393 35 q 346 0 382 0 l 296 0 z "},"ẃ":{"ha":1111,"x_min":51,"x_max":1060,"o":"m 296 0 q 267 8 276 0 q 251 35 257 17 l 54 679 l 51 693 q 60 714 51 706 q 81 722 68 722 l 138 722 q 160 715 151 722 q 171 700 169 707 l 328 169 l 494 693 q 507 713 497 704 q 533 722 517 722 l 578 722 q 604 713 594 722 q 617 693 614 704 l 783 169 l 940 700 q 951 715 942 707 q 974 722 960 722 l 1031 722 q 1051 714 1043 722 q 1060 693 1060 706 l 1057 679 l 860 35 q 844 8 854 17 q 815 0 835 0 l 765 0 q 718 35 729 0 l 556 538 l 393 35 q 346 0 382 0 l 296 0 m 519 826 q 497 849 497 826 q 504 867 497 860 l 607 992 q 631 1012 621 1007 q 658 1017 640 1017 l 749 1017 q 775 990 775 1017 q 768 974 775 981 l 608 842 q 588 829 597 832 q 563 826 578 826 l 519 826 z "},"ŵ":{"ha":1111,"x_min":51,"x_max":1060,"o":"m 296 0 q 267 8 276 0 q 251 35 257 17 l 54 679 l 51 693 q 60 714 51 706 q 81 722 68 722 l 138 722 q 160 715 151 722 q 171 700 169 707 l 328 169 l 494 693 q 507 713 497 704 q 533 722 517 722 l 578 722 q 604 713 594 722 q 617 693 614 704 l 783 169 l 940 700 q 951 715 942 707 q 974 722 960 722 l 1031 722 q 1051 714 1043 722 q 1060 693 1060 706 l 1057 679 l 860 35 q 844 8 854 17 q 815 0 835 0 l 765 0 q 718 35 729 0 l 556 538 l 393 35 q 346 0 382 0 l 296 0 m 368 826 q 349 843 349 826 q 364 869 349 856 l 490 996 q 513 1013 504 1010 q 536 1017 522 1017 l 575 1017 q 598 1013 589 1017 q 621 996 607 1010 l 747 869 q 763 843 763 854 q 742 826 763 826 l 707 826 q 669 836 683 826 l 556 915 l 442 836 q 403 826 425 826 l 368 826 z "},"ẅ":{"ha":1111,"x_min":51,"x_max":1060,"o":"m 296 0 q 267 8 276 0 q 251 35 257 17 l 54 679 l 51 693 q 60 714 51 706 q 81 722 68 722 l 138 722 q 160 715 151 722 q 171 700 169 707 l 328 169 l 494 693 q 507 713 497 704 q 533 722 517 722 l 578 722 q 604 713 594 722 q 617 693 614 704 l 783 169 l 940 700 q 951 715 942 707 q 974 722 960 722 l 1031 722 q 1051 714 1043 722 q 1060 693 1060 706 l 1057 679 l 860 35 q 844 8 854 17 q 815 0 835 0 l 765 0 q 718 35 729 0 l 556 538 l 393 35 q 346 0 382 0 l 296 0 m 403 864 q 381 872 389 864 q 372 894 372 881 l 372 967 q 381 990 372 981 q 403 999 389 999 l 475 999 q 498 990 489 999 q 507 967 507 981 l 507 894 q 498 872 507 881 q 475 864 489 864 l 403 864 m 635 864 q 613 872 621 864 q 604 894 604 881 l 604 967 q 613 990 604 981 q 635 999 621 999 l 708 999 q 731 990 722 999 q 740 967 740 981 l 740 894 q 731 872 740 881 q 708 864 722 864 l 635 864 z "},"ẁ":{"ha":1111,"x_min":51,"x_max":1060,"o":"m 296 0 q 267 8 276 0 q 251 35 257 17 l 54 679 l 51 693 q 60 714 51 706 q 81 722 68 722 l 138 722 q 160 715 151 722 q 171 700 169 707 l 328 169 l 494 693 q 507 713 497 704 q 533 722 517 722 l 578 722 q 604 713 594 722 q 617 693 614 704 l 783 169 l 940 700 q 951 715 942 707 q 974 722 960 722 l 1031 722 q 1051 714 1043 722 q 1060 693 1060 706 l 1057 679 l 860 35 q 844 8 854 17 q 815 0 835 0 l 765 0 q 718 35 729 0 l 556 538 l 393 35 q 346 0 382 0 l 296 0 m 549 826 q 524 829 533 826 q 504 842 515 832 l 343 974 q 336 990 336 981 q 363 1017 336 1017 l 453 1017 q 482 1012 472 1017 q 504 992 492 1007 l 608 867 q 615 849 615 860 q 593 826 615 826 l 549 826 z "},"x":{"ha":746,"x_min":42,"x_max":703,"o":"m 71 0 q 50 8 58 0 q 42 29 42 17 q 51 56 42 42 l 293 369 l 67 668 q 56 693 56 683 q 65 714 56 706 q 85 722 74 722 l 151 722 q 188 700 172 722 l 375 457 l 563 700 q 578 717 571 711 q 599 722 586 722 l 663 722 q 682 714 674 722 q 690 694 690 706 q 681 668 690 681 l 451 367 l 693 56 q 703 29 703 42 q 694 8 703 17 q 674 0 686 0 l 606 0 q 569 21 585 0 l 371 278 l 172 21 q 156 6 164 11 q 136 0 149 0 l 71 0 z "},"y":{"ha":763,"x_min":43,"x_max":726,"o":"m 231 -264 q 210 -256 218 -264 q 201 -236 201 -247 q 208 -211 201 -232 l 317 43 l 51 669 q 43 693 43 686 q 53 714 44 706 q 72 722 61 722 l 136 722 q 169 700 158 722 l 383 189 l 603 700 q 636 722 614 722 l 699 722 q 718 714 710 722 q 726 694 726 706 q 719 669 726 685 l 326 -242 q 312 -258 319 -253 q 292 -264 304 -264 l 231 -264 z "},"ý":{"ha":763,"x_min":43,"x_max":726,"o":"m 231 -264 q 210 -256 218 -264 q 201 -236 201 -247 q 208 -211 201 -232 l 317 43 l 51 669 q 43 693 43 686 q 53 714 44 706 q 72 722 61 722 l 136 722 q 169 700 158 722 l 383 189 l 603 700 q 636 722 614 722 l 699 722 q 718 714 710 722 q 726 694 726 706 q 719 669 726 685 l 326 -242 q 312 -258 319 -253 q 292 -264 304 -264 l 231 -264 m 346 826 q 324 849 324 826 q 331 867 324 860 l 433 992 q 457 1012 447 1007 q 485 1017 467 1017 l 575 1017 q 601 990 601 1017 q 594 974 601 981 l 435 842 q 414 829 424 832 q 389 826 404 826 l 346 826 z "},"ŷ":{"ha":763,"x_min":43,"x_max":726,"o":"m 231 -264 q 210 -256 218 -264 q 201 -236 201 -247 q 208 -211 201 -232 l 317 43 l 51 669 q 43 693 43 686 q 53 714 44 706 q 72 722 61 722 l 136 722 q 169 700 158 722 l 383 189 l 603 700 q 636 722 614 722 l 699 722 q 718 714 710 722 q 726 694 726 706 q 719 669 726 685 l 326 -242 q 312 -258 319 -253 q 292 -264 304 -264 l 231 -264 m 196 826 q 176 843 176 826 q 192 869 176 856 l 318 996 q 341 1013 332 1010 q 364 1017 350 1017 l 403 1017 q 426 1013 417 1017 q 449 996 435 1010 l 575 869 q 590 843 590 854 q 569 826 590 826 l 535 826 q 497 836 511 826 l 383 915 l 269 836 q 231 826 253 826 l 196 826 z "},"ÿ":{"ha":763,"x_min":43,"x_max":726,"o":"m 231 -264 q 210 -256 218 -264 q 201 -236 201 -247 q 208 -211 201 -232 l 317 43 l 51 669 q 43 693 43 686 q 53 714 44 706 q 72 722 61 722 l 136 722 q 169 700 158 722 l 383 189 l 603 700 q 636 722 614 722 l 699 722 q 718 714 710 722 q 726 694 726 706 q 719 669 726 685 l 326 -242 q 312 -258 319 -253 q 292 -264 304 -264 l 231 -264 m 231 864 q 208 872 217 864 q 200 894 200 881 l 200 967 q 208 990 200 981 q 231 999 217 999 l 303 999 q 326 990 317 999 q 335 967 335 981 l 335 894 q 326 872 335 881 q 303 864 317 864 l 231 864 m 463 864 q 440 872 449 864 q 432 894 432 881 l 432 967 q 440 990 432 981 q 463 999 449 999 l 536 999 q 559 990 550 999 q 568 967 568 981 l 568 894 q 559 872 568 881 q 536 864 550 864 l 463 864 z "},"ỳ":{"ha":763,"x_min":43,"x_max":726,"o":"m 231 -264 q 210 -256 218 -264 q 201 -236 201 -247 q 208 -211 201 -232 l 317 43 l 51 669 q 43 693 43 686 q 53 714 44 706 q 72 722 61 722 l 136 722 q 169 700 158 722 l 383 189 l 603 700 q 636 722 614 722 l 699 722 q 718 714 710 722 q 726 694 726 706 q 719 669 726 685 l 326 -242 q 312 -258 319 -253 q 292 -264 304 -264 l 231 -264 m 379 826 q 355 829 364 826 q 335 842 346 832 l 174 974 q 167 990 167 981 q 193 1017 167 1017 l 283 1017 q 313 1012 303 1017 q 335 992 322 1007 l 439 867 q 446 849 446 860 q 424 826 446 826 l 379 826 z "},"z":{"ha":704,"x_min":57,"x_max":653,"o":"m 89 0 q 66 9 75 0 q 57 32 57 18 l 57 78 q 63 101 57 89 q 76 122 69 113 l 464 615 l 101 615 q 79 624 88 615 q 71 647 71 633 l 71 690 q 79 713 71 704 q 101 722 88 722 l 593 722 q 616 713 607 722 q 625 690 625 704 l 625 642 q 606 599 625 626 l 224 107 l 621 107 q 644 99 636 107 q 653 75 653 90 l 653 32 q 644 9 653 18 q 621 0 635 0 l 89 0 z "},"ź":{"ha":704,"x_min":57,"x_max":653,"o":"m 89 0 q 66 9 75 0 q 57 32 57 18 l 57 78 q 63 101 57 89 q 76 122 69 113 l 464 615 l 101 615 q 79 624 88 615 q 71 647 71 633 l 71 690 q 79 713 71 704 q 101 722 88 722 l 593 722 q 616 713 607 722 q 625 690 625 704 l 625 642 q 606 599 625 626 l 224 107 l 621 107 q 644 99 636 107 q 653 75 653 90 l 653 32 q 644 9 653 18 q 621 0 635 0 l 89 0 m 317 826 q 294 849 294 826 q 301 867 294 860 l 404 992 q 428 1012 418 1007 q 456 1017 438 1017 l 546 1017 q 572 990 572 1017 q 565 974 572 981 l 406 842 q 385 829 394 832 q 360 826 375 826 l 317 826 z "},"ž":{"ha":704,"x_min":57,"x_max":653,"o":"m 89 0 q 66 9 75 0 q 57 32 57 18 l 57 78 q 63 101 57 89 q 76 122 69 113 l 464 615 l 101 615 q 79 624 88 615 q 71 647 71 633 l 71 690 q 79 713 71 704 q 101 722 88 722 l 593 722 q 616 713 607 722 q 625 690 625 704 l 625 642 q 606 599 625 626 l 224 107 l 621 107 q 644 99 636 107 q 653 75 653 90 l 653 32 q 644 9 653 18 q 621 0 635 0 l 89 0 m 336 826 q 313 830 322 826 q 290 847 304 833 l 164 974 q 149 1000 149 988 q 168 1017 149 1017 l 203 1017 q 242 1007 225 1017 l 356 928 l 469 1007 q 507 1017 483 1017 l 542 1017 q 563 1000 563 1017 q 547 974 563 989 l 421 847 q 398 830 407 833 q 375 826 389 826 l 336 826 z "},"ż":{"ha":704,"x_min":57,"x_max":653,"o":"m 89 0 q 66 9 75 0 q 57 32 57 18 l 57 78 q 63 101 57 89 q 76 122 69 113 l 464 615 l 101 615 q 79 624 88 615 q 71 647 71 633 l 71 690 q 79 713 71 704 q 101 722 88 722 l 593 722 q 616 713 607 722 q 625 690 625 704 l 625 642 q 606 599 625 626 l 224 107 l 621 107 q 644 99 636 107 q 653 75 653 90 l 653 32 q 644 9 653 18 q 621 0 635 0 l 89 0 m 313 851 q 290 860 299 851 q 282 883 282 869 l 282 968 q 290 991 282 982 q 313 1000 299 1000 l 399 1000 q 422 991 413 1000 q 431 968 431 982 l 431 883 q 422 860 431 869 q 399 851 413 851 l 313 851 z "},"ﬁ":{"ha":754,"x_min":25,"x_max":650,"o":"m 208 0 q 185 9 194 0 q 176 32 176 18 l 176 615 l 57 615 q 34 624 43 615 q 25 646 25 632 l 25 690 q 34 713 25 704 q 57 722 43 722 l 176 722 l 176 792 q 231 966 176 904 q 411 1028 286 1028 l 619 1028 q 642 1019 633 1028 q 650 996 650 1010 l 650 951 q 642 929 650 938 q 619 921 633 921 l 414 921 q 325 888 350 921 q 300 785 300 854 l 300 722 l 619 722 q 642 713 633 722 q 650 690 650 704 l 650 32 q 642 9 650 18 q 619 0 633 0 l 558 0 q 535 9 544 0 q 526 32 526 18 l 526 615 l 300 615 l 300 32 q 291 9 300 18 q 268 0 282 0 l 208 0 z "},"ﬂ":{"ha":826,"x_min":25,"x_max":722,"o":"m 208 0 q 185 9 194 0 q 176 32 176 18 l 176 615 l 57 615 q 34 624 43 615 q 25 646 25 632 l 25 690 q 34 713 25 704 q 57 722 43 722 l 176 722 l 176 792 q 231 966 176 904 q 411 1028 286 1028 l 489 1028 q 511 1019 503 1028 q 519 996 519 1010 l 519 951 q 511 929 519 938 q 489 921 503 921 l 414 921 q 325 888 350 921 q 300 785 300 854 l 300 722 l 599 722 l 599 996 q 607 1019 599 1010 q 629 1028 615 1028 l 690 1028 q 713 1019 704 1028 q 722 996 722 1010 l 722 32 q 713 9 722 18 q 690 0 704 0 l 629 0 q 607 9 615 0 q 599 32 599 18 l 599 615 l 300 615 l 300 32 q 291 9 300 18 q 268 0 282 0 l 208 0 z "},"ª":{"ha":506,"x_min":72,"x_max":414,"o":"m 203 596 q 108 626 143 596 q 72 703 72 657 q 114 790 72 756 q 229 835 156 824 l 315 847 q 253 896 315 896 q 210 888 225 896 q 193 879 196 881 q 164 868 176 868 l 124 868 q 104 874 113 868 q 96 889 96 879 q 117 926 96 904 q 174 964 138 949 q 257 979 211 979 q 372 938 331 979 q 414 829 414 897 l 414 632 q 406 611 414 619 q 385 603 397 603 l 344 603 q 324 611 332 603 q 315 632 315 619 l 315 643 q 272 610 304 624 q 203 596 239 596 m 222 676 q 292 703 269 676 q 315 774 315 731 l 254 764 q 188 742 206 756 q 171 707 171 728 q 185 685 171 693 q 222 676 200 676 z "},"º":{"ha":499,"x_min":75,"x_max":425,"o":"m 250 596 q 126 635 172 596 q 76 750 81 674 l 75 788 l 76 825 q 128 940 81 900 q 250 979 176 979 q 372 940 324 979 q 424 825 419 900 q 425 788 425 818 q 424 750 425 757 q 374 635 419 674 q 250 596 329 596 m 250 682 q 324 757 319 682 q 325 788 325 764 q 324 818 325 811 q 303 873 321 853 q 250 893 285 893 q 197 873 215 893 q 176 818 179 853 l 175 788 l 176 757 q 250 682 181 682 z "},"А":{"ha":928,"x_min":28,"x_max":900,"o":"m 56 0 q 36 8 44 0 q 28 28 28 17 l 31 43 l 375 942 q 419 972 386 972 l 508 972 q 553 942 542 972 l 897 43 l 900 28 q 891 8 900 17 q 871 0 882 0 l 806 0 q 783 8 792 0 q 771 24 774 15 l 693 224 l 233 224 l 157 24 q 122 0 146 0 l 56 0 m 274 339 l 654 339 l 464 838 l 274 339 z "},"Б":{"ha":888,"x_min":122,"x_max":840,"o":"m 153 0 q 131 9 139 0 q 122 32 122 18 l 122 939 q 131 963 122 954 q 153 972 139 972 l 754 972 q 778 963 769 972 q 788 939 788 954 l 788 888 q 778 864 788 872 q 754 856 769 856 l 253 856 l 253 569 l 532 569 q 758 494 676 569 q 840 289 840 418 q 806 151 840 217 q 701 42 771 85 q 532 0 632 0 l 153 0 m 515 110 q 656 162 604 110 q 707 292 707 214 q 658 416 707 369 q 515 463 610 463 l 253 463 l 253 110 l 515 110 z "},"В":{"ha":926,"x_min":122,"x_max":849,"o":"m 153 0 q 131 9 139 0 q 122 32 122 18 l 122 939 q 131 963 122 954 q 153 972 139 972 l 532 972 q 754 901 679 972 q 829 717 829 831 q 793 587 829 639 q 708 511 757 535 q 808 421 768 482 q 849 281 849 360 q 813 139 849 203 q 708 38 778 75 q 543 0 639 0 l 153 0 m 511 560 q 649 601 601 560 q 696 715 696 642 q 649 825 696 788 q 511 863 603 863 l 253 863 l 253 560 l 511 560 m 525 110 q 665 158 614 110 q 715 281 715 206 q 665 404 715 357 q 525 451 614 451 l 253 451 l 253 110 l 525 110 z "},"Г":{"ha":724,"x_min":122,"x_max":718,"o":"m 153 0 q 131 9 139 0 q 122 32 122 18 l 122 939 q 131 963 122 954 q 153 972 139 972 l 686 972 q 710 963 701 972 q 718 939 718 954 l 718 888 q 710 865 718 874 q 686 856 701 856 l 253 856 l 253 32 q 243 9 253 18 q 219 0 233 0 l 153 0 z "},"Ѓ":{"ha":724,"x_min":122,"x_max":718,"o":"m 153 0 q 131 9 139 0 q 122 32 122 18 l 122 939 q 131 963 122 954 q 153 972 139 972 l 686 972 q 710 963 701 972 q 718 939 718 954 l 718 888 q 710 865 718 874 q 686 856 701 856 l 253 856 l 253 32 q 243 9 253 18 q 219 0 233 0 l 153 0 m 410 1042 q 388 1064 388 1042 q 394 1082 388 1075 l 497 1207 q 521 1227 511 1222 q 549 1232 531 1232 l 647 1232 q 674 1206 674 1232 q 667 1189 674 1196 l 507 1057 q 486 1044 496 1047 q 461 1042 476 1042 l 410 1042 z "},"Ґ":{"ha":724,"x_min":122,"x_max":718,"o":"m 686 1167 q 710 1158 701 1167 q 718 1135 718 1150 l 718 888 q 710 865 718 874 q 686 856 701 856 l 253 856 l 253 32 q 243 9 253 18 q 219 0 233 0 l 153 0 q 131 9 139 0 q 122 32 122 18 l 122 939 q 131 963 122 954 q 153 972 139 972 l 588 972 l 588 1135 q 597 1158 588 1149 q 619 1167 606 1167 l 686 1167 z "},"Д":{"ha":978,"x_min":32,"x_max":931,"o":"m 63 -193 q 40 -184 49 -193 q 32 -161 32 -175 l 32 89 q 40 112 32 103 q 63 121 49 121 l 93 121 q 194 247 160 121 q 228 640 228 374 l 228 940 q 237 963 228 954 q 260 972 246 972 l 797 972 q 821 963 813 972 q 829 939 829 954 l 829 121 l 897 121 q 922 112 913 121 q 931 89 931 103 l 931 -161 q 922 -185 931 -176 q 897 -193 913 -193 l 832 -193 q 809 -185 818 -193 q 800 -161 800 -176 l 800 0 l 163 0 l 163 -161 q 153 -184 163 -175 q 129 -193 144 -193 l 63 -193 m 699 121 l 699 851 l 357 851 l 357 624 q 334 305 357 428 q 265 121 311 182 l 699 121 z "},"Е":{"ha":840,"x_min":122,"x_max":768,"o":"m 153 0 q 131 9 139 0 q 122 32 122 18 l 122 939 q 131 963 122 954 q 153 972 139 972 l 724 972 q 748 963 739 972 q 757 939 757 954 l 757 889 q 748 867 757 875 q 724 858 739 858 l 250 858 l 250 549 l 693 549 q 717 540 708 549 q 726 515 726 531 l 726 468 q 717 445 726 454 q 693 436 708 436 l 250 436 l 250 115 l 735 115 q 759 106 750 115 q 768 82 768 97 l 768 32 q 758 9 768 18 q 735 0 749 0 l 153 0 z "},"Ѐ":{"ha":840,"x_min":122,"x_max":768,"o":"m 153 0 q 131 9 139 0 q 122 32 122 18 l 122 939 q 131 963 122 954 q 153 972 139 972 l 724 972 q 748 963 739 972 q 757 939 757 954 l 757 889 q 748 867 757 875 q 724 858 739 858 l 250 858 l 250 549 l 693 549 q 717 540 708 549 q 726 515 726 531 l 726 468 q 717 445 726 454 q 693 436 708 436 l 250 436 l 250 115 l 735 115 q 759 106 750 115 q 768 82 768 97 l 768 32 q 758 9 768 18 q 735 0 749 0 l 153 0 m 442 1042 q 417 1044 426 1042 q 396 1057 407 1047 l 236 1189 q 229 1206 229 1196 q 256 1232 229 1232 l 354 1232 q 382 1227 372 1232 q 406 1207 392 1222 l 508 1082 q 515 1064 515 1075 q 493 1042 515 1042 l 442 1042 z "},"Ё":{"ha":840,"x_min":122,"x_max":768,"o":"m 153 0 q 131 9 139 0 q 122 32 122 18 l 122 939 q 131 963 122 954 q 153 972 139 972 l 724 972 q 748 963 739 972 q 757 939 757 954 l 757 889 q 748 867 757 875 q 724 858 739 858 l 250 858 l 250 549 l 693 549 q 717 540 708 549 q 726 515 726 531 l 726 468 q 717 445 726 454 q 693 436 708 436 l 250 436 l 250 115 l 735 115 q 759 106 750 115 q 768 82 768 97 l 768 32 q 758 9 768 18 q 735 0 749 0 l 153 0 m 294 1114 q 272 1122 281 1114 q 264 1144 264 1131 l 264 1217 q 272 1240 264 1231 q 294 1249 281 1249 l 367 1249 q 390 1240 381 1249 q 399 1217 399 1231 l 399 1144 q 390 1122 399 1131 q 367 1114 381 1114 l 294 1114 m 526 1114 q 504 1122 513 1114 q 496 1144 496 1131 l 496 1217 q 504 1240 496 1231 q 526 1249 513 1249 l 600 1249 q 623 1240 614 1249 q 632 1217 632 1231 l 632 1144 q 623 1122 632 1131 q 600 1114 614 1114 l 526 1114 z "},"Ж":{"ha":1371,"x_min":54,"x_max":1317,"o":"m 1314 49 q 1317 33 1317 44 q 1308 10 1317 19 q 1285 0 1299 0 l 1213 0 q 1191 6 1199 0 q 1176 21 1183 11 l 908 432 l 750 432 l 750 31 q 741 8 750 17 q 718 0 732 0 l 653 0 q 630 9 639 0 q 621 32 621 18 l 621 432 l 461 432 l 194 21 q 180 6 188 11 q 158 0 172 0 l 86 0 q 63 10 72 0 q 54 33 54 19 q 57 49 54 44 l 351 501 l 85 926 q 78 944 78 938 q 107 972 78 972 l 174 972 q 221 950 206 972 l 469 551 l 621 553 l 621 940 q 630 963 621 954 q 653 972 639 972 l 718 972 q 741 963 732 972 q 750 940 750 954 l 750 553 l 899 551 l 1147 950 q 1194 972 1163 972 l 1264 972 q 1293 944 1293 972 q 1286 926 1293 938 l 1019 501 l 1314 49 z "},"З":{"ha":858,"x_min":54,"x_max":782,"o":"m 413 -14 q 226 19 304 -14 q 104 107 147 51 q 54 232 61 163 l 54 235 q 63 253 54 246 q 83 260 71 260 l 147 260 q 172 253 163 260 q 188 229 182 247 q 262 135 204 169 q 411 100 319 100 q 580 148 511 100 q 649 275 649 196 q 589 403 649 357 q 426 449 529 449 l 326 449 q 304 458 313 449 q 296 482 296 467 l 296 526 q 304 551 296 542 q 326 560 313 560 l 421 560 q 564 599 511 560 q 617 719 617 639 q 558 830 617 788 q 415 872 500 872 q 269 840 326 872 q 199 740 213 808 q 165 713 192 713 l 97 713 q 75 721 85 713 q 67 742 65 729 q 167 919 78 853 q 417 986 257 986 q 597 950 522 986 q 710 854 672 914 q 749 726 749 794 q 722 602 749 658 q 638 511 696 546 q 746 413 710 475 q 782 272 782 351 q 737 123 782 188 q 608 22 692 58 q 413 -14 524 -14 z "},"И":{"ha":1028,"x_min":122,"x_max":907,"o":"m 153 0 q 131 9 139 0 q 122 33 122 18 l 122 939 q 131 963 122 954 q 154 972 139 972 l 221 972 q 244 963 235 972 q 253 939 253 954 l 253 213 l 776 953 q 810 972 788 972 l 875 972 q 898 963 889 972 q 907 939 907 954 l 907 32 q 898 9 907 18 q 875 0 889 0 l 808 0 q 785 9 794 0 q 775 32 775 18 l 775 751 l 253 19 q 219 0 242 0 l 153 0 z "},"Й":{"ha":1028,"x_min":122,"x_max":907,"o":"m 153 0 q 131 9 139 0 q 122 33 122 18 l 122 939 q 131 963 122 954 q 154 972 139 972 l 221 972 q 244 963 235 972 q 253 939 253 954 l 253 213 l 776 953 q 810 972 788 972 l 875 972 q 898 963 889 972 q 907 939 907 954 l 907 32 q 898 9 907 18 q 875 0 889 0 l 808 0 q 785 9 794 0 q 775 32 775 18 l 775 751 l 253 19 q 219 0 242 0 l 153 0 m 510 1028 q 345 1076 394 1028 q 296 1200 296 1125 q 303 1219 296 1211 q 322 1226 310 1226 l 367 1226 q 386 1219 379 1226 q 393 1200 393 1211 q 510 1113 393 1113 q 625 1200 625 1113 q 632 1219 625 1211 q 651 1226 639 1226 l 696 1226 q 715 1219 708 1226 q 722 1200 722 1211 q 674 1076 722 1125 q 510 1028 625 1028 z "},"Ѝ":{"ha":1028,"x_min":122,"x_max":907,"o":"m 153 0 q 131 9 139 0 q 122 33 122 18 l 122 939 q 131 963 122 954 q 154 972 139 972 l 221 972 q 244 963 235 972 q 253 939 253 954 l 253 213 l 776 953 q 810 972 788 972 l 875 972 q 898 963 889 972 q 907 939 907 954 l 907 32 q 898 9 907 18 q 875 0 889 0 l 808 0 q 785 9 794 0 q 775 32 775 18 l 775 751 l 253 19 q 219 0 242 0 l 153 0 m 504 1042 q 479 1044 489 1042 q 458 1057 469 1047 l 299 1189 q 292 1206 292 1196 q 318 1232 292 1232 l 417 1232 q 444 1227 435 1232 q 468 1207 454 1222 l 571 1082 q 578 1064 578 1075 q 556 1042 578 1042 l 504 1042 z "},"К":{"ha":885,"x_min":122,"x_max":831,"o":"m 828 49 q 831 33 831 44 q 822 10 831 19 q 799 0 813 0 l 726 0 q 690 21 703 0 l 422 432 l 253 432 l 253 32 q 243 9 253 18 q 219 0 233 0 l 153 0 q 131 9 139 0 q 122 32 122 18 l 122 939 q 131 963 122 954 q 153 972 139 972 l 219 972 q 244 963 235 972 q 253 939 253 954 l 253 553 l 413 551 l 661 950 q 710 972 676 972 l 779 972 q 800 965 793 972 q 807 944 807 957 q 800 926 807 938 l 533 501 l 828 49 z "},"Ќ":{"ha":885,"x_min":122,"x_max":831,"o":"m 828 49 q 831 33 831 44 q 822 10 831 19 q 799 0 813 0 l 726 0 q 690 21 703 0 l 422 432 l 253 432 l 253 32 q 243 9 253 18 q 219 0 233 0 l 153 0 q 131 9 139 0 q 122 32 122 18 l 122 939 q 131 963 122 954 q 153 972 139 972 l 219 972 q 244 963 235 972 q 253 939 253 954 l 253 553 l 413 551 l 661 950 q 710 972 676 972 l 779 972 q 800 965 793 972 q 807 944 807 957 q 800 926 807 938 l 533 501 l 828 49 m 394 1042 q 372 1064 372 1042 q 379 1082 372 1075 l 482 1207 q 506 1227 496 1222 q 533 1232 515 1232 l 632 1232 q 658 1206 658 1232 q 651 1189 658 1196 l 492 1057 q 471 1044 481 1047 q 446 1042 461 1042 l 394 1042 z "},"Л":{"ha":975,"x_min":32,"x_max":854,"o":"m 754 0 q 732 9 740 0 q 724 32 724 18 l 724 851 l 374 851 l 374 624 q 342 267 374 400 q 242 71 310 133 q 64 1 175 8 q 41 10 50 0 q 32 35 32 19 l 32 92 q 40 113 32 104 q 61 124 47 122 q 199 258 151 136 q 246 640 246 379 l 246 940 q 255 964 246 956 q 278 972 264 972 l 821 972 q 845 963 836 972 q 854 939 854 954 l 854 32 q 844 9 854 18 q 821 0 835 0 l 754 0 z "},"М":{"ha":1101,"x_min":122,"x_max":979,"o":"m 154 0 q 131 9 140 0 q 122 32 122 18 l 122 939 q 131 963 122 954 q 154 972 139 972 l 219 972 q 254 951 244 972 l 550 383 l 849 951 q 882 972 860 972 l 947 972 q 971 963 963 972 q 979 939 979 954 l 979 32 q 970 9 979 18 q 947 0 961 0 l 883 0 q 861 9 869 0 q 853 32 853 18 l 853 722 l 615 263 q 571 233 601 233 l 529 233 q 485 263 500 233 l 249 722 l 249 32 q 240 9 249 18 q 217 0 231 0 l 154 0 z "},"Н":{"ha":989,"x_min":122,"x_max":868,"o":"m 153 0 q 131 9 139 0 q 122 32 122 18 l 122 939 q 131 963 122 954 q 153 972 139 972 l 219 972 q 244 963 235 972 q 253 939 253 954 l 253 553 l 736 553 l 736 939 q 745 963 736 954 q 768 972 754 972 l 835 972 q 859 963 850 972 q 868 939 868 954 l 868 32 q 858 9 868 18 q 835 0 849 0 l 768 0 q 745 9 754 0 q 736 32 736 18 l 736 432 l 253 432 l 253 32 q 243 9 253 18 q 219 0 233 0 l 153 0 z "},"О":{"ha":938,"x_min":85,"x_max":854,"o":"m 469 -14 q 190 81 289 -14 q 86 368 92 176 q 85 486 85 410 q 86 603 85 563 q 194 889 92 792 q 469 986 296 986 q 744 889 643 986 q 851 603 846 792 q 854 486 854 522 q 851 368 854 451 q 748 81 846 176 q 469 -14 650 -14 m 469 101 q 647 169 581 101 q 719 375 714 236 q 722 486 722 458 q 719 597 722 517 q 647 804 714 736 q 469 872 581 872 q 291 804 358 872 q 219 597 224 736 q 218 486 218 557 q 219 375 218 417 q 290 169 224 236 q 469 101 357 101 z "},"П":{"ha":989,"x_min":122,"x_max":868,"o":"m 153 0 q 131 9 139 0 q 122 32 122 18 l 122 939 q 131 963 122 954 q 153 972 139 972 l 835 972 q 859 963 850 972 q 868 939 868 954 l 868 32 q 858 9 868 18 q 835 0 849 0 l 768 0 q 745 9 754 0 q 736 32 736 18 l 736 851 l 253 851 l 253 32 q 243 9 253 18 q 219 0 233 0 l 153 0 z "},"Р":{"ha":890,"x_min":122,"x_max":840,"o":"m 153 0 q 131 9 139 0 q 122 32 122 18 l 122 939 q 131 963 122 954 q 153 972 139 972 l 504 972 q 751 897 661 972 q 840 676 840 821 q 751 457 840 532 q 504 382 661 382 l 254 382 l 254 32 q 245 9 254 18 q 222 0 236 0 l 153 0 m 497 494 q 707 676 707 494 q 655 813 707 765 q 497 860 603 860 l 254 860 l 254 494 l 497 494 z "},"С":{"ha":924,"x_min":83,"x_max":857,"o":"m 469 -14 q 188 87 285 -14 q 85 363 92 188 q 83 485 83 400 q 85 610 83 571 q 188 885 92 785 q 469 986 285 986 q 679 942 593 986 q 809 828 765 899 q 857 676 853 757 q 848 656 857 664 q 826 649 839 649 l 757 649 q 735 656 743 649 q 722 679 726 663 q 637 829 699 786 q 469 872 575 872 q 218 603 228 872 q 217 488 217 565 q 218 369 217 410 q 469 101 228 101 q 636 144 574 101 q 722 293 699 188 q 735 317 726 310 q 757 324 743 324 l 826 324 q 848 316 839 324 q 857 296 857 308 q 809 144 853 215 q 679 30 765 74 q 469 -14 593 -14 z "},"Т":{"ha":801,"x_min":35,"x_max":765,"o":"m 367 0 q 344 9 353 0 q 335 32 335 18 l 335 853 l 67 853 q 44 862 53 853 q 35 885 35 871 l 35 939 q 44 963 35 954 q 67 972 53 972 l 733 972 q 757 963 749 972 q 765 939 765 954 l 765 885 q 756 862 765 871 q 733 853 747 853 l 467 853 l 467 32 q 457 9 467 18 q 433 0 447 0 l 367 0 z "},"У":{"ha":814,"x_min":18,"x_max":814,"o":"m 786 972 q 806 964 797 972 q 814 944 814 956 q 810 925 814 936 l 526 283 q 441 116 478 174 q 352 29 404 58 q 219 0 300 0 l 164 0 q 142 9 150 0 q 133 32 133 18 l 133 86 q 142 110 133 101 q 164 119 150 119 l 214 119 q 306 154 268 119 q 383 271 343 189 l 22 928 q 18 943 18 936 q 27 964 18 956 q 47 972 36 972 l 121 972 q 154 950 140 972 l 449 415 l 682 950 q 717 972 690 972 l 786 972 z "},"Ў":{"ha":814,"x_min":18,"x_max":814,"o":"m 786 972 q 806 964 797 972 q 814 944 814 956 q 810 925 814 936 l 526 283 q 441 116 478 174 q 352 29 404 58 q 219 0 300 0 l 164 0 q 142 9 150 0 q 133 32 133 18 l 133 86 q 142 110 133 101 q 164 119 150 119 l 214 119 q 306 154 268 119 q 383 271 343 189 l 22 928 q 18 943 18 936 q 27 964 18 956 q 47 972 36 972 l 121 972 q 154 950 140 972 l 449 415 l 682 950 q 717 972 690 972 l 786 972 m 418 1028 q 253 1076 303 1028 q 204 1200 204 1125 q 211 1219 204 1211 q 231 1226 218 1226 l 275 1226 q 294 1219 288 1226 q 301 1200 301 1211 q 418 1113 301 1113 q 533 1200 533 1113 q 540 1219 533 1211 q 560 1226 547 1226 l 604 1226 q 624 1219 617 1226 q 631 1200 631 1211 q 582 1076 631 1125 q 418 1028 533 1028 z "},"Ф":{"ha":1183,"x_min":85,"x_max":1100,"o":"m 558 -44 q 535 -35 544 -44 q 526 -12 526 -26 l 526 99 q 213 187 321 99 q 86 457 104 275 q 85 497 85 469 q 86 554 85 536 q 211 822 96 731 q 526 914 326 914 l 526 1010 q 535 1033 526 1024 q 558 1042 544 1042 l 625 1042 q 649 1033 640 1042 q 657 1010 657 1025 l 657 914 q 973 822 857 914 q 1097 554 1089 731 q 1100 506 1100 518 q 1097 457 1100 493 q 973 187 1082 275 q 657 99 864 99 l 657 -12 q 649 -36 657 -28 q 625 -44 640 -44 l 558 -44 m 526 799 q 308 738 385 799 q 219 547 231 678 q 218 513 218 535 q 219 464 218 482 q 526 213 233 213 l 526 799 m 657 213 q 965 464 951 213 q 967 513 967 481 q 965 547 967 536 q 875 738 951 678 q 657 799 799 799 l 657 213 z "},"Х":{"ha":876,"x_min":35,"x_max":843,"o":"m 63 0 q 43 8 51 0 q 35 28 35 17 q 40 46 35 38 l 358 494 l 56 926 q 50 944 50 935 q 58 964 50 956 q 78 972 67 972 l 157 972 q 193 949 176 972 l 442 597 l 688 949 q 724 972 701 972 l 797 972 q 817 964 808 972 q 825 944 825 956 q 819 926 825 935 l 519 493 l 838 46 q 843 28 843 38 q 834 8 843 17 q 814 0 825 0 l 735 0 q 699 22 714 0 l 436 389 l 175 22 q 139 0 160 0 l 63 0 z "},"Ч":{"ha":906,"x_min":78,"x_max":782,"o":"m 683 0 q 660 9 669 0 q 651 32 651 18 l 651 392 q 551 339 622 357 q 406 321 479 321 q 78 621 78 321 l 78 940 q 87 963 78 954 q 110 972 96 972 l 176 972 q 201 963 192 972 q 210 940 210 954 l 210 629 q 260 488 210 532 q 428 443 310 443 q 582 476 513 443 q 651 588 651 508 l 651 940 q 660 964 651 956 q 683 972 669 972 l 749 972 q 773 964 764 972 q 782 940 782 956 l 782 32 q 773 9 782 18 q 749 0 764 0 l 683 0 z "},"Ц":{"ha":1017,"x_min":122,"x_max":968,"o":"m 869 -194 q 847 -185 856 -194 q 838 -162 838 -176 l 838 0 l 153 0 q 131 9 139 0 q 122 33 122 18 l 122 940 q 131 963 122 954 q 153 972 139 972 l 219 972 q 244 963 235 972 q 253 940 253 954 l 253 121 l 736 121 l 736 940 q 745 963 736 954 q 768 972 754 972 l 835 972 q 859 963 850 972 q 868 940 868 954 l 868 121 l 936 121 q 959 112 950 121 q 968 89 968 103 l 968 -162 q 960 -186 968 -178 q 936 -194 951 -194 l 869 -194 z "},"Ш":{"ha":1328,"x_min":122,"x_max":1207,"o":"m 153 0 q 131 9 139 0 q 122 32 122 18 l 122 940 q 131 963 122 954 q 153 972 139 972 l 219 972 q 244 963 235 972 q 253 940 253 954 l 253 121 l 599 121 l 599 940 q 608 963 599 954 q 631 972 617 972 l 697 972 q 721 964 713 972 q 729 940 729 956 l 729 121 l 1076 121 l 1076 940 q 1085 964 1076 956 q 1108 972 1094 972 l 1174 972 q 1198 963 1189 972 q 1207 940 1207 954 l 1207 32 q 1197 9 1207 18 q 1174 0 1188 0 l 153 0 z "},"Щ":{"ha":1356,"x_min":122,"x_max":1308,"o":"m 1208 -194 q 1186 -185 1194 -194 q 1178 -162 1178 -176 l 1178 0 l 153 0 q 131 9 139 0 q 122 32 122 18 l 122 940 q 131 963 122 954 q 153 972 139 972 l 219 972 q 244 963 235 972 q 253 940 253 954 l 253 121 l 599 121 l 599 940 q 608 963 599 954 q 631 972 617 972 l 697 972 q 721 964 713 972 q 729 940 729 956 l 729 121 l 1076 121 l 1076 940 q 1085 964 1076 956 q 1108 972 1094 972 l 1174 972 q 1198 963 1189 972 q 1207 940 1207 954 l 1207 121 l 1275 121 q 1299 112 1289 121 q 1308 89 1308 103 l 1308 -162 q 1299 -185 1308 -176 q 1275 -194 1290 -194 l 1208 -194 z "},"Џ":{"ha":989,"x_min":122,"x_max":868,"o":"m 460 -194 q 438 -185 446 -194 q 429 -162 429 -176 l 429 0 l 153 0 q 131 9 139 0 q 122 32 122 18 l 122 940 q 131 963 122 954 q 153 972 139 972 l 219 972 q 244 963 235 972 q 253 940 253 954 l 253 121 l 736 121 l 736 940 q 745 963 736 954 q 768 972 754 972 l 835 972 q 859 963 850 972 q 868 940 868 954 l 868 32 q 858 9 868 18 q 835 0 849 0 l 560 0 l 560 -162 q 551 -185 560 -176 q 526 -194 542 -194 l 460 -194 z "},"Ь":{"ha":835,"x_min":122,"x_max":782,"o":"m 153 0 q 131 9 139 0 q 122 32 122 18 l 122 940 q 131 963 122 954 q 153 972 139 972 l 219 972 q 244 963 235 972 q 253 940 253 954 l 253 601 l 468 601 q 701 525 619 601 q 782 304 782 449 q 747 154 782 224 q 640 42 711 85 q 468 0 569 0 l 153 0 m 456 113 q 597 165 546 113 q 649 307 649 218 q 456 489 649 489 l 253 489 l 253 113 l 456 113 z "},"Ъ":{"ha":989,"x_min":35,"x_max":936,"o":"m 319 0 q 297 9 306 0 q 288 32 288 18 l 288 858 l 67 858 q 44 867 53 858 q 35 889 35 875 l 35 939 q 44 963 35 954 q 67 972 53 972 l 386 972 q 410 964 401 972 q 418 940 418 956 l 418 601 l 622 601 q 855 525 774 601 q 936 304 936 449 q 901 154 936 224 q 796 42 867 85 q 622 0 725 0 l 319 0 m 611 113 q 751 165 700 113 q 803 307 803 218 q 611 489 803 489 l 418 489 l 418 113 l 611 113 z "},"Ы":{"ha":1135,"x_min":122,"x_max":1014,"o":"m 153 0 q 131 9 139 0 q 122 32 122 18 l 122 940 q 131 963 122 954 q 153 972 139 972 l 219 972 q 244 963 235 972 q 253 940 253 954 l 253 601 l 433 601 q 666 525 585 601 q 747 304 747 449 q 712 154 747 224 q 606 42 676 85 q 433 0 535 0 l 153 0 m 913 0 q 890 9 899 0 q 882 32 882 18 l 882 940 q 890 963 882 954 q 913 972 899 972 l 982 972 q 1006 964 997 972 q 1014 940 1014 956 l 1014 32 q 1005 9 1014 18 q 982 0 996 0 l 913 0 m 421 113 q 563 165 511 113 q 614 307 614 218 q 421 489 614 489 l 253 489 l 253 113 l 421 113 z "},"Љ":{"ha":1367,"x_min":32,"x_max":1314,"o":"m 64 1 q 41 10 50 0 q 32 35 32 19 l 32 92 q 40 113 32 104 q 61 124 47 122 q 199 258 151 136 q 246 640 246 379 l 246 940 q 255 964 246 956 q 278 972 264 972 l 788 972 q 810 963 801 972 q 819 940 819 954 l 819 601 l 1000 601 q 1233 525 1151 601 q 1314 304 1314 449 q 1278 154 1314 224 q 1172 42 1243 85 q 1000 0 1101 0 l 719 0 q 697 9 706 0 q 689 32 689 18 l 689 851 l 374 851 l 374 624 q 342 266 374 400 q 242 69 310 132 q 64 1 175 7 m 988 113 q 1129 165 1078 113 q 1181 307 1181 218 q 988 489 1181 489 l 819 489 l 819 113 l 988 113 z "},"Њ":{"ha":1392,"x_min":122,"x_max":1339,"o":"m 153 0 q 131 9 139 0 q 122 32 122 18 l 122 939 q 131 963 122 954 q 153 972 139 972 l 219 972 q 244 963 235 972 q 253 939 253 954 l 253 553 l 714 553 l 714 939 q 722 963 714 954 q 746 972 731 972 l 813 972 q 835 963 826 972 q 844 940 844 954 l 844 601 l 1025 601 q 1258 525 1176 601 q 1339 304 1339 449 q 1304 154 1339 224 q 1199 42 1269 85 q 1025 0 1128 0 l 746 0 q 723 9 732 0 q 714 32 714 18 l 714 432 l 253 432 l 253 32 q 243 9 253 18 q 219 0 233 0 l 153 0 m 1014 113 q 1155 165 1104 113 q 1206 307 1206 218 q 1014 489 1206 489 l 844 489 l 844 113 l 1014 113 z "}}}
